<mxfile host="app.diagrams.net" modified="2024-06-16T10:33:21.165Z" agent="Mozilla/5.0 (Windows NT 10.0; Win64; x64) AppleWebKit/537.36 (KHTML, like Gecko) Chrome/126.0.0.0 Safari/537.36" etag="5UHnFIbm5MhfWkuMSR3p" version="24.4.6" type="github">
  <diagram name="Page-1" id="gJDTJ7QGdjp0CmShwsaG">
    <mxGraphModel dx="1434" dy="754" grid="1" gridSize="10" guides="1" tooltips="1" connect="1" arrows="1" fold="1" page="1" pageScale="1" pageWidth="850" pageHeight="1100" math="1" shadow="0">
      <root>
        <mxCell id="0" />
        <mxCell id="1" parent="0" />
        <mxCell id="8LVjwsLibscviExB6FwT-8" style="edgeStyle=orthogonalEdgeStyle;rounded=0;orthogonalLoop=1;jettySize=auto;html=1;exitX=1;exitY=0.5;exitDx=0;exitDy=0;entryX=0;entryY=0.5;entryDx=0;entryDy=0;fontSize=25;" edge="1" parent="1" source="8LVjwsLibscviExB6FwT-1" target="8LVjwsLibscviExB6FwT-2">
          <mxGeometry relative="1" as="geometry" />
        </mxCell>
        <mxCell id="8LVjwsLibscviExB6FwT-1" value="ЛЗ" style="rounded=0;whiteSpace=wrap;html=1;fontSize=25;" vertex="1" parent="1">
          <mxGeometry x="130" y="160" width="120" height="60" as="geometry" />
        </mxCell>
        <mxCell id="8LVjwsLibscviExB6FwT-2" value="&lt;font style=&quot;font-size: 25px;&quot;&gt;СС&lt;/font&gt;" style="rounded=0;whiteSpace=wrap;html=1;fontSize=25;" vertex="1" parent="1">
          <mxGeometry x="300" y="160" width="120" height="60" as="geometry" />
        </mxCell>
        <mxCell id="8LVjwsLibscviExB6FwT-22" style="edgeStyle=orthogonalEdgeStyle;rounded=0;orthogonalLoop=1;jettySize=auto;html=1;exitX=1;exitY=0.5;exitDx=0;exitDy=0;fontSize=25;" edge="1" parent="1" source="8LVjwsLibscviExB6FwT-3" target="8LVjwsLibscviExB6FwT-4">
          <mxGeometry relative="1" as="geometry">
            <Array as="points">
              <mxPoint x="610" y="190" />
              <mxPoint x="610" y="190" />
            </Array>
          </mxGeometry>
        </mxCell>
        <mxCell id="8LVjwsLibscviExB6FwT-3" value="Н" style="rounded=0;html=1;fontSize=25;" vertex="1" parent="1">
          <mxGeometry x="460" y="160" width="120" height="60" as="geometry" />
        </mxCell>
        <mxCell id="8LVjwsLibscviExB6FwT-23" style="edgeStyle=orthogonalEdgeStyle;rounded=0;orthogonalLoop=1;jettySize=auto;html=1;exitX=1;exitY=0.5;exitDx=0;exitDy=0;fontSize=25;" edge="1" parent="1" source="8LVjwsLibscviExB6FwT-4">
          <mxGeometry relative="1" as="geometry">
            <mxPoint x="840" y="190" as="targetPoint" />
          </mxGeometry>
        </mxCell>
        <mxCell id="8LVjwsLibscviExB6FwT-4" value="ПУ" style="rounded=0;html=1;fontSize=25;" vertex="1" parent="1">
          <mxGeometry x="630" y="160" width="120" height="60" as="geometry" />
        </mxCell>
        <mxCell id="8LVjwsLibscviExB6FwT-21" style="edgeStyle=orthogonalEdgeStyle;rounded=0;orthogonalLoop=1;jettySize=auto;html=1;exitX=0.5;exitY=0;exitDx=0;exitDy=0;entryX=0.5;entryY=1;entryDx=0;entryDy=0;fontSize=25;" edge="1" parent="1" source="8LVjwsLibscviExB6FwT-5" target="8LVjwsLibscviExB6FwT-4">
          <mxGeometry relative="1" as="geometry" />
        </mxCell>
        <mxCell id="8LVjwsLibscviExB6FwT-5" value="Д" style="rounded=0;html=1;fontSize=25;" vertex="1" parent="1">
          <mxGeometry x="630" y="290" width="120" height="60" as="geometry" />
        </mxCell>
        <mxCell id="8LVjwsLibscviExB6FwT-20" style="edgeStyle=orthogonalEdgeStyle;rounded=0;orthogonalLoop=1;jettySize=auto;html=1;exitX=1;exitY=0.5;exitDx=0;exitDy=0;fontSize=25;" edge="1" parent="1" source="8LVjwsLibscviExB6FwT-6">
          <mxGeometry relative="1" as="geometry">
            <mxPoint x="630" y="290" as="targetPoint" />
            <Array as="points">
              <mxPoint x="580" y="290" />
              <mxPoint x="630" y="290" />
            </Array>
          </mxGeometry>
        </mxCell>
        <mxCell id="8LVjwsLibscviExB6FwT-6" value="БО" style="rounded=0;html=1;fontSize=25;" vertex="1" parent="1">
          <mxGeometry x="460" y="290" width="120" height="60" as="geometry" />
        </mxCell>
        <mxCell id="8LVjwsLibscviExB6FwT-10" value="" style="endArrow=none;html=1;rounded=0;fontSize=25;" edge="1" parent="1">
          <mxGeometry width="50" height="50" relative="1" as="geometry">
            <mxPoint y="189.5" as="sourcePoint" />
            <mxPoint x="80" y="189.5" as="targetPoint" />
          </mxGeometry>
        </mxCell>
        <mxCell id="8LVjwsLibscviExB6FwT-11" value="" style="endArrow=classic;html=1;rounded=0;entryX=0;entryY=0.5;entryDx=0;entryDy=0;fontSize=25;" edge="1" parent="1" source="8LVjwsLibscviExB6FwT-13" target="8LVjwsLibscviExB6FwT-1">
          <mxGeometry width="50" height="50" relative="1" as="geometry">
            <mxPoint x="80" y="190" as="sourcePoint" />
            <mxPoint x="140" y="150" as="targetPoint" />
          </mxGeometry>
        </mxCell>
        <mxCell id="8LVjwsLibscviExB6FwT-14" value="" style="endArrow=classic;html=1;rounded=0;entryX=0;entryY=0.5;entryDx=0;entryDy=0;fontSize=25;" edge="1" parent="1" target="8LVjwsLibscviExB6FwT-13">
          <mxGeometry width="50" height="50" relative="1" as="geometry">
            <mxPoint x="80" y="190" as="sourcePoint" />
            <mxPoint x="130" y="190" as="targetPoint" />
          </mxGeometry>
        </mxCell>
        <mxCell id="8LVjwsLibscviExB6FwT-13" value="" style="ellipse;whiteSpace=wrap;html=1;fontSize=25;fillColor=#000000;" vertex="1" parent="1">
          <mxGeometry x="70" y="185" width="10" height="10" as="geometry" />
        </mxCell>
        <mxCell id="8LVjwsLibscviExB6FwT-15" value="" style="endArrow=classic;html=1;rounded=0;entryX=0.5;entryY=1;entryDx=0;entryDy=0;exitX=0;exitY=0;exitDx=0;exitDy=0;fontSize=25;" edge="1" parent="1" source="8LVjwsLibscviExB6FwT-13" target="8LVjwsLibscviExB6FwT-2">
          <mxGeometry width="50" height="50" relative="1" as="geometry">
            <mxPoint x="71.46446609406735" y="195.00446609406734" as="sourcePoint" />
            <mxPoint x="360" y="228.54" as="targetPoint" />
            <Array as="points">
              <mxPoint x="70" y="288.54" />
              <mxPoint x="360" y="288.54" />
            </Array>
          </mxGeometry>
        </mxCell>
        <mxCell id="8LVjwsLibscviExB6FwT-16" value="" style="endArrow=classic;html=1;rounded=0;entryX=0;entryY=0.5;entryDx=0;entryDy=0;fontSize=25;" edge="1" parent="1" target="8LVjwsLibscviExB6FwT-3">
          <mxGeometry width="50" height="50" relative="1" as="geometry">
            <mxPoint x="420" y="190" as="sourcePoint" />
            <mxPoint x="470" y="140" as="targetPoint" />
          </mxGeometry>
        </mxCell>
        <mxCell id="8LVjwsLibscviExB6FwT-24" value="&lt;font style=&quot;font-size: 25px;&quot;&gt;k&lt;sub style=&quot;font-size: 25px;&quot;&gt;i&lt;/sub&gt;&lt;/font&gt;" style="edgeLabel;html=1;align=center;verticalAlign=middle;resizable=0;points=[];fontSize=25;" vertex="1" connectable="0" parent="8LVjwsLibscviExB6FwT-16">
          <mxGeometry x="0.2" y="-3" relative="1" as="geometry">
            <mxPoint x="-9" y="-33" as="offset" />
          </mxGeometry>
        </mxCell>
        <mxCell id="8LVjwsLibscviExB6FwT-17" value="" style="ellipse;whiteSpace=wrap;html=1;fontSize=25;fillColor=#000000;" vertex="1" parent="1">
          <mxGeometry x="430" y="185" width="10" height="10" as="geometry" />
        </mxCell>
        <mxCell id="8LVjwsLibscviExB6FwT-18" value="" style="endArrow=classic;html=1;rounded=0;entryX=0;entryY=0.5;entryDx=0;entryDy=0;exitX=0;exitY=0;exitDx=0;exitDy=0;fontSize=25;" edge="1" parent="1" source="8LVjwsLibscviExB6FwT-17" target="8LVjwsLibscviExB6FwT-6">
          <mxGeometry width="50" height="50" relative="1" as="geometry">
            <mxPoint x="431.46446609406735" y="195.00446609406734" as="sourcePoint" />
            <mxPoint x="720" y="220" as="targetPoint" />
            <Array as="points">
              <mxPoint x="430" y="320" />
            </Array>
          </mxGeometry>
        </mxCell>
        <mxCell id="8LVjwsLibscviExB6FwT-27" value="" style="shape=image;verticalLabelPosition=bottom;labelBackgroundColor=default;verticalAlign=top;aspect=fixed;imageAspect=0;image=data:image/png,iVBORw0KGgoAAAANSUhEUgAAAGIAAABuCAMAAADruTZHAAAAAXNSR0IArs4c6QAAAARnQU1BAACxjwv8YQUAAABgUExURQAAAAAAAAAAAAAAAAAAAAAAAAAAAAAAAAAAAAAAAAAAAAAAAAAAAAAAAAAAAAAAAAAAAAAAAAAAAAAAAAAAAAAAAAAAAAAAAAAAAAAAAAAAAAAAAAAAAAAAAAAAAAAAAPpP6I0AAAAfdFJOUwAIEBggKDA4QEhQWGBocHiAj5efp6+3v8fP19/n7/f3HOYXAAAACXBIWXMAABcRAAAXEQHKJvM/AAADRElEQVRoQ+2ZbXPiMAyECU0gvLQHpRRaSPL//+Wt4vVc24sj2R5u5mb8fGnMODjRSlqbLgqFQqHwb9hfItjwpjgOQwR73hRH3bm7r3zQaXo3KW2JxdbdfeIwwGZ8ksQlFsdxiWHLYYCNvEjqEtV1XKKrOQ4gT5K6hJfjWnE8TZOzhJfjyGGAS84SXo6Ww2kwKWMJynF/4niSXdYSXo4Lh5Os8pbwchw4nKJq29m3VDHJkQfluC05fgSU48zhQ6AcLxw+BCdHv+bwEVCOz/lGkgflUPp6HpQjq8I0KEfDoU7TxlYS5fiwyfEhc+8cmKEcSl/3SGDjC4lyKDbrwUsn1JGTQ7NZglAldDXKodisY4nUSKkiyjHX1z0tMoOXcVAOQwSwlTQmxk+cHPM2O3Iehh0vI6EcszY7gpBKWiwPwi/3mRHKod2ErdVYePWnzI7oCYKTQ+vre194NSZ3sSbg5LjNZ+SrL7wNMstWSF+gHPP3+cJr7sNbQnk4OWaX8IXXdv2z+ySSZ6wwn1MSHvx5Ge5pXiyRUipjLLztdbh+n9Ybsn1EzoDK6fFdQgm+GzH2pbaKR/dRZ0KtbYusunHsQIBNTvB013stHrdDQLHQip9EgeOK6hgsPPSplN2dCKH2t5Nr+C9fvbVqN4eDxaTWOJ3qmyk0JskHxOuPLTV4fcseaXmzbAlReMO4jcdseW4+O9LM0EoQXUPXRKd0qYSAIfdO/Oaz5IAGgmt5V+j1Nl6gyPvjzd9yM+x6RAh37zyIOjNJOmbHWkD4VGuqoKLpqLRuWz9t97r3lwifmlCIbM4JAz6jJQrqKeucdFF3PQ2EeOd1ClWvdTYRwrC3CYM6VNxJHNtS/kFGtetzOF1k32HZZ4bBNxx390twCbFro2GFEBMYTsGcEivt8n7lQL7MNloRwnhyScRipXlYrDQTdLVeafS71F+0HWKlWgfHZiOjaEQI1UrTzo5kCSFUK63wGAbPDGCyUnnT5LIRK9U7OJxk4GU0YqW64daYZXD+SWRPo1tpg1k/dq92JADn8cwZ5ihbMNQmb4lErNRKWh8WKzVj2fz8hVipnaRfDSXZ7SRZ4or/8rLx0N8lC4VCoVAoFP4LFovfjNRz06NLc1AAAAAASUVORK5CYII=;fontSize=25;" vertex="1" parent="1">
          <mxGeometry x="585.45" y="130" width="44.55" height="50" as="geometry" />
        </mxCell>
        <mxCell id="8LVjwsLibscviExB6FwT-28" value="&lt;font style=&quot;font-size: 25px;&quot;&gt;Решение&lt;/font&gt;" style="text;html=1;align=center;verticalAlign=middle;resizable=0;points=[];autosize=1;strokeColor=none;fillColor=none;fontSize=25;" vertex="1" parent="1">
          <mxGeometry x="740" y="140" width="130" height="40" as="geometry" />
        </mxCell>
        <mxCell id="8LVjwsLibscviExB6FwT-29" value="&lt;span style=&quot;font-size: 25px; font-family: &amp;quot;Cambria Math&amp;quot;; font-weight: normal; font-style: normal;&quot;&gt;P&lt;/span&gt;&lt;span style=&quot;font-family: &amp;quot;Cambria Math&amp;quot;; font-weight: normal; font-style: normal; font-size: 25px;&quot;&gt;&lt;sub style=&quot;font-size: 25px;&quot;&gt;s&lt;/sub&gt;&lt;/span&gt;&lt;span style=&quot;font-size: 25px; font-family: &amp;quot;Cambria Math&amp;quot;; font-weight: normal; font-style: normal;&quot;&gt;&amp;nbsp;&lt;/span&gt;&lt;span style=&quot;font-size: 25px; font-family: &amp;quot;Cambria Math&amp;quot;; font-style: normal;&quot;&gt;(1,1)&lt;/span&gt;" style="text;whiteSpace=wrap;html=1;fontSize=25;" vertex="1" parent="1">
          <mxGeometry x="560" y="240" width="80" height="40" as="geometry" />
        </mxCell>
        <mxCell id="8LVjwsLibscviExB6FwT-31" value="" style="endArrow=none;html=1;rounded=0;fontSize=25;" edge="1" parent="1">
          <mxGeometry width="50" height="50" relative="1" as="geometry">
            <mxPoint x="560" y="250" as="sourcePoint" />
            <mxPoint x="570" y="240" as="targetPoint" />
          </mxGeometry>
        </mxCell>
        <mxCell id="8LVjwsLibscviExB6FwT-32" value="" style="endArrow=none;html=1;rounded=0;fontSize=25;" edge="1" parent="1">
          <mxGeometry width="50" height="50" relative="1" as="geometry">
            <mxPoint x="580" y="250" as="sourcePoint" />
            <mxPoint x="570" y="240" as="targetPoint" />
            <Array as="points">
              <mxPoint x="580" y="250" />
            </Array>
          </mxGeometry>
        </mxCell>
        <mxCell id="8LVjwsLibscviExB6FwT-33" value="&lt;font style=&quot;font-size: 25px;&quot;&gt;C&lt;/font&gt;" style="text;html=1;align=center;verticalAlign=middle;resizable=0;points=[];autosize=1;strokeColor=none;fillColor=none;fontSize=25;" vertex="1" parent="1">
          <mxGeometry x="720" y="233" width="40" height="40" as="geometry" />
        </mxCell>
        <mxCell id="8LVjwsLibscviExB6FwT-41" style="edgeStyle=orthogonalEdgeStyle;rounded=0;orthogonalLoop=1;jettySize=auto;html=1;exitX=1;exitY=0.5;exitDx=0;exitDy=0;entryX=0;entryY=0.5;entryDx=0;entryDy=0;fontSize=25;" edge="1" parent="1" source="8LVjwsLibscviExB6FwT-42" target="8LVjwsLibscviExB6FwT-43">
          <mxGeometry relative="1" as="geometry" />
        </mxCell>
        <mxCell id="8LVjwsLibscviExB6FwT-42" value="ВР" style="rounded=0;whiteSpace=wrap;html=1;fontSize=25;" vertex="1" parent="1">
          <mxGeometry x="90" y="500" width="120" height="60" as="geometry" />
        </mxCell>
        <mxCell id="8LVjwsLibscviExB6FwT-43" value="&lt;font style=&quot;font-size: 25px;&quot;&gt;КВ&lt;/font&gt;" style="rounded=0;whiteSpace=wrap;html=1;fontSize=25;" vertex="1" parent="1">
          <mxGeometry x="260" y="500" width="120" height="60" as="geometry" />
        </mxCell>
        <mxCell id="8LVjwsLibscviExB6FwT-44" style="edgeStyle=orthogonalEdgeStyle;rounded=0;orthogonalLoop=1;jettySize=auto;html=1;exitX=1;exitY=0.5;exitDx=0;exitDy=0;fontSize=25;" edge="1" parent="1" source="8LVjwsLibscviExB6FwT-45" target="8LVjwsLibscviExB6FwT-47">
          <mxGeometry relative="1" as="geometry">
            <Array as="points">
              <mxPoint x="570" y="530" />
              <mxPoint x="570" y="530" />
            </Array>
          </mxGeometry>
        </mxCell>
        <mxCell id="8LVjwsLibscviExB6FwT-45" value="Н" style="rounded=0;html=1;fontSize=25;" vertex="1" parent="1">
          <mxGeometry x="420" y="500" width="120" height="60" as="geometry" />
        </mxCell>
        <mxCell id="8LVjwsLibscviExB6FwT-46" style="edgeStyle=orthogonalEdgeStyle;rounded=0;orthogonalLoop=1;jettySize=auto;html=1;exitX=1;exitY=0.5;exitDx=0;exitDy=0;fontSize=25;" edge="1" parent="1" source="8LVjwsLibscviExB6FwT-47">
          <mxGeometry relative="1" as="geometry">
            <mxPoint x="800" y="530" as="targetPoint" />
          </mxGeometry>
        </mxCell>
        <mxCell id="8LVjwsLibscviExB6FwT-47" value="ПУ" style="rounded=0;html=1;fontSize=25;" vertex="1" parent="1">
          <mxGeometry x="590" y="500" width="120" height="60" as="geometry" />
        </mxCell>
        <mxCell id="8LVjwsLibscviExB6FwT-48" style="edgeStyle=orthogonalEdgeStyle;rounded=0;orthogonalLoop=1;jettySize=auto;html=1;exitX=0.5;exitY=0;exitDx=0;exitDy=0;entryX=0.5;entryY=1;entryDx=0;entryDy=0;fontSize=25;" edge="1" parent="1" source="8LVjwsLibscviExB6FwT-49" target="8LVjwsLibscviExB6FwT-47">
          <mxGeometry relative="1" as="geometry" />
        </mxCell>
        <mxCell id="8LVjwsLibscviExB6FwT-49" value="Д" style="rounded=0;html=1;fontSize=25;" vertex="1" parent="1">
          <mxGeometry x="590" y="630" width="120" height="60" as="geometry" />
        </mxCell>
        <mxCell id="8LVjwsLibscviExB6FwT-50" style="edgeStyle=orthogonalEdgeStyle;rounded=0;orthogonalLoop=1;jettySize=auto;html=1;exitX=1;exitY=0.5;exitDx=0;exitDy=0;fontSize=25;" edge="1" parent="1" source="8LVjwsLibscviExB6FwT-51">
          <mxGeometry relative="1" as="geometry">
            <mxPoint x="590" y="630" as="targetPoint" />
            <Array as="points">
              <mxPoint x="540" y="630" />
              <mxPoint x="590" y="630" />
            </Array>
          </mxGeometry>
        </mxCell>
        <mxCell id="8LVjwsLibscviExB6FwT-51" value="БО" style="rounded=0;html=1;fontSize=25;" vertex="1" parent="1">
          <mxGeometry x="420" y="630" width="120" height="60" as="geometry" />
        </mxCell>
        <mxCell id="8LVjwsLibscviExB6FwT-53" value="" style="endArrow=classic;html=1;rounded=0;entryX=0;entryY=0.5;entryDx=0;entryDy=0;fontSize=25;" edge="1" parent="1" target="8LVjwsLibscviExB6FwT-42">
          <mxGeometry width="50" height="50" relative="1" as="geometry">
            <mxPoint x="40" y="530" as="sourcePoint" />
            <mxPoint x="100" y="490" as="targetPoint" />
          </mxGeometry>
        </mxCell>
        <mxCell id="8LVjwsLibscviExB6FwT-57" value="" style="endArrow=classic;html=1;rounded=0;entryX=0;entryY=0.5;entryDx=0;entryDy=0;fontSize=25;" edge="1" parent="1" target="8LVjwsLibscviExB6FwT-45">
          <mxGeometry width="50" height="50" relative="1" as="geometry">
            <mxPoint x="380" y="530" as="sourcePoint" />
            <mxPoint x="430" y="480" as="targetPoint" />
          </mxGeometry>
        </mxCell>
        <mxCell id="8LVjwsLibscviExB6FwT-58" value="&lt;font style=&quot;font-size: 25px;&quot;&gt;k&lt;sub style=&quot;font-size: 25px;&quot;&gt;i&lt;/sub&gt;&lt;/font&gt;" style="edgeLabel;html=1;align=center;verticalAlign=middle;resizable=0;points=[];fontSize=25;" vertex="1" connectable="0" parent="8LVjwsLibscviExB6FwT-57">
          <mxGeometry x="0.2" y="-3" relative="1" as="geometry">
            <mxPoint x="-9" y="-33" as="offset" />
          </mxGeometry>
        </mxCell>
        <mxCell id="8LVjwsLibscviExB6FwT-59" value="" style="ellipse;whiteSpace=wrap;html=1;fontSize=25;fillColor=#000000;" vertex="1" parent="1">
          <mxGeometry x="390" y="525" width="10" height="10" as="geometry" />
        </mxCell>
        <mxCell id="8LVjwsLibscviExB6FwT-60" value="" style="endArrow=classic;html=1;rounded=0;entryX=0;entryY=0.5;entryDx=0;entryDy=0;exitX=0;exitY=0;exitDx=0;exitDy=0;fontSize=25;" edge="1" parent="1" source="8LVjwsLibscviExB6FwT-59" target="8LVjwsLibscviExB6FwT-51">
          <mxGeometry width="50" height="50" relative="1" as="geometry">
            <mxPoint x="391.46446609406735" y="535.0044660940673" as="sourcePoint" />
            <mxPoint x="680" y="560" as="targetPoint" />
            <Array as="points">
              <mxPoint x="390" y="660" />
            </Array>
          </mxGeometry>
        </mxCell>
        <mxCell id="8LVjwsLibscviExB6FwT-61" value="" style="shape=image;verticalLabelPosition=bottom;labelBackgroundColor=default;verticalAlign=top;aspect=fixed;imageAspect=0;image=data:image/png,iVBORw0KGgoAAAANSUhEUgAAAGIAAABuCAMAAADruTZHAAAAAXNSR0IArs4c6QAAAARnQU1BAACxjwv8YQUAAABgUExURQAAAAAAAAAAAAAAAAAAAAAAAAAAAAAAAAAAAAAAAAAAAAAAAAAAAAAAAAAAAAAAAAAAAAAAAAAAAAAAAAAAAAAAAAAAAAAAAAAAAAAAAAAAAAAAAAAAAAAAAAAAAAAAAPpP6I0AAAAfdFJOUwAIEBggKDA4QEhQWGBocHiAj5efp6+3v8fP19/n7/f3HOYXAAAACXBIWXMAABcRAAAXEQHKJvM/AAADRElEQVRoQ+2ZbXPiMAyECU0gvLQHpRRaSPL//+Wt4vVc24sj2R5u5mb8fGnMODjRSlqbLgqFQqHwb9hfItjwpjgOQwR73hRH3bm7r3zQaXo3KW2JxdbdfeIwwGZ8ksQlFsdxiWHLYYCNvEjqEtV1XKKrOQ4gT5K6hJfjWnE8TZOzhJfjyGGAS84SXo6Ww2kwKWMJynF/4niSXdYSXo4Lh5Os8pbwchw4nKJq29m3VDHJkQfluC05fgSU48zhQ6AcLxw+BCdHv+bwEVCOz/lGkgflUPp6HpQjq8I0KEfDoU7TxlYS5fiwyfEhc+8cmKEcSl/3SGDjC4lyKDbrwUsn1JGTQ7NZglAldDXKodisY4nUSKkiyjHX1z0tMoOXcVAOQwSwlTQmxk+cHPM2O3Iehh0vI6EcszY7gpBKWiwPwi/3mRHKod2ErdVYePWnzI7oCYKTQ+vre194NSZ3sSbg5LjNZ+SrL7wNMstWSF+gHPP3+cJr7sNbQnk4OWaX8IXXdv2z+ySSZ6wwn1MSHvx5Ge5pXiyRUipjLLztdbh+n9Ybsn1EzoDK6fFdQgm+GzH2pbaKR/dRZ0KtbYusunHsQIBNTvB013stHrdDQLHQip9EgeOK6hgsPPSplN2dCKH2t5Nr+C9fvbVqN4eDxaTWOJ3qmyk0JskHxOuPLTV4fcseaXmzbAlReMO4jcdseW4+O9LM0EoQXUPXRKd0qYSAIfdO/Oaz5IAGgmt5V+j1Nl6gyPvjzd9yM+x6RAh37zyIOjNJOmbHWkD4VGuqoKLpqLRuWz9t97r3lwifmlCIbM4JAz6jJQrqKeucdFF3PQ2EeOd1ClWvdTYRwrC3CYM6VNxJHNtS/kFGtetzOF1k32HZZ4bBNxx390twCbFro2GFEBMYTsGcEivt8n7lQL7MNloRwnhyScRipXlYrDQTdLVeafS71F+0HWKlWgfHZiOjaEQI1UrTzo5kCSFUK63wGAbPDGCyUnnT5LIRK9U7OJxk4GU0YqW64daYZXD+SWRPo1tpg1k/dq92JADn8cwZ5ihbMNQmb4lErNRKWh8WKzVj2fz8hVipnaRfDSXZ7SRZ4or/8rLx0N8lC4VCoVAoFP4LFovfjNRz06NLc1AAAAAASUVORK5CYII=;fontSize=25;" vertex="1" parent="1">
          <mxGeometry x="545.45" y="470" width="44.55" height="50" as="geometry" />
        </mxCell>
        <mxCell id="8LVjwsLibscviExB6FwT-62" value="&lt;font style=&quot;font-size: 25px;&quot;&gt;Решение&lt;/font&gt;" style="text;html=1;align=center;verticalAlign=middle;resizable=0;points=[];autosize=1;strokeColor=none;fillColor=none;fontSize=25;" vertex="1" parent="1">
          <mxGeometry x="700" y="480" width="130" height="40" as="geometry" />
        </mxCell>
        <mxCell id="8LVjwsLibscviExB6FwT-63" value="&lt;span style=&quot;font-size: 25px; font-family: &amp;quot;Cambria Math&amp;quot;; font-weight: normal; font-style: normal;&quot;&gt;P&lt;/span&gt;&lt;span style=&quot;font-family: &amp;quot;Cambria Math&amp;quot;; font-weight: normal; font-style: normal; font-size: 25px;&quot;&gt;&lt;sub style=&quot;font-size: 25px;&quot;&gt;s&lt;/sub&gt;&lt;/span&gt;&lt;span style=&quot;font-size: 25px; font-family: &amp;quot;Cambria Math&amp;quot;; font-weight: normal; font-style: normal;&quot;&gt;&amp;nbsp;&lt;/span&gt;&lt;span style=&quot;font-size: 25px; font-family: &amp;quot;Cambria Math&amp;quot;; font-style: normal;&quot;&gt;(1,1)&lt;/span&gt;" style="text;whiteSpace=wrap;html=1;fontSize=25;" vertex="1" parent="1">
          <mxGeometry x="520" y="580" width="80" height="40" as="geometry" />
        </mxCell>
        <mxCell id="8LVjwsLibscviExB6FwT-64" value="" style="endArrow=none;html=1;rounded=0;fontSize=25;" edge="1" parent="1">
          <mxGeometry width="50" height="50" relative="1" as="geometry">
            <mxPoint x="520" y="590" as="sourcePoint" />
            <mxPoint x="530" y="580" as="targetPoint" />
          </mxGeometry>
        </mxCell>
        <mxCell id="8LVjwsLibscviExB6FwT-65" value="" style="endArrow=none;html=1;rounded=0;fontSize=25;" edge="1" parent="1">
          <mxGeometry width="50" height="50" relative="1" as="geometry">
            <mxPoint x="540" y="590" as="sourcePoint" />
            <mxPoint x="530" y="580" as="targetPoint" />
            <Array as="points">
              <mxPoint x="540" y="590" />
            </Array>
          </mxGeometry>
        </mxCell>
        <mxCell id="8LVjwsLibscviExB6FwT-66" value="&lt;font style=&quot;font-size: 25px;&quot;&gt;C&lt;sub style=&quot;font-size: 25px;&quot;&gt;2&lt;/sub&gt;&lt;/font&gt;" style="text;html=1;align=center;verticalAlign=middle;resizable=0;points=[];autosize=1;strokeColor=none;fillColor=none;fontSize=25;" vertex="1" parent="1">
          <mxGeometry x="671" y="568" width="60" height="50" as="geometry" />
        </mxCell>
        <mxCell id="8LVjwsLibscviExB6FwT-67" value="" style="endArrow=classic;html=1;rounded=0;entryX=0.5;entryY=0;entryDx=0;entryDy=0;fontSize=25;" edge="1" parent="1" target="8LVjwsLibscviExB6FwT-43">
          <mxGeometry width="50" height="50" relative="1" as="geometry">
            <mxPoint x="320" y="440" as="sourcePoint" />
            <mxPoint x="360" y="560" as="targetPoint" />
          </mxGeometry>
        </mxCell>
        <mxCell id="8LVjwsLibscviExB6FwT-68" value="С&lt;span style=&quot;font-size: 25px;&quot;&gt;&lt;sub style=&quot;font-size: 25px;&quot;&gt;1&lt;/sub&gt;&lt;/span&gt;" style="text;html=1;align=center;verticalAlign=middle;resizable=0;points=[];autosize=1;strokeColor=none;fillColor=none;fontSize=25;" vertex="1" parent="1">
          <mxGeometry x="310" y="438" width="60" height="50" as="geometry" />
        </mxCell>
        <mxCell id="8LVjwsLibscviExB6FwT-69" value="" style="shape=image;verticalLabelPosition=bottom;labelBackgroundColor=default;verticalAlign=top;aspect=fixed;imageAspect=0;image=data:image/png,iVBORw0KGgoAAAANSUhEUgAAAdAAAALNCAYAAACf/TDYAAAAAXNSR0IArs4c6QAAAARnQU1BAACxjwv8YQUAAAAJcEhZcwAAFxEAABcRAcom8z8AAP+lSURBVHhe7J0FWBXdFoa9drciIAgGAnag2N3d3d3d+dvd3d3d3Q0YKKACSkgoCNIh8N1Zwxw8HIYUpNb7PN9/vYc5cyb2Xt/sPXuvnQEMwzAMw8QbNlCGYRiGSQBsoAzDMAyTANhAGYZhGCYBsIEyDMMwTAJgA2UYhmGYBMAGyjAMwzAJgA2UYRiGYRIAGyjDMAzDJAA2UIZhGIZJAGygDMMwDJMA2EAZhmEYJgGwgTIMwzBMAmADZRiGYZgEwAbKMAzDMAmADZRhGIZhEgAbKMMwDMMkADZQhmEYhkkAbKAMo0JYWFiqFMMw/xY2UIZRwsTEBM2bN0f9+vVTlRo0aIBHjx5JZ8EwzL+ADZRJ1djb22PYsGHo1atXosjY2BgZMmRIlapWrZrsOSVEAwYMgJWVlXSVGYaRgw2USTE8f/4c06ZNi5c6duwoayasv1erVq1kr3lMevDggXQ3GSbtwwbK/BNu3ryJTZs2xajGjRvLBnJW6lGdOnVk762yLl++LJUKhkndsIEyf0VoaChu3bqF8+fPR6vjx4/DwMBANuCy0p90dHRw8OBB2bKi0LVr1xAYGCiVMoZJmbCBMnHi69evePHiRRTt27cPefPmlQ2UqU1qamqoWbNmqpampqbsuaU2Zc+eHVu2bJEtc9bW1lKpZJjkhQ2UiYCe+O3s7KKIAla7du2QJUuWKMqUKZNsAPxX+t///gctLS2UKFHir7Vt2zYEBwenah06dEj23BKqPHnyyF73fyEqW3JlrkmTJvjw4YNsWfXz85NKM8MkPWyg6ZSgoCB4e3tH0vbt21G0aNEoKlKkCDJmzCgb5JJCuXPnFgN3XNSiRQvR4L9///7XomuS2vn9+7fsuSVUK1askL3u0Slz5syy9zQxRQ9NhQsXli2rq1evjlKuuSuYSSrYQNMpM2fORLly5SKJjFIuYP1LVa1aFY8fPxZbGHGRg4ODdEZMUkAGJHfdo9P48eNl7+u/UsGCBaOU63HjxqWJhyMm5cEGmoahKQXNmjWLoqZNm/7z95YLFiwQBxvFpjdv3khHz6RGXFxcZO+rsqhV+y97NHLmzCmO8JarC1evXpWOnGHiDxtoGoLMhybAK0QT6+UCSlJo5MiROHDggKyOHj2KX79+SUfJpHf8/f1x8uRJ2bJCmjRpkmwZSwpVqFAhUp15+vSpdJQMEztsoKmU69evY968eZFEKejkgkRiqFOnTli0aJGsli9fLrY8GCYx8PDwEN9lypU1Us+ePWXLaGKI0iKq1iuaVsMwcrCBphJevXqFXbt2Rahy5cqyAeBvpK2tLabFUxW1Lj99+iQdCcMkL/Tem961ypXV0qVLy5btv5Genp44wE5R9+gdPcMQbKAplM+fP4vvZxSiZOFylTuhMjQ0ROvWrSNp9+7d0q8zTOqEXheoluuKFSvK1oGEqnr16rh06VJE3bSwsJB+nUlvsIGmEFxdXcV3mApRl6lc5U2IypYtK7ZYFaKRrjdu3JB+mWHSNtRirFWrVqQ6QA+QcnUlIaLBSGZmZhF118nJSfplJq3DBpqMhISEwNnZWaxwQ4cOFUcLKkRz3eQqa1xE01E0NDRE0TsdS0tLcYK5QjSIg2HSE1TmlevAly9fxDnEinqiUNasWWXrVGzKkSNHRN3t3bs3vn37JtZrSm7BpF3YQJMBmpMWEBCAs2fPitleKP1aQisupTxTFs17o3UhqQKTfvz4If0qwzDKuLm5RdQThYYPHx6pPiXkQZaSSVCdJlHOX6rrPA81bcIG+o9xd3dHnz59xG5USkEnVwHjKnqCNjU1FbuPFOI1HBkm4dCrFOX61KVLF9m6F1dRq5bqeufOnUWDZtIWbKBJDD19Tp48OWJAQ8OGDRPcPUvJwmkpKMXgBeqaZRgm6aA0kYr6RvqbJffq1q0bEQdGjRrFc6PTAGygSQQZ3YgRI8TV/SkBtlyFik36+vpigvMdO3aIevLkibR3hmGSAxMTk4j6SKLWpVzdjYu6du0qxohTp05Je2dSG2ygiQh1/6xcuRJLlixBpUqVZCtNTCpevLiYo3bOnDmiLly4IO2ZYZiUCC0Ur6ivpITMQ6V5phQzli5dCnt7e2nPTGqADTQRoEpEKcioW0augsSmVq1aiWnE9uzZI+2RYZjUyLFjx8S63L59e9m6HpsGDhwoxhLqwWJSPmygfwENjT99+rQ4klauMsQkWpWf1jWkAUU0lYVhmLQDpSOkqWlUx0k1atSQjQPRiaai0dqutBoOk3JhA00A1M1C2Ue2bt2KbNmyyVYAVRUqVEicvK0QPakyDJM+oMW+27ZtK9Z9WrdULkaoigYbrlq1Sow1X79+lfbEpCTYQONBWFiYOPKVkhPQ4sGxmSct2URPklRhNm3aFGmR39DQUGmvDMOkByiBA9X9ffv2RSwAnilTJtnYoRDND6dYQ+kDaVoNx42UBRtoHKBCSyv937lzR3zhL1fQlUWVgiZT03D1jx8/illPOPsPwzAEJVWgmECikbgUK2IzUhK9KqKBhRSLKIsZk/ywgcYCPTXSaiSUSzMuI+xooWpKyv7s2TPY2tpKe2EYhokKde1SrDhy5IjYWyUXU5RFYycoFtFAJXrPyiQvbKAxQCuiUCaSuM7jpPcbtEoDPx0yDBNfbt++Ha9F8Gn0/tu3b6VvM8kBG2g03L17V+yClSu4qho3bhw2bNggTmdJU/h/xbeHe7Bw5kRMmDABC7efwS07ICBM+nts+NnC7t5OzJk2Qfz+ol0Xcc8RCIrr9xkmnXH//n0xlkybNk0cQyEXb5RFI3yvXLkifZv517CBykBTUyhtnlyBVVbhwoWxYMGCtDvU3OMRTFY2Ri7pfPPUGoS5j4FfcR3H4H4Pj5fURSbp+/nrj8aSl4APGyjDxAi9J12xYoWYkF455siJ1juldVCZfw8bqBK+vr7Yv3+/mABarqAqRPlse/TogfXr10vfTKN4PsebTR2hXSB8gEOJluOw7AXgFVcD/fkYL9a2QdFc4detZLtpWGsmXGc2UIaJE5QukGINrTmqHINURdPktmzZAk9PT+mbzL+ADVTCxcVFnHMVU7cJTVuhuVyUYDpdwAbKMCkCWlu0W7duyJUrV6SYpCrqEXN0dJS+xSQ16d5AacAPFbjRo0fLFkiF8uXLJ2YWoVG56QY2UIZJMdD0FRpLULBgwUixSVX9+/cXk73Q9kzSku4N1MfHB+3atYtxpC099S1btkzs4k1XJIeBhgbC75cnPD08xGH6qvrl7YvAaL8fhtDgAPh5St/38oVPYIjwaXSEIiTYX9jeI47bC4QEwFexfxn98vFHvJdODvuNYH8veAvHIbfPSPLygZdwjKFxeggRzi/QR34/Hp7w8A2K4VoyKRGaT05JWXLnzh0pRimL5pU2bdqUF9P/B6R7A6VV6WPKU0nvFo4fPy4abbrjnxuoDT5dnIdBVQ2hV7q0OO82ksqUQfXW/bHw1i84yrqUO+yfbsEC4fvVypZF2VaTMPiYNXyjfRB3w5f76zGnQllUpe3bTMeoU7YIiG4WUsh7mB6ajG4GZVBG9vj0UKv7BKx5+htu8ZjJFPD9GS5ObYoOwnGU1dOT3XcZ4XM9OsYG/dF6synsfsXhB+zP4+ic9vLHWrosyvRYhcW3XaWNmdQC9YJRQoWYBhiVK1dOnGPKJC3p2kBNTU3Fl/PUPStXCGlJMprOkm7TZ/0jAw0N/IKX20ZjQstKqFgiZ6R7EFWZkV+/IapPOY7D71R7BFzx+dpsDFBsq9kedTa8g1ew9OcoOMPy/BT0VmxfoguabrWIYrjBXu9xf1V/DGtSHgbqsc0JzonCldqi5rwruPI5UNpDTATA0+YgllbIj6Ky+1OVPtT6HccD5wDp+6oEw8/5Kvb16oCOVXVQPLfcPhQqiPxljFC/4wCMOfYZH72kXTCpgufPn4tJFeTuLaX/owW8Hz16JG3NJAXp2kCpcMkVPhKNfEv3C1j/KwP1M8HZgZrQpGufux0Gbd2P/ceOiQn3/2g3lg+ph1rZpXuUqwwazjyOe87AH7/7Dptb/2FknszIS9vo90TzbR/gHa2BuuDj5TkYkk0IOLR9uX5ov9sKfioGGvD9Fva1yxW+T82eGHfgMA5FOb4tWNi9MipllI4vf3l0WH4Dz92lnUSLC1yeLsUwnULILnwvd9naaD/nGHYc/rPv/ZtnYlStwtD6n7DfTBWh2/Mgbn6Te53gDcfHe7G6eXmUoWMgqddAu3nHsOuI8rHuweHVfdFKM3P4NoKy6DfDmMNvYZ4OO1pSM69evRKXQFPcR1XxsmhJS7o1UEp60L1792gTwi9fvlzaMh2jYqAl20/Hxk/S3+LEe3za2QnFpFZQdAYa9vs7bO8dxL7lm7D7hCW+SZ+rEmp/DedmNIVx5ozIJuwvl9EgDDjrAu8Iw0saAw3xd4DVtd3YuWIHDl7+gug8MeDjCRwYUReVhH1lFpS30VRMvuWOkBjfMzrA6fYc9NbJL1yjjCjRaia2qy684fcc5/rroAqZc6ZK0O19GLedog5m87XYju19y0CDzkVoXeo1H4KZZx7hney4NxuYnVsutvpLittnQP4GC7Hwjivi0m5mUg7bt28X75+qKL9ux44dxexoTNKQbg10ypQpsoUuR44cYvq+W7duSVumYxQGWjC827KgQQO0m7IJqzZuEgcyxKoVEzGlUznkyRp+beM0iChGQvHTfDf+K5MdanS/SnVFvY3v8Csi4rvA+sYCDMuROdwQE8lA404Qvt1fialq0v7KD0Hn/dYxD/j5bQPHC2PRTCuPcI2KoWq37bj4C5FMzNfhBg720EaFaA1UOGAfK1yfURf1CgvbZMyJDLqDMO/KN8ScLTUQP2+twJxyuZCV9p29FlrOuor3wu7S6UuLVAn1pFGPGXXbKscyhYYMGSJtySQ26dZAly5dKlvYaPkgExMTaat0jmSgJQpnl71W8dXfG6jQGrQ7h12tckGH9qneAfVXvMS3iNyCv2D3YBWmFM+CgvR3gz5ouecj/KM1xMQ2UKGx+HY31tTOgMK0P91+6Lz9PbxiOl8PE5hvboVSRekhpTzq9TmKh8LHyocQq4GGCY5rsQGTGpYSu4Ez5isBjSk3cNMu2ieHP7g9xKOV9VEmN81/zoVSbRdg44dA+LKDpipomcUCBQpEqm8KTZ8+XdqKSWzSnYHS3CgrKyvxqUy1oNFgosaNG+Pdu3fS1ukchYEWyipen6x5i0JTvxoqV6smJr2OVZXLQr94PmSW3gvG2UADnWFj+Vp8v6OqW0cXYpJRjvAWaPb6qDnhMl77/hmR+t10D1bVyxLejVm8I5qsMMNP6W9R8YTdnUUYKRio2OUbVwP1c4SVuZnM8b3A1Z2TMNxQKEu0v7xt0HLhfVjHYEahX2/g6rRS0M5L16ga6g0+iWfC58pjbGM10CBX+F+fhK41aH7g/5BTqyaGHnfAx+jGGUXCHl9vzEaPojnEbueMRn0w9PQPuHM/bqri06dPYpIXuTmiPXv2FBflpvSATOKS7gz058+f4shbufX3mjdvDnd3d3HhbEZA5R2odosxWPwkWAiuwQgOjoNc7+PJqlZxnMbyG0FeP+D0+Sk+7B2Mhvp5I90bWeVpgJoTIxvoz7eHsLllbmjQgJsMpaHfeA0OOQfKzs0M9bHC871j0SNrhvB8vzEaaDD8PVzxzfIOnm/sjkrFc0Q9HlUVaisY6IMYDdT7zSHs7JwBatTNXagbuqx5CdU8MrEaqI8dvu7ritaG/xN+NxMKlu6LBfeEY5X+HDOecDHbhCkaecNb7VV6os/Rb3CLk/kyKQWKWTRPvXPnzlHKIWVXo9G6lM2ISVzSnYGSQdapUydKISPR8kCBgfzoHYGKgeq0nohVryO/n4sR35d4vbEd1GI10BCEuN3EiRkdUaNIQRTK9T/873+CGWTKLE4KjyThwSejaI6CyEAnXcEbpXknoa4meLmqMYw0wrf5X8Fq0J12Efc//RTn8obLW9BzXJrTHc3zZBe7Pf9H+4vWQAMQ4ngWO4c3Q8Ui+VEgh7Dt/zJGc3wZ/xwfGeh/D2ATrYEGw/HeGsypkAH5he1ztFiIRfd9o7x/jN1Av8JmT2e0MqDfzYRCpQdi4QNXxC1c/oLLm82Yrpk3fBpNyTaovfY1nHy4Dzc1Qu9CxbKnIpqSxyn+Ep902QJt1KiRbCFr0aIFvLx4MlwEKgaaNNNYghHi9xCnhjVFbfE9HG2bGVVHbMfOhx/w4UNkPT67DNONc6AYbZeDWqCRDRShQfD/dh17+hugcjbp3uYshuIly8LAwECSviBtqOfKHG6cCskaaAD8flzBvi41UEkxhSZLQdSbehxHnqke3zvcPTADY8qHG2KGfLEZqDPen5yKXkLrM4ewfZkRO3HQRvqTEnFpgX7Z2wWtIlqg/bHgvgvi1gIVDPT1JkwVWqCF6Jgr90Cvww74wS3QVAd10Xbt2vVPeVaSkZERvn2LW4lg4g4bqJLYQFX4Fwbq/QVfzw5Bh5JZxWXPsmnqo8XcC7j6JUC2pRtsewbbW+RGCbpn2WUMVCQY3jYmuLOsC3qUiXyP/ygrynYbiKGzhqBF9kzRvwP1MIf5vq6oV1hoFQvb5CljjC6r7uOBc1ik95QKfMx2YFUtaRBR3lgM1P02Li1sKm77vwyaaDbnPG7JrIwX+ztQF/hdGY8uRjSI5H/IpV0bw0/G9R2oI+xvz0evojmRRTiOgk1HYcGj3/CKQ6IjJmXBBvrvYQNVEhuoCv/AQIMdn+LWZE2Uo+kXGdShU2sGdjtE303sYXkiDgYq4WWJT3f24dD+fdi3T1n7BV3EY5t3eHl7FUbnyIgCtD8ZAw38dAmnh+aBljiXVRvl267CKU9Emy/X9fm2OBuo16P5WNqK3vVmRYaCPTDu4BsIvhyFWA00TDgg8/WY0KikaIIZi+qh8cb3MIvLyla/nuPl+qbQz0P3OBsMOv6HXV8Af+nPTOqBDfTfky7fgVapUkW2kFFSeUaJf2Cgv51e4t4cPVRVo23UUabeapx2D40mIbs7vl2ZiY56WcJbjLmivgONHx74cmV2jNNYgmyu48I4NZTOR8eni2qdduOmcHDyDTRHfDg8Eo01wrtkMxSIyUA9YLaqC9oXEgwvSz7oDDyDEx/l0wDFaqBCixte93FwUHUYZhK2yV4ARerMxobHnoh5qXd3OF2cjzFVcyML7btIY7RZfA+fhJYrN0BTJ3369BHrmqoo/7GDg/BkyiQq6c5AaaTamjVrZE2UEjDv2rVLXBuUEfgnXbgfYb+nI2ro0G9kRD7ttuix/T0sVTwxzP42Hu8bjXEttCPuV4a8f2ugcZgH6v4K5usaoXRhej+bBUUN+mDosa9RRsoGfb6E21sHYUA9tT/HVzg6A/WG69NFmFWrtNBSzYmsZdpj9m0XOEdzGrEbKPELX06MxIhyisxaRVC+wwQsuWGKT3LNeW9zPDo7E0OblA4/9wya0Bt+AAcsVffLpAZoUYxDhw6J08ciyp+k8uXLi/PeebHtxCfdGaiCJUuWRCloJMpEREnmGYF/YaC/fyDw5VaMb6EW3qrMkAsZyvTHmPXHcP369XBdPIWtA0ugfGb6e2bkK5wX2bILx5SrftIbaJAjft5Zhr7GucJblRkKIkflEZi163TE8V07vQ9ruuaDtvj3bChQJA+yZBUMt0Ab0UBtpfMNdPkAq2dCi/bIEkw0zokitL3Qiq634CHMPKIf2xw3AxVwe4Rbm/qgVqk/S11lKd0EPVdfx6mr0rUkXT6CS/+1RSWx25ykAZ1aq7HHxDmWFiuTUvn48SMKFy4ccd+VNW3aNGkrJrFJtwY6c+ZM2cKWN29e8T2Zqysv8wSPJzBb2wKFsoRfm8INhmPhU6GtE1cDdX+Ap8sbI6d0bdWajsdyE8BH9T1faADszo7FrHa60C0UbtZRlQ/5dJqhVYvemNC/IjQK0meVUWHUBZj5JNRAaTWWqegj7F8cjavTDc22WUQ2UIEwf3dYHeyLcU21UVzsypVRpkIoXKoNOrfvhTG99JCHprpkqI8Gc+7CVtqP47F+GCFONSFlQU616mgzYR+uCEUtpvE+PvZXsKdDIZQSv1cGRTvvw41v0bQU/a3w9cxUtG1SA2XVs0qmH43yaKC4QU006fwf9r73jiXtH5NSodYnLRJQtGhR2fs8atQoaUsmsUm3Brpq1SpxrU+aZKxc2Gj+ISWYX79+vbRlOsbLTExqYGRQHBoaGqjRey42vQa842qgni/xemc/VCytIX7feMBi7DQH/FQNlAgNQrDzXTxY1x3lhO3VihZBkSKS1LRQtOMKrHjkg4CfQituT3e0qibsU7M9Ws+/gw+qjhdnvsPm9gpM0dFAGeH4NBqOw8Cj1vKp/0IDEWx3CecXtkWJ4mooqjg2koYeivbdjl2mAQj88QIv1rVEbUNhfzq90HvdMyjePLlcnoJ5Leg76ihabBAm73sF6+BYFvAW8HO6j1MjjdC4uLDP4k1Rc8wZPHKNYZhPWDACAnxgdWQYJjYuFvlaKqSuJVy7s7j4xR8Bgb85920qZu/evciePXv43GmVWEbp/ebPny9tySQ26dZAf/36hSNHjohdtsqFTiEqdJT2L11DpubjBudvjuIABGc3T3gFCR9Lf44VwXSCvN3g9M1B+v4veAvfj94whL/4/xS2D/+9CDl+g4O7/5+RoX4/8N2J/vYdrp4BCI7NgaIlBL/9f8HD0QHf6HdcfsLN93cMxxeCEF83OArbRz4+Jzh4KLIdhSLE2xUudM6OP+DmFRiR1zbE3wOe3+k7dH6e4rWIC2EhAfB1d4YL/a6jK5x/+iEg5iVewgkW7tcP6RhV5egonKtwPtKmTOokJCREHNMhF8OocbBjxw5+95mEpFsDJWgVg1y5cskWPmoxjRs3TkxJxzAMkxKhV1FaWlqyMYwM9MqVK9KWTFKQrg30x48fOHXqlDj6Vq4AUuuUEjHTEzvDMExKgWLX4MGDxTEbcrGLpq0cPHiQZxQkMenaQAnqAqlevbpsIVSoTZs2ePz4sfQNhmGY5INmCdBC2XKxSiF9fX1OCvMPSPcG6ufnh927d6Ny5cqyBVGhevXq4dy5c9K3GIZh/j3Xrl0TV5OSi1EKkXlu27ZNHOfBJC3p3kAV0LuC+vXryxZIhUqWLImjR4/yunoMw/xTaLkyeoCP7nWTQsbGxuJrKebfwAaqBK2o0bJlS3FZKrnCSVJMcblz5464SC3DMExSQQtlU6zZuXNntO87FaIGwMuXL6VvMv8CNlAVqNujb9++sRZWEhVYc3Nz6ZsMwzCJx+fPn8U1iuVij7JoJgElkecBQ/8eNlAZ/P39MW/ePOTJk0e2wCqLRrvdvn1bzAZCizUzDMMkFMrVTbHk6dOnYnetanIEVZF5Tpo0SRzLwfx72ECjwdvbWxwGni9fPtmCq6xixYpBV1cXQ4YM4YLMMEyCoMQtEyZMEGMJzUOXizXKouxDPFgoeWEDjQEaLHTjxg3o6enJFmBVUYFu27YtbG0V2U8ZhmFix9nZGd27d482sYuqtLW1cf78ebG3jEk+2EDjAM0BPX36tLiqgVxhVhW9G6V3Ehs2bJD2wDAMExVKtUexokmTJrKxRE40pe7evXvSHpjkhA00Hnh4eGD58uXInz+/bMFWFa2OMGbMGLFbhpdIYxiGoNH7FBNImpqasrFDVdS7NWfOHPGh/NmzZ9KemOSGDTQBbN++HVOmTEHr1q1lC7ucmjdvLiZ93rNnD88jZZh0CC14TTGgQ4cOsjFCTtQypVjDq0OlTNhA/wKao0XdLzHNG1UVbbt48WKcOHFC1NWrV8VJ0gzDpC1u3rwZUc9Xr14d5/ebClEK0bdv30p7Y1IibKB/CQ07HzlyJOrWrYsyZcrIVoSYRKN8qVVK71ltbGykvTIMkxqxt7cX6zJlLKPR+XJ1PibRCFyKJQMGDBBfGTEpGzbQRIBakKGhobh165Y4d4vmhubMmVO2gsiJ5nrR0kM0gvfjx4+wtrYWRfPBGIZJuZDJKeoriVZvoroc2/xNZdH7TYoZ9ABOI2splnCvVOqADTQRoUJPFernz5+YPHmyuBp8XDIaKUQVr2DBghGip1B3d3dxn6SAgADplxiGSQ4CAwMj6iOJBgkq19lMmTLJ1m05UaIWihHDhw8XYwaJzJNJPbCBJhFUuag1+eDBA5QvX162AsWmrFmzinNQy5YtK2rq1KlcwRgmGVm4cGFEfSTRmsFydTc20cIU169fF2ME9zSlXthA/wE0EOD+/ftiekC5yhRX0RNrgwYN0LBhQ1ErV66UfoFhmKRg69atEfWNRC1GuboZV1HPFMUCntaWNmAD/YdQq5RG5B07dkzUqFGjZCtZXFWkSBH06tUrQvv27ZN+iWGYhED1U7lOxSWlXkzq379/RH0nff/+XfolJi3ABpqMUPouGt6+YsWKBHfzKqtEiRKYMWNGJNHEa+72ZZio0Hxu1fpC3bJydSs+ogFBVKdJX758kX6NSYuwgaYQLly4IA5IUIjMUK5yxle0funcuXOxZcuWCFG3FJk3w6QHaHAOraepXAcWLVoUp4Ui4iKarjJ69OiIukutWCZ9wAaaQtm7dy86duwYIequlau8CRVVdBoyrywrKyvp1xkmdUILOaiW67jmsI6rKJUnZRNS1M3NmzdLv86kN9hAUwnUHWRkZBSh3Llzy1buvxEFhVevXkWRiYkJT6FhUgzBwcEwMzOTLau9e/eWLdt/IxppW7169Yi6R4MBGYZgA00l0HtMChwK0ZQW6uZVVlyT3MekLFmyRBElhaBVI+zs7KLI1dVVOkKGSVx+/PghW+YopyyVdbmyKlem4ytKt0nLhSnqFWUao2XDFHWPxxQwCthAUymUQpDMS1m0uC61TBVKrIBCoik0ampqUdS0aVMxBaGPj0+0omNlGGWoTMiVFYUcHR3Rvn172TIXn+QksYnMUrnOkCi/Nf2+ol7R4voMIwcbaBqCnpLNzc0j9N9//8kGjcQWjVysUKFCtKpRo4aYH5RhCOp+pTUt5cqKQgYGBmJmLrnylpii96PKdYbk5OQkHSnDxAwbaBrG09NTzM+rLBqNmFijD+MjmqbTrFmzGEUJuJnUzblz52TvrbIqV64sW0aSUjQanZYEU60P1E3MMAmFDTQdQiMTKemCqrp16yYbfP6VKJn2oEGD4iwKgEzS8uTJE9lrH50MDQ1l7+2/Ei0BJle2T506Jb6/ZJjEhA2UiYCmsVCuT1XNnz8fxYsXlw1YySkaEblgwYK/1tq1a8X3bmkFMopNmzbJnmt8RV2tctc+OUVTumbNmiVbVt+8eSNdBYZJethAmThBT/HDhg2LIlqCTS7IpTbRqv+7du1KE6LEGfFZFSSlqnnz5rJljgbLMUxKgA2U+StowEW/fv3QsmVLWVErUS44slhVqlSRLTOkHj168ALzTIqHDZRJUiwsLNCkSRNUqlQpVtF6inKBlpV6RPMz5e6tqurUqSMm6GCY1AwbKJPkUBYjPz+/WEWJ9Wn1i7gqoWsxsuIuGr0qd+2jE+WYlbu3qqIpVwyT2mEDZVIMFFQdHBziLJrDRwE+sfS///1P1kRSm+TOLaGiLDxy1z46cdIMJj3BBsqkWtzd3cVuwMRSUuRR/dei7D1y55ZQUSYehmHkYQNlGAlau/Hy5cv/XJTcQktLS9YQKVWi3Hei06dPn6SzYRgmqWEDZZhkxs3NTUxfJ2ego0aNkrZiGCalwQbKMMnM58+fo83gQ9l9GIZJmbCBMkwywwbKMKkTNlCGSWbYQBkmdcIGyjDJDBsow6RO2EAZJplhA2WY1AkbKMMkM2ygDJM6YQNlmGSGDZRhUidsoAyTzLCBMkzqhA2UYZIZNlCGSZ2wgTJMMsMGyjCpEzZQhklm2EAZJnXCBsowyQwbKMOkTthAGSaZYQNlmNQJGyjDJDNsoAyTOmEDZZhkhg2UYVInbKAMk8ywgTJM6oQNlGGSGTZQhkmdsIEyTDLDBsowqRM2UIZJZthAGSZ1wgbKMMkMGyjDpE7YQBkmmWEDZZjUCRsowyQzbKAMkzphA2WYZIYNlGFSJ2ygDJPMsIEyTOqEDZRhkhk2UIZJnbCBMkwywwbKMKkTNlCGSWbYQBkmdcIGyjDJDBsow6RO2EAZJplhA2WY1AkbKMMkM2ygDJM6YQNlmGSGDZRhUidsoAyTzHz58gXlypWTNdAhQ4ZIWzEMk9JgA2WYZObr169soAyTCmEDZZhYCA4OxvTp09G+ffskUZMmTZAnTx5ZA9XW1pb9TnzVqVMnvH79WjojhmESAzZQJk3h5OSEKVOmYNSoUYmmPn36IGvWrLIGl5rUoEED2fNLiCZOnAg7OzvpqjNM+oQNlEmxvHnzBsuWLYuX+vbtK2serMRXz549Ze9BTDI1NZXuLsOkfthAmX8Gves7dOhQnNWqVSvZwM1KvWrevLnsvY5O1tbWUulhmJQHGyiTKFhZWeHevXsxiqZkyAVVFis6Ufe5XFlSyNXVVSqBDPPvYQNl4oyvr69olKp6+/atOBBGLgCmdmXJkgVly5aFvr5+qldaeI+rqkmTJsmWSYV8fHyk0sswiQ8bKBPB79+/4ebmFq3WrFmDvHnzykouuP1rZcuWDYULF05U9e7dGz9+/ICXl1eq1s+fP9G/f3/Zc/wbZc+eXfZe/CvRA45ceVRo+fLlsmVZIRphzTAJhQ00nRIWFoaQkJBIondOJUuWjFb58uWTDWJJqUyZMsVZkydPhq2tbaKKgmxagc5F7hz/RjNmzJC9F9FJ7h4npchE5cqyQnv37o1SD6huMExcYANNpyxZsgS1a9eOpOLFi8sGoeQSjah9+vRpnEUtRebfQqYsdy+i08CBA2XvdXJJU1MzSj2YP3++dHYMEzNsoGmYFy9eoGvXrlHUpUsXFCxYUDagJLU0NDSwa9cunD59OlZRC4dJW9BIbLl7rSpqGVISCbkylNSinhZKPCFXdx49eiSdCcOwgaYZzp8/Lw6oUFb9+vVlA0RSqXr16li3bl2MOnv2rHTEDBMzFy5ckC1DyqpVq5ZsWUwqUQtVtZ6dOnVKOmImvcEGmkqhJ2HlQGJgYCBb4RNTpUuXjhI8lHXz5k3p6Bjm30BTWeTKokI0glquLCemqF6sXbs2oi7ev39fOjomrcMGmgq4ffu2+JSrrJo1a8pW5r/V//73P7Rs2RLdunWLoqNHj0pHxDCpA6orcmW5devWSTaoqVq1ajh58mSk+soPl2kTNtAUiLm5ecSgC6qI6urqshX1b6SjoxNl8ASJBnl4eHhIR8IwaROaHzps2DDZOkCjc+XqzN+oaNGiOHLkSES9prnTTOqHDTQF8O3bNzFlGYm6f2hx5YwZM4qiFqFchYyPtLS0xG4mhcqUKSO+Mw0NDY0iHsLPpBeorMvVgatXr4qvRJTrTGIMaKK6rKjXtM9bt25F1HtHR0fpqJjUBBtoMkAZfX79+iXKwsIC9erVQ6FChUTlz59ftvLFRVQxaQShsmhgDyXwdnd3jyQKFAzDRIXqhmp9oYUNjI2No9QvqnNydTEuou8r6j29kqFWqSIucAal1AEb6D/G2dlZnEaiSK+WmN1FHTt2jJLKjKYNMAzz99Dybar1q3v37rJ1MSHS1dWNiAvt2rXjVmkqgA30H7Fjxw40bNgQNWrUkK088RWNMKTuXmXxvEmG+bfQA6pqPaTF1+XqbHxlZGQkxoyNGzdKv8akNNhAk4gzZ86IK0koRO8h5SpJXEVZeWgQgkIuLi7SLzEMk5KgjFjKdfVvsy/RIELlWHLs2DHpl5jkhg00EXFycsK8efMwa9YscSCQXGWIq2gqifJCxDY2NtKvMAyTmqBWqnJdbtOmjWydj6toECDFmLlz54rdykzywQaaCFDGlC1btvzVepfUtTtmzJgI0aAFhmHSHu/fv49U1/8mmxL1TFHs4QxfyQMbaAKh940XL14Uc3ZSfle5wh2T9PT00L59+wjRuxOGYdIfT548iRQLaBCRXMyISTTPlHJMU0z6/PmztGcmqWEDjQdBQUF4/fo1TExMxHUi5QpyTKK1E6tWrSpOLeEnRoZh5Lh06ZIYIyijUY4cOWRjSUyiUf4Uo8zMzBAQECDtlUkK2EDjAA0KsLe3F9fLpHmacV3Zn1KF0eAhmoRNGj58uDgHlIyYYRgmOihG+Pv7Y/To0RHxg2JJ5syZZWONqihG5c6dG7t37xZj1/fv36U9M4kJG2gsODg4iHkzixUrJk58liusqsqWLRty5colLolEhZdGzJK8vLykvTIMw8SOt7d3RPygeaE075RiC/VmycUeVdGC4hS7mjdvLr52ogd4WjScSRzYQGPg2bNnYjdKfNLpUVYRGmZO+WwpRR/DMExiQSP9KbbQmqlqamqyMSg60co0FSpUEFeOYRIHNlAVKI3XtGnT0KJFC1SsWFG2IMppwIABuHHjhrjMGKfJYxgmqXn8+LEYcygpvlxMik5kvJSIJTAwUNoTk1DYQCWoIA4ZMkQcHBTX7hFKvbV161bs2bOHswAxDJMs0GsiikGU7YxG98vFKlXRO9IePXqIMe/y5cvSnpj4wgYqcPjwYXF0rFxBkxO1NhcuXMgjaRmGSVHQNBaKTYMHD5aNXXKqVKkSDhw4IO2BiQ/p2kBpxYNt27bF+V0CDSIaP3483NzcpD0wDMOkPDw9PTFjxgyxhUkGKRfPlFW4cGEx5y59j4k76dZAaUTb4sWLZQuTqmggEb0TpSc7hmGY1MS1a9fExPRysU1VlIqUuoSZuJEuDZRyUw4dOlS2AClEo2npya1Ro0Zi6i2GYZjUCi291qxZMzGmUWtTLuYpRK+ovnz5In2TiYl0Z6CfPn1CkyZNxCQHcoWHVKBAAaxZs0acM0WTmRmGYVI7FMsoplFXLcU4udhHokXCaZH/Dx8+ICwsTPo2I0e6MVAqCJRvllZJiWleJ70PPXfuHBsnwzBpEkrvR+kCixcvLhsDFaJVX27fvs0mGgPpxkBpmHepUqVkC4pClH/y6dOnPI+TYZg0DZniq1evULt2bdlYqBBN1du+fbv0LUaVdGGg//33n5hLUq6AKNS1a1eYmppK32AYhkn70OIYvXr1ko2JClFLdc6cOdywkCFNGyi97xw3bhzy5MkjWzAUojX5LC0tpW8xaYfvcHp9FVs2PcGb70DIz9u4sWocZs46gSufPOArbRWZUAR4fMGTbWfw6LktfkmfMkxaheLkhAkTZGOjQrQqzIgRIzhOqpCmDfTFixcxvu+kF+m0qruHh4f0DSbu/ITT8xPYOmsKpkyeJKYGmzRjM9ZftRf+AgRbf4C9xRs4Cv/+LW7/j3G4hvNrJ2HwoFkYvvwQ9m5fjqW99KGXUbj3mQZizl07/JA2jUwoAj1t8HLDfPzXvwemrDuKO66C+Up/TQhh/j/x9dYqbP9vEiZPm4VZC9Zjyf4XeOMazao8oYK1217H8a0LMWXGLMyctwCzp0/FtPn7sf/+V8R3pl7gzw94sX8hVkydiulzFuC/ZUuwdMFszJo2Ofy+KWvyNEybtRKLDzyBqZMv+O1X+oAWuqCeuiJFisjGSoUePnwofYMh0qyBUsLl2bNniysXyBUEekFOI22Z+BIqRGQHWFyajQmtjFCqVH00bN4KrVoJ6jgQfaasxLJlGzGz+zAsWHkAj4VvBId/8R8RIDQ8n+HY4n5oVmsAhi69i9d+1nh+eApmNS2PcurayKc2Acse28Nd+kZUBNsINsO1Vf3Qu1499B53CJcsfiW4NRrm6wLLY6Mwq18rNDUqDd0sQhnM1witF93EM7lVpkK9gPeHsW5GXzSsYoByxfKgZLU6qNVjMRafsYzG+KPH3+UFbizui2Fta6Oadk5kojqQqwz0azcLv2/KalEd1Q0NkKPyf1h7y4ENNJ1BI3SjW9CbUpxOnz4db9++lbZm0qyBLlq0SLYQZMmSBVWqVMGJEyekLZn4EBboBNc7U9Cvii5KNZiGVS8ClAzyB348WYEJDQyglrke2oy4gFfCp//yzUmQ0228WtgOldstxdjzdpFbjh93YmvX6lDXHIe5d7/GYKAK/OBwZwEWVSyFRn2PYe8Hn79vTTvfxfUpWjDMJpTHwk1Rc+41vPgW/fqwv56cwaU5fbHTxAE20mcJxw0WO/ujfUFN5O19CKds5OzxBxzv78X4Loux86q52JvApC8oRSmlNo1u3WPqtWPCSXMGSi+6aQ1PWohW7ubTU9SdO3ekrZn4Euz4DJcnqKNM2Tposugxok639kOAxz1sbTIes4fsxxPhE9F0Atzg8tUKr999EN+jWJi/wRtTE5iYmMLU7B3Mrb/DzV8K6GEB8HK0wse3b/D2vaWwvRU+vLOF/XcveAd64rvte3x6/w7v3gr7+fQdnoJLit8M+oLXx0ajv0459F98Hw9Vm4zmW7GxU1UUEwx0nmCgZA5hAV7wdHiPzx/NYf7uDcyEfb5z9IKv4qkg0AoOxyaiYamOaDPnIkz+eoH/b3B9tAh9K5dEwcwZkDV/OaiPOo7btoGyLfXv947j7Mze2PrUBpZ/3RwMwpfTEzCipgYKDdiLw+9VTibQG4H+PnCx/oqnGzbg5uvXommHBHjgh7U5LN9bwPy9Od69NoGpiXDvTIX7Y/4BFpYWwv15g9efnPDtV+Sz+O35DV+F7c1oe+Fem735gI92P+Et/Z1JmdBKL9GNHRk+fDjs7ISHU15XNO0ZKPXld+zYUXZFFWp90lQWejfKJIxgZzPcnqIBw9yZUaDRBCy97wmHX0GRW2YhAXi7cQvOHTyKl8L/FVugNiewa3ITaKsXFt89FypWHFq6pYT7oYuS2looWmEohu8wg3NgCMJ+W+PR8m7obagO9UJ5kCdfIRQu3g+TDrzAK8crODBEH1WLqKGIWgM073sIt31Cxd8Pfb0VG4bXg2azpdj23DVKyzfs7Was7xhuoPPv2oGWNw+xv4fr00uhukYhFCqiCe3qHVBr6UO8cf1jBIHOd3CwTxk07jgC024JJvM3RhbyGY6vd6D/tOUY1bYBBpXIhswFSqDC5LO4aB0S5V2r852jOD2jFzY//oT3f938DYDtyfEYUUsThQbtx1FL5R2G4OelTbh0/CBOfRNavgEBCA75LR6Pl+01HBlaBXU1C0GtqBrUS5RCSaEelSqpheJqhVCwgHB/NEpDu+d6rH6oyBMdjADP57i2eCC6apdCGdpeuNfa6iVQvvYYLH9oD7ugsH/aO8HEHRqdS125FDNV42i2bNnQunVr/PzJ/RNpzkApQXyDBg2i3HRSzZo1xf57TpKQcMICHPHr4mh0qJgfGTJnR66i1VC682YceOUsBNzQiIAY5ketGW96IxlO4E+4vT+C3UMNkCt7ZpTouRZbHrzH+/dP8ebcVPQrXxw5dLuh054PcA8MhI+LLb5cXIoFzbMjS6YMKNlnH45Z+wgtw4/4cnkmujQZhQFTT+PVF3d4CT8aBk983NMPvWqUhtqoM7jxJepah8oGOu+effg7zUBLfD45ER0126PTwC04a2kDK2dv+AX/cclQ7y94uaQCalWribpzH+OTEPgTzG8L2L7Yhj5zz+LoLVPYXZyD0WUzIHeOwqgx+TjO20fed+IaqD9sBAMdXlMdhfpsx95XP8U1IUl+nha4Mqk/FkxchMPO1I/wh5DAX/hhdR47uuugQ/PWGH3sPV68F+6d6TYsbq8L9awaKDf8IA6+coWrN1muJ/wsduG/9hXQuOkIzDv5Hma0/ftnOL+0JzoWyQm1EvrotO4JHvO6DCkSSrZgYWGBunXrRhtLOfF8GjRQCgYtW7aUvekNGzZEcLBcRxkTd4Qo7mOPd/sGo0dFxbUtAnX9qjBuNBz9Vj/B5+gusd9LvFpWH+pFC6DqzJt4qHiOCTPFpRGGKJG3DEqOvATTXwoT8YHDrXkYVzkntEo0xKCdR3H8xT1smX4AJ86+g52Hor0m/K/3fRweVgXGJY3QY99XWPlENbkIAy0+CQseugiffIX59Z2YOmYndh8xg51LNO8i/b/D4XB3tCqtDa1my3Hoa3A0U2DiABnosy3oPeMsjj/xFg7dFdZXpmJggUzIlbs4Kg5ein0Wfwws0Q30/GxMqpAFeQtqo4R+JXE8AKlyJT1o5y+NBn3W49R3cSiWCja4M7U6xg0ajnURMxke48xYIxgWKo+GK97gndQv62NzAcdGVoCO0JrvudkMkcZJ+bzH02290FIoNzmKdMWQHaYyrwGYlALlz1WNoySKpZQWML2TpgyUcjf269dPdnmybt264cGDBwgKin7ABhMPfKxh/fwC9q8bh36llK51gWqo1747ui06j5MWKq3Anw9xf35tFCsiGOisW3gkGoLwH6sNGFs7JzKrN0SbDRaw8/vTsRcW+A0216disGZeFNGogvpD9mL7TVu4+Sq7ifA7H7dhTosiKKjbEOMueMFBxsTD3m7Cui51oK05BmuObMfGk1sxYNZBHLhpje8xFYuQXwh+OB8Dq+ZFDsPumHEvAK6qfa1xJcJAT+HgDVfpQ0fYHJ2A3no5kOF/+VGu0xYctQ0U7E5oy909gjOJaaBnpmJM1XwoYNwXA+ZsFLPMiNq8BXO7tcaEGUtxQni2UA2NIX7vcGV8FYzoOwjLTOjRRiDgJg4Prwr9goaot+gZnonDg11gfXY8emnnQbEOa7D+DX0WmcCvl7C7hdAKzZADut3X4bDdvx6pzcSF379/49GjR7KJFmi6C33+7t07aev0SZoy0Fu3bkU773PVqlXSVkzi8h2213fh0IZ1WDKyMRoXlq55VgNUHLcX5ywDEaTwQ8FAHy9rCrUCOVDAoAEad++Lvr17om/DPug7ZyU23nwDC9nRJe5w3j8E7bSzIYNmP0x75aUypURoL5mtwaTGefG/Ug0w7MxP2EXtwRUMdCe29yuHgrlKoIp+QWRTr4DinffhSWzGFCrYhekqjKybE5n0W2DsZX98S2jEVzLQQzedpA8Je1geHY+elYRzzKAO/TY7cFowURerK7g0qze2PkokAz0xDsOMi6PQ8BM4p7JqlcexuTi2VWgBOwARnQASsRro4hd4RsOag17i2apmKJO/ANR77sBBoTWtStj3N3i2WB+VCmRAvqbTsFLY31+PzWKSDJraohpPFbpy5Yq0VfokTRkoJYunZcjkbjSv5Zk4BHr8gsNTU3z97ioOwomEhwlMDo7EjL51UFkIjhkK1EX9xa/wSdGiVDXQroKB9h2Agd0mYsaSLVi39wTOXrKEfUiI0uASIbQGWeHBtSOY3qEMKhXLCvVWa7H/ra/YQgtH+JdkoJlKN8TI879gL9OiFA20tx7y5TdEpbYd0LJOKVTUa4ruOz/Awi+G95r/xEAFgj7B6vgYtDHMKJTZ4qjUdQfmL12DbQv7YMtLa1gkhoGK70A1UKj/bhwUrmEEIb/hb/EIH968gpnwdBIga6AVMKx3fyx+GY2B0pgSnzu4N9sI2fLnQZY2a7HJROZGeLzH+w2tUK1wbmi2W4LdNjQ+mEmpLFu2LEo8JeXLl09stKRn2ECZeOFlZYYbU3pgx/W7eC19FgW/2zjQsyzy5ywLnaFnYeL5x0AjunBn3sQjRSvR8wZ29NBBvgz/Q66yo7DqnTfcxS7SEPh7Ca2VgxsxZe09HN65FefGGqJaEV3UmnAGl1wVjiKE34/bMLdlUeQqXhf9DjvBRmacmNiF28EImrqzsOqNHb6ar8PsepoopDcQUy98hVt03bJSF+4gsQu3G6YnUhduFAMlfKxhe3IUBtTJjexCSzRr1kpo3rs3lr+0h01CfzOCQNienoiRdTRReNBeHH6nPFQoFgIscW1CPUwYMgbr30tdvJG6cJ+Ht0AD38J0a3uUypwVGbSHYPxpu6jds+6meLm0GvTUKqL6mLN4LhzGnwcmJqXBBho9bKBMvAiwe4ib04uh1+DRmHDiA6zksiD+uIbdgoGWqdISrfZawVVhZqqDiCLitxfer2mCpnmEe6VeB4PO/oSd0AIK+WmG52e2Y9H0S3hkHp72INDuMs4MM4RWycZoNvcGTBS/7/sQx4ZXQ7li5VBr8TOY/JBpUVrvxvauRlDXmoHlr6j97ImvJ8eiv4E6SrWahcV33KK2qolIg4hW4LA9DSL6DV9nocX4/CmevzLFJ7cgpRZxTNjj+7s9GDD/Ck4/jmY2pGDYnncXYVLzXMgjlN0s6j0x/cY3OEh/DqW5sB9NYPb0KV5ZfoWL0EiPof2sRAgcTo/HYEN1FOy+G0c+xvQt4W/+LrC3+Iw3Vi74GfgB54YNxbxhK3BWaKGGe7nyIKK30iAif/ww34k1VYoLx14CFbpvxynHAKXjC4P/20NY10Yd+k3GY+qlrwkfkMX8E9hAoydNGSglSMiZM6fszV66dKm0FfM3BDqa4foEXTQoXRxaLUZizN7neP6GpihIenoJ52e0Rr1yxmg45iCuutEAESF8yk1juUffeQPzV5swp2ZJaGYvAIM2C7D9gw9+/LTG7fkDMapxB0w7+h5vfcLbMb8938BqXXtUonetOWujyvTLeGnrjl+BXvi4fwB61SgFtZFncF1pGktYiD+8nKxhc2YaJtfRRa48XTFk1w28dvaEp91LPJpTASVzZUDuemMx76IlzK2c4eYXLJmE6jSWZ7AVP/0J0w3d0SG7cBzZC8J43n3cdv4dg5EFw8/NHg7vz+Hqwelo2m8lFm27AytbB7gKDvI7yhfD4Hh5PMZWyQNN7Y6YdNk+YrSqn/1V7OlYBDpCuc5RpTfGX/aBSwxTa0KDvOFhb4XPH67g0JTGqJpBaB2WGITx++/g7cevsP7hh+AoTUDhelttwYLWLVGs0iDMPr0SE9rOwbxxF/A2NBBBP+3w5fX2qNNYfH4LX3WCz635GNi0BArlrASDrutx7MU7qYxcxJklY9HdeABmHzDDB+nXmJTL6tWrZWMqZSq6fv26tFX6JE0ZKGXP0NHRQebMmaPc7JkzZ4rDrnlx2L/Dx9Yaj5YuwMk79/HM8jJOz2mGGuVpkrwkXUOU0hmGWSdM8MknSDIh4b/RJlIoiZIlNaFeqAKajtiOc65+8AkOwNdjAzCqVlGoFSqJEhXmY9MzZwQgEM4vtuK/SqVQumBe5MlTAPk1aqHiwMO4ZOuPUJs92Dy8AbSaL8P2F98jugVDvN/h9oJ26G6gAY0ihYTfV4O6tg5azj6Bsy9sYLKpHRob5EaegkVRTNsIlWstxZ43rhFJ24MiJVLwk5JGuMFs+wD018qBHDkLI0+1mVh6zSbS/MnIuOLN3rEYV7MEdLQ1UVQ4/+JaujDuPgnrXobhp1z3bMhPvDuyAit7DsaGe1/wSSq6fo43cahPaVTNlRM58tZGpWEn8FC4btGVbF+HOzg5qjaalS0BbY0iKJxXuG4Fi4nXoGS9QWi/7Q2cfVQdVDigT/uxYUhN5M5XRLgu2qg8bDf2vRXuqd8X2B0bil4NdWUSKUgJEsP84fPtHPaMbYWKhTSEe11SKiP10ajjZpywdoPn38ynZZIcipUUM+fPnx8lnlKMpWXO7t27J22dPklTBurn5wczMzPZRWILFy6MwYMHi4kWmIQTEkgtKU+aOCIQCH9nCzG1m4mYqo3Su73Fa3MX/Iw0KkQIlHKp/MzC07uZUkq499ZwcPOX3peFIfDHZ3z9+A7v3gv7f+sAF68gwRBDEeTtKrTiPsDKwhJWlu/xQdjfm8/f8TNAMIBQu4hUfv0W3cMDhQOG+sLT3gJWb98KvyP8vgWlozODhd0PuAkm7+fuADsbK1i+f4e3Zm/x5p2j0CqUWqDRpvILQYCnC1xsP+Hdy5c4uGo7rjx8JdhqdATD19UWtu/MYPb6Ld6/E875jRneffwCJ2+5Fmg4oQE+8HZ2godvkHTNhavz2w9ezl9g//kj7p48j70b98Hsu3u0I1lDAj3hZvMOH0zN8PqtcM2sLIVrIFxb4RqYmn+GpYsvguQMPOgXPFxsYPEh/LpYOv8KH50bKjzK/LDGx/expfL7jcCfDrAR7vVrU1OpjFjA0tYzjt3dTHJCc+opbZ/cCi3Vq1fHS6Hcp/e5oGnKQAnKhRtdIoU6deqIGTaYtEoYgr7fhcmcVqhSdjR6bTGDs/SXhOEL+zsLxWTyjaNNJi+0OT0f4dotS7yw+vWPR5N+hMOHhzh32wVOwgOGnAcyTEKhWEoJE+RiaaNGjXhOvUCaM1BKL2VsbCx704sVK4ZBgwaJKaqYtIrQTvvxEleXjEbbuh3QYuI+XPseloB5hk4w3TkOU+vVQd9xB3EhynJmHvh87j/M79MS3SauwT7TX3D/Rw/j/q7PcWNpP/Tr1gMjt9zCc3ehffvXU1wY5g+fP38WW58aGhqysbRy5cpwc+M8jGnOQKnb4fjx42jSpInsjadEC5xMPh0QYIb7B+Zj0JCpGDvvNl7YeMi0HuUJ/GWDl3tnY1Gfrpi65Ahuu1JnpCrecHiwF7sWL8Z/B8xg6fnvnsYDf77HiwOL8N/ivdj3iN4NM0ziQhmGKGm8XAyl1ueRI0c4p7hAmjNQBTRtRe7m0wLbEydOFN/DMWmdQPxyNMHZjXfw5qO79H41dgI9PuHJlk04f80En6XPGCa98OnTJ0ydOhV58+aVjaGzZ8+WtmTSrIFSK5QGE0W3KGyXLl3EQQ0MwzBMODQIs0ePHrIxk0be0usxan0y4aRZAyUosUJ03RAkWnX9yZMnvDAswzDpGpqyQq+2ohs/QsqYMSNu3rwpfYMh0rSB0jBrQ0PDaBPMk2jllrNnz3J/PsMw6RKamXDx4kVoamrKxkiFypQpI861Z/6Qpg2UhlnTaLKmTZsiU6ZMsoWCRBP7abUWHpbNMEx6gmLe+vXrxRgoFxtJ1PKsX7++OHuBBmkyf0jTBqrAzs5OHJItVzgUKliwIEaPHs3zRBmGSRfQep80oJKSzMjFRIVo6t+XL7zsuRzpwkCJb9++YcWKFeIoXLlCQsqePTs6derEhYVhmDSNg4ODOFgoutzhJIqHS5YsEbdl5Ek3Bko8e/ZMtqCoqkWLFuIAJIZhmLQGvcds1aqVbOxT1YMHD6RvMXKkKwO1tbXF8uXLsWDBAlSrVk22wChUq1YtcS7p2rVrOX8uwzCpGhokuWHDBjGm1atXTzbmKURZhihG0gpW1tbW0h4YOdKVgSpDw7Gjy1akKppUzAWJYZjUyNevX8XVqORim6oaNGiAq1evSt9kYiPdGihhZWWFtm3bIkuWLLKFSVl9+/bFjRs38PDhQ543yjBMiobmdT569EiMWbQKlVxMUxbNUqBXV+bm5tIemLiQrg2U8Pb2FkeZ0erqcgVLVTTc+9ChQ2JBc3R0lPbCMAyT/Dg5OYmx6dixY7LLkMmJUvb169cPHh4e0l6YuJLuDZSguU2LFi0SV2spWrSobCFTFmU3otG81HqlEbsuLi48P4phmGSB5nJSDLK3txdTlFJsiikDm0JksBTz5s2bx/ErgbCBStDCsFQA3759K+bQjSl7kUI0wZhWZdfW1sa2bdvEghwcHNeU5QzDMAmHYg3FnL1794oxSEtLS8xXKxerVFWjRg0xFzjFPB4kmXDYQGWg1QjonadcwYtOlBLQyMgIbdq04QFHDMMkKZQcpkOHDmLMUVdXl41J0Ynmf378+FHaE/M3sIFGA3XNUn7IAwcOiK1MuYIYnagF2759e6xZs0baG8MwzN9DU1EottStW1c29kQn6qqllirFNBsbG2lvzN/CBhoHqNBt2bIFQ4YMkS2c0YlSZI0YMQJjxozBq1evpL0xDMPEnTdv3ogxZNSoUWJPl1ysiU79+/cXY9f58+elvTGJCRtoPKAX9TTBeNasWShfvrxsgY1ONOd02bJlEaJuYoZhGFWohagcK1q2bCkbU6JT2bJlxRhFg4M4DV/SwgaaQOiJrk+fPujYsWOc5pGqit5D0MK0CtHwc4Zh0h/0YK4cC+I7/oJE8zipa5di0smTJ6U9M0kNG+hfQimyqHulYcOG4pOfXOGOi8aOHSvm31WI52QxTNrk169fker6pEmTZGNCXERrdFLsoVdFNKed+bewgSYi9+7dQ6VKlaCvr4/cuXPLFvi4inJWUqYkhXjBb4ZJndASicp1mXLMytX5uIpWUKEYU6FCBTHTEJN8sIEmMvR0SZo2bRoKFSoUobjOz1KIJkJTdiSFtm7dCnd39whxOkGGSZlQ3VSuq7t27YpUl+OS5EBO+fPnF2PJ+PHjI+IMpexjkg820CSCCjfNB1WI0gVS4gWSXOWITbTgd+nSpSNE7zlCQ0MjiWGYf49qPTx37pzYtaqoq2R6cnU6NlEyF0XMMDAwELt7KZbw652UAxvoP4IW9H769CnOnDmDEiVKyFaY+Igyj9B8U2XRUm0Mw/w71q1bF6Ue6ujoyNbZ+IiSI9BDMsUMEid5T5mwgSYD9K701KlTojZv3iy2LuUqUXxF8067desWSbQUm5+fn/TLDMMkBMoVS0uCqdYvSlAgVxfjqzx58ohmrIgLt2/fln6ZScmwgaYAaOUEylpEokqaI0cO2UqWEFE30IABAzBlypQIkal+/vxZ+nWGYZSh9TOnT58eqc7QK5j4jmOISbQvqoeKen/48GHp15nUBBtoCmT9+vXi0HYSmV9C35vGpK5du4pPvKo6fvy4dBQMk7ahlp5cHejVq5dsnflb0fxORb1etWoVfv/+LR0Jk1phA03h0BB4egImw1NWXNf6i6+oO5m6lU+fPh1FNASfYVITlPFLrizv2LEjTksX/o0o+5iivk6cOJHnaaZB2EBTKStXrkStWrUiRO9Q5CpxYoqyLj179iyKXr58KRo9wyQHtKQX5ZqWK5v0nlKuLCemaP1NY2PjSPWRMo05OztLR8ikVdhAUzE030whmndasmTJSCpQoIBshf8bUcowVdHEbnqit7W1jVFeXl7SkTNM3KBWm1xZUta+ffvEB0i5silXhv9GNBdTtZ7RvExam1O5PvK0svQBG2gagUbaurm5RdL27duRN29eWcVlwfD4iDIv0SjgmDR79mzRRGMTd3Wlfegey917VVFGLrmypKy/zfqlKqobcnWGRMuJqdYzWoyfSZ+wgaZhVFOIKWRhYYG2bdvKBo+kFAU6SkEWm6pXr44nT55IZ8GkNai7lbo85e69qsi05MpSUqp58+bivEu5usNTwhhl2EDTKZTRhOajKouS4ssFlORQuXLl0KhRoziJ3s3yCvvJB3WjdunSRfbeyIlyuMrd8+TQ8OHDo9QDLktMXGEDZSKgbEmHDh2KInrHRKnE5AJQShEF5n79+iWqHjx4IF2ZpIV6CubMmSN7DHT9ExtKMzl58mTZ30uIaLSp3D1JKaK0ert3745Srkn29vbSVWGY+MMGysSJq1evRlrkV1mLFi1C8eLFZYNXahaNpqSFiZNaQ4cOjXaur66urux3/kb9+/eX/a3UKsoGRAvdy5VN0qVLl6RSzDCJCxsokyhQK3XUqFExipZ6kwuALFZ0oq58ubKkLFrthGGSAzZQ5p9BrVgavBSbWrRokajpDFkpS1mzZkWzZs1k772qzp8/L5Uehkl5sIEyKQ6aU0dz62g0bnyU0GWjWAkXzTWWuxcxaeTIkbxAPJMmYANlUiSUJ5RWwIiPVqxYAS0trURT9uzZZU0jNYsWc5Y714Rq8eLFsvciJnEOWCatwAbKpBmoVePk5JRoGjdunJhlKalFRh3dICJatUPuOwkVTduQO9eEiudFMukZNlCGiQbKMvP27dskF40SpZRwcgbaoUMH2e8kVN+/f5fOjmGYv4UNlGGSGVdX12iTC4wYMULaimGYlAYbKMMkM7S4uaGhoayB0kLODMOkTNhAGSaZYQNlmNQJGyjDJDNsoAyTOmEDZZhkhg2UYVInbKAMk8xQEv/y5cvLGihNO2EYJmXCBsowMRAaGipO/aCRskmlZ8+eQU9PT9ZAe/bsKfudvxWdE50bwzAJhw2USfUEBQUlma5cuSIuh6WtrZ1k0tDQQJYsWWQNNFeuXLLf+VuVKlUKFy9elD3nvxVnGmLSC2ygTKrmzZs34nqURkZGSSIdHR1ZY0sLKlGihOw5/62o29nX11e6QwyTdmEDZVIEtG5jx44d460aNWrImgMr+UStaVpRR+5+xaYLFy5IJYJhUj5soEySQOuDjhkzJk6iBaXz5csnG4xZ6Uu0/qdcGYlOjx8/lkocw/x72ECZeEHvuHbu3CmufBKdFi1aBE1NTdkAyWIlpurXry9bBpV1+fJlqfQyTOLCBspEIiwsTExufuTIEVktXLgQmTJlkg1maU0GBgbo06dPmlZ002fSkmgQ2N69e2XLM+n58+dS6WeY+MEGmg4xMTHB/fv3ZbVr165U1Z1K79tq166Nhg0bJrrOnz8vXbG0C40yljv3v1F0ifFTqug9+q1bt2TrA4kSXTCMHGygaZiAgAB8/Pgxkihg0uhLuUCSnFJXV0fZsmXjrYEDB+LXr1/SGTMpAVNTU9SqVUv2fsWmvHnzypaP5FTLli1hYWERpS6RaA1aJv3CBpoGIANxd3ePoh07doitSWXlzp1bNkgkhah1WKhQoVhF8xJpTiKdR3zFCzqnTLy8vGTvV2z677//ZMtIdIpu/mxi6n//+1+UeqTQ5s2bo9Q7LpPpBzbQVAZlj1GWra0tmjdvjtKlS0dRwYIFZQNCYiljxowxikbXWltbx6ovX74gJCREOkMmPePt7S1bRqLTqFGjZMueQnLlNjFVoECBKPVuypQpYnlWrqc0toBJe7CBpiIePHggjjqsW7duhKpUqSJbsZNa1FKgKQQxycnJSTpyhkkanJ2dZcueQp07d5Ytv0mpPHnyRKqjJBqwRekTmbQFG2gK5eDBg+jWrVskVa5cWbbCJoVojt2pU6dkdebMGbG7jWFSOvSeUq4MK2vcuHGydSCx1axZsyh1mt4XM6kXNtAUwtWrV8WuH4VKliwpWwkTS126dMGaNWtktX79eri4uEhHxjBpG0quv2HDBtm6UKlSJdn6k1hq1KhRpHrPI35TF2ygycSLFy/ESqtQUlRULS0tTJgwIYomTpyIT58+SUfCMEx00Kh1uTrUr1+/JHnHSq1SRUzYtGmT2EXNpFzYQP8R1JV0+vTpCNG7TLkKlFDR3LuuXbtG0u7du6VfZxgmMaEpYtOmTYtS54oWLSpbPxOq0aNHR8SMs2fPwsPDQzoCJiXABppE0JMjrfOoUKdOnWQrSEJEZknz7JR18+ZN6ZcZhkkuVq9eHaVu0jQtuXqcEFEmMEVMoV4snoeavLCBJiI0dP3r16/itIxhw4Yhc+bMEZKrDLGJ5rjRclq6uroRokwvVlZW4pqLymIYJvmh6SqqdZMGKinXYRKtAata3+MimpOqiCk5cuTAtm3bxHjDYxaSBzbQRIAmTtPEcepioSTqhQsXTtAEb6oclIlFIRr6TgMc3NzcIsRdOAyTuqAHa+U6TKLWI42qV9R1WjhdLibEJvoexRvFgzXFIVrwgfk3sIH+JVQZevbsCUNDwwQ/VSpEKcPMzc3FtGEkMk+GYdImlARFUddpAYe/7eqlJA4Uh2htXebfwAaaQGi9SxqCTu84Ejoar2bNmmIS63v37onikbEMk355+fJlRCzYs2ePmCpQLm7EJkpxSLGJFjV/9eqVtHcmKWADjQf0xEjvNmkIO72blCu8MYmWxyLjPXTokCheRolhmOig/NCKWEFr7CbktRA94FO8Wrx4sbRXJjFhA40DtJbgnDlz4j2Stnjx4uKouSVLloiiOWUMwzDxhQYjbd++PSKWjBw5UjbmRCcacETZxSiOUUpQJnFgA40BSle3bt06sUtErlBGpw4dOohJrg8cOCDtiWEYJvHw9fXFvHnzxDhTvXp12TgUnahVSq1b5u9hA5WB3kVcvnwZc+fOlS2AcqLUe23btsWgQYM4ewjDMP+Mu3fvirGndevW4oheufikKpotsH//fjHO0TQYJmGwgSoRHBwsdm+UL19ettCpKmvWrGIKvqpVq+LYsWPSXhiGYZKHGTNmiPGoTJkysjFLTjRdjpaGY+IPG6gEzeU8evRonNbQpHlXlGe2f//+8PT0RGBgIK/3xzBMskNzTikemZiYwMjISIxTsS2iT/PPjY2N8ebNG3HtUibusIEK0MRjejGfP39+2QKmLJqrRYOBaK1LMs+/IxQhgf7w9wtE0O9QsAUzDJNY0PqjFKdoXmi2bNlk45myaGYBxTZe3D7upHsDpZfxQ4cOFVeWlytUyqKX7/RklzitzTC4vT6ALd1roUHlkZh13BwO0l8YhmESC8pOdPjw4Tj1rlEDYfPmzdI3mdhI1wb6+vVrtGvXLsb5VZRzctWqVbh+/Trevn0rffNvoC4SCzxcOwH9yhZFAfF3GqHnuifgNAoMwyQF1DVL4zsojtGrJ7lYp5C6ujomT56cCD1saZ90baCPHz+WLUAK0fsDyghC7xQSD2q9OuHTzRPYO6kHulbKjnyZW6HfphewCd+AYRgmyaCEMLQUm1zMU4gGR9KSbUzMpFsDvX//vvgklj17dtkCRC/VT548KW2dRPhcx9neeaCVtSl6b7fED+ljhmGYpIReXa1YsQLFihWTjX/UeKCkCzw6N2bSrYHSJGS5gkOGSvOpKB9lohP8Hc7Pt+HQljVYvfoUdq6ci4WCgWrmq40Gfedg9Z5VWLNuB7acfQcL92iWKPOxwNOjO7F57Sqxa3nV6jVYtX4rzps4RzVgr6/4anoLp+9+xOcAH/g5PcfNNauwnr63diO2nX2El1Hy1f9GmK8NzG+fxqF9e3Hg+EU8swuEt+prXz87fHx+UUxNuG/fZTy0/A53xTZhwfj16SbuHD+MkxfNYeP7W9irMj9hd+c8Thy6issf3OGvGLPw0wpWz2/jzCNbOIZ5Cfu4h4urhWtCx7tuM3ZdNcO7aBej8YTLq0s4skG4trQ9ac0G7Dx1G29UvxMahAD7Z3h6eS92bduAdcJviNuvWoN1m4/h4AN7uMuNo3B5CdPTq7FWsX/hGm45cRuPHMI75hWEBXnj+5vzuHzoJM7fscY34Y9//h6MIC8rvD53AodOPsA9G2/pc+HWfnmIx6cP4vgZU1h4BAhbKuMNpydXcObABZw1c4FnoMoN8bXEk4t7sVEsF6uFY9uMLZffwdRN+ntcCHPG12ensWX9qohruGb/TZy39kPobzvYXjmC/fT56rVYvWEbdu7eh707t2HzOsX2O3D0pjlspZMNtb6C2wfD9yMeE93DK6Z4+zP874Ab7J5ewin6HenvW3fuxb7dO7Ft4xqsFe/LBuw++QymLt74ZnkTt48exZnrVrAPCkXkW+QK62tncOToLdz46Ilg5RtCV9/1BS4f2Yr1Qvmn41m9fhvW37CFbaAfQhwe4+b6tdhAxync043bdmPvnj3YuWW9tP1abNp1BQ+/eOGb/Su8OHcAJ06b4L17ACKve+ILl+fXcO7AeZwxdcZPxT3ydYDDiys4dfQ+Hlj+gE/4p+F4fcC7mxdw7PgLvPsZIJ5TiJslLG4K5eDQHTz57CHsVZkQeNs8w72DJ3BEqNfWHn+3lCFlN4opEQNnLYqZdGegNNfT1NRUnPskV2BotBolUkh0Ap1gfWEZZjYsgHKVKqOG8Qi0bdQa7WvlQMGCeihTtR7adDNG1YolUaBYRwze+BhC3PpDqAfcPp3F0SWdUat0BZSpYCy2ko1rVkXNUrlRrt1YTD5nCXvhOxGh1foMzkyugSIVuqHH0kXYvHQ0+lU2Rj36XgV1aJariepTz+OKlRe8FNE6zAMh79ZhXK3S4dekqCbqbXyLlz8jB+wg02WY31qR7LoSum18AlPFJiHesNhaH81zZUABg0XYay+Yt/QnhHrD6/1izCqfH5ky10bF5SZwUfQUvd2ObUOqIF+V/hi+fjHWzx6C7tWMUdu4JowNC0OtcjM0/u8OHtv5/TFdshkPK5hdmYmRrYygW6IaqteUrk1lHVSoXBlNF1zDFWufP4Eo6Cd+nBqI7tULIEOB0ihnJG1vXAnldA2gVmE8Zp19DzsvKTgF+8Ld8hYub+iDYe2rS9sKqlQCOoaVUXnSMVz56AtfhXF4fsbDObqokCE/dFvswdWgMKUHCG/hOWETZmjnQYaCndFm/58n/C9Hu6CnWgbk1piC1W9/4Jf0uXDACLTbjJX11JErQ3lozbiHDxEOH4BAxwd4vKod6hiVQ/FKdGzCMVZQQ56y7dFi0S1YeYQhVMVvIyPsy9sa5sdGYVALQ+TXM0Z16Rwr1WqNFgvW4qb5LZydMRS96fMalVG9VH5kpXufuQCKGRrDSLzmHTB8+SU8dHOBvfAAcfK/VujRLHw/xsY1YGygBvVqzdFi5UOYu4ciMOwLTPbMwXjh77Xp7+U0UCgrladMyKtbDZVq0Pcao+vYvThh/hV3V9dEgyzZoGG8Eac9hWsiHT1+u+H7s6kYq5MTGXK3QP0tH+CtuODCg5jHh+M4Oa0u9MpXQumq4cdTs0YdlGkzBEtvXMLzGzuxpGFdNKLjrFwSJfKFx4IsxQxgIJQ/Y+O6aNZ5IbY+c8Wz08MwRCsD8hQdj2WvXIXHNgW/EeS4A+saF0eeDAYoNukW3rpJBeLrOZwbWRlFsrRD57VPYRv+qYAXnI8OQQ8dXeSsuBT7PnuLD02+L9ZgZf0Mwr1ugb4738A+fGORMPdbuDihJgwy5EWGttux/10kO04Q9EChiH/KosbE0qVLuRUaA+nOQH/+/IkGDRrIFpg8efKgTp06iTRYSJkA/Lo1D1OMy6Ow4QJsNPtBz5GwvTgTQ/NmRq7/6aOFYAxvhC297I9jW8NSqFp1JMad/S49rYYh6P1ObOhTChm1q6PB4nt47CT+QQwQMNmI8Y0LoGDl1hh93gtOwVK0tLuJa9P0oSkY2f9y66Hh6P24LLRIxNjifBmHx1ZCYXVNlBl3AVdtpYAc4oTfd2ajY9X6yJOrCAzr6SF3j53Y+8pTqRXlhXcbWmCgQSbkyJ0XWTNXQ691D/BCYcIhPrDa2QztiuSAZpXlOOjoJxloEPysLmBrt6zQzixc82LtUWvNa/xQGKjlERwapoFcGTMgU75qaD/3PO4rnNfmGNb21kEBjbKoNu8hXriGH02o93vY7uqKKmWKIn+z2Vj5yEe42hLuT3B3cVOULVEQVSadxQV76QCD3QQDHYQOLdqh8vhreOencBd3fLk8CyO0CyJrzZmYfcsl/Jy9HfF2RydM+2++sH//P62O79dxepIQGPNpwGj2Hdxxla6hlw0eLzSEUTYNGLY/gBuRDNQHHp+2YV5ZNWQt3hOdD/8Jp3YneqG/TmYULTUTG8zdJAMVWu8Oj3BkaFGUyy5cs4INoTf/MT4LpkiEuNzF/QV1oa6lBaMpZ3DrO30qXIFvp7Gxc1no6TZFh3Uf8Mk7JNppUmH+tnA9OgANDAuiaJvZ2G0O+Et/+/FoA04v74QVtxzxQShqIkGO8L40Gk1LZ0Tu+uOwypTaXn8I+PoI91Y1w5jV+3BQ2Fc4whX4vBdL2hVDDrVq6LTLFpaRujWEY367AdOa5ENGnToYeuYnvioNPQjzd8XrtTXRME8BlGq4Fed+CYYl/iUQnmYHsKpVBhQRyk2GEr3RZocV/KTCGvTpMHYNLovculXRaZMpXkvnEPbLXryna7dtwpHP4mNYON/O4/BIPeQqXByNVrzCc5VxNA5nBmBI6UwoUkJ4yDH7LhloCEKdn+H4KA1UyiEcQ/660J11H5bCQ4KI/UVcHG8M7Xxd0XPTc4Tn/RHOPegadrYtB/VcdVBzjQmspc4Ir1cbsbZZFhTJ3h6D9779Y6BBgoGvEeqVuvAbmdSRoecBnHofuX2aECjlaKlSpaJd+J+SMzDypEsDrVevnmxBadq0qbiye+LOgxIqUegLXBxZCwbZDKA9/gZeSt1qAR8OYnu7XNDI2gg91puEV5RQZzjt646mmjVQrvNh3A8RWg+h3/BqcTM0rGAAnclX8NzpTzgO5zds9ndGjxrFoNNtL85/8Re7gshAL0/Ug1a+bNAbsAPHrIPDPxcJw6/Hq7CsQ34UMZ6I2Vfsw41HMNDAG9PRulw9VBVaH2PH9oaG9lCM2WcqTbMRQo3PDWxuUQk9jeujz/jhqK9eAm3HHcXZCFMXDHRXC3RQyw2taitwyDlQDHZhLrdx778W0CqcEzmyZkbWMu1Rd52ygR7Fvv5qKJSvAKoLhnf1m3LQD8X3q5MwuWkBFGm8GJtfuAufhMDt+SYsbVoM+RtPwsRLLirdnsI1tjiFvQMKo3iVXhi45z1E3wn5CffTQ9CxdRcYTXsQafBWiKUQcLvlh1q1IRh13DbcSMJC8TvAC/7BoUoPEYQnvpwaix4FCiF705VY+0JqM/rY4sl/5VEzhxYqdD6G++GfSgTDz24PFhlqIIdWb3Q9omSgJ/tgYMlsKFZmNja+l7rufj7H2/VdUE4rH3Jky4KsJRrCcOFTWIs/FQSb0xMx2lgDan13YP+HyOUi5PFcTKpVGeoVF2G71c/IXYcRhMDz/WFsaqeJwnUGY8AJe6UyQghlJsBbOHehHEqfIMwVAdfGoWXZLMjbaCLWCc+bkboyQ4MR7C9cryjVyAZPF7aEcXZtFB5yCte/KA/OEza22IJZLQogS6n6GHHBW+z6jiBAMNB1tdA4XyGUabwNF4SToT+H2l/A+WkNUChPDqFMZUKW8oKB7voU3joVjtNkbUe0rlgKmmPO4M5XlXoT7IPAAKEFr/w73y/jxBgDoYVZAk2FhzsTFX9yPDsIw/SyQk13Gta8dgu/pp4m+LC5Gyrp5hfvUTatuigz9wEsIgz0Ei5NqA2dAr3Qb/sbuIgfusD/wgS01KsIzRbLcdguLOLB75fJJqxrkR1quTpi6D5zfKMPw5zhd3EKetTWFlqG2ZA9rxay9TuIk4lgoNQrR+kA1dTUZOPi9OnTpS0ZVdKlgdJaeXIFhd59Jv5q7sL+fpzChg6loVWkFlpvs8Jn6UnTz+II9nTPjeLZmqLn+pf4Sh/+doPbqYFoU0ILGg2EiuXoC//vl7CtvQ5KFG+Ajnu+4puieaDE72eLMbexJvKV7IsZN50hZuN1vIQL42pAu2A79NzyKnz/yny9gHNjDKFZuDZaL7uHd/SZnw3s9nZHXa1maDZwMXYfHYOWJXXQfMwRXKB3V4LB/74/B23LdkDT8etw7OFyjCldHDXbrsL6N4pI5BduoEVzCQa6Bkd/+CMszA7PV/RAH70KqDliEcZ2qIyaxo1hvNoMzorzsdyHXb0roZhaH4w98xFRXs9+2IMdvXSFVnMr9N9vIYQgZ3zY2w+t1AqhZO/d2G8lbaeM+yu8WFwbBkUMUW3UcTyg2/vbE7/ODkHnlm1Recx5vHT3FTNR+fkJrZLjEzFCRws1Bu4RDSlKq+13AAL8aVtB/t6wuTwfU2qoIU/bJVjxSHrZKhmocS5NGLbbjUu/fOEt7p/0A07vNmJWWaElVqJPVAPVJQOdh82WnvR4APPdwzC8jB6MBi/AyO510biGkWCgz2D1k671G1ye2QB11Euj7apXePI9AEHisfnDL0B4aPmwFUvaVEHu4r0x7dY3KJ5vIvMVn8+MQafi+aHVdiXWmUU546iILdAxaK4nGGjD8VhNLdDovhZMiUIUx+QEs8290blcCRQaehSXPissg6AW6EZMbyYYaMl6GCbXAiUDzVtQMNDduBwomGGYFe7ObI0uBkaoPWYRxrfSR8W67dFsh61gisLffa9jR099lFI3QvNNVvioaEHHhNACPTJKXzBQbTRZKdMCJQMtQwY6E+ve/RQeXX/C4tBYjNIrDaOB8zCiZwM0rV4VZefcxdvvqgbaFT3WPoO9ny9c3u/AKmN9FDYYhN6HJcOXiDDQnIKBHrASfuE33N5twbJqJVGz3Wj0GNEf/Yy0oDZoNw68+XsDJczMzMTpK3JxcdasWdJWjCpsoEpq2bIlfHz+/p1CZISq4XQMq9vqoLxeS0y45A1HqZnk+/4QdnXJDc1sTdBjnTSNJcwDv+/NRs9KhijWcDH223jD99txrGqmAUP9Dph6PQAuqs0swuYANvWogfzFu2DsRfvw1qzjRcFAawsG2g+DdpmGP8kqY3cJ58dWRvG8ldF43nWYCB+F/XiNR/MMUb5cK3Ta8ACmgmmtblsMJZpPwpTHQkBwf43Xy6tCr/lwDLggtJpfr8QMXXXkqTQJ468rhjH5SwaaFyXrrMNhhw94cnAAOuuVRYVum3D83TNcnVMXxkZ1USOSge4VDNQI6mqjMf3SJ7hLH0dgeUD4ux6KFGyAbtvfCi1ie5ht6YKmRdTQZOoVXBO7L1Xws4T9gYEw0qiE8v334CpFqhBveF8YiYH11JCjsC70yldExYqksiilUQLqhQZjwa0vcIpkCj6wPrcA81tURhVxW1IlGJZSR7FChZG543pseiZFWx87PFtcEY01sogtBd0KFVEh4jvlUa6sJtSElkrGisPQO4qB5kDxcguwxcoKry5MxIAKJVGmmfAgY2qKu6vboXm1ytBf8BSWooE+w6W5LVEhU3YU1jaEvnA84b8Rrkr6wu/kzoU8JXpi5i3naBJ1fILFkUFoXawQ6gw9gJNxyeYRFwMNdYDJlqEYWVf5mCpAX7sgCqqXRYGRZ3DLJiEGWgTl2u3BOde3uLelM5rrlIfR0H24+P4+zk6ogorGrdBkxxfBQIVK4nUWa9rrorxuU4w95xlpf9ESJwPNDo2ys7HhvRVMrk7DsColUbrxAmx/ZYb7GzqhdbUK0Jt1F28iDPQmbs6sBt2CBVBAUw/lhGtRrmol4SFtG7bdEx52lS+DQLiB5oB67i4Yc+YtzIQ6uKJ9GZTQ749pF17h2aW5mFhXE0X77cS+RDJQWps4uhG5bKDRwwaqpDZt2khbJSbhBrqmnS5KlWiEvocdYSsZhqqBiqE0xA2/LoxGp7K6UG+4BAdsww10TXNNlNRphaGnfuCbSoUjQoUn1BVt9QUD7SwYKFmLQISB9sbAnaZwFLdUwu680AKtCa187dBj41OxhRrmaoo707VhUKUZOmz7BCfPN3i1vBEMS7RDqzX38fLjHqxtWBRN+m/AbhehVfF+N9Y0UEeuWqMx7LyijSO0QHc0Q/vq5VC+0yoc2D8ePaoZoVyj/7D74y/4hFri4XQjVKoiZ6DVBQMdiakXPwrtLxWEFurOnlWgVqSfEBCtBUv7Khpoo0JFUX3EcZyO0sQW+PUWHzZ1QOUi+qgwcG+4gf72gtf5YejZxAglmk3Ef9v3SKOJ92PnsikY1agSmrWageXnP4nHEBLwGSbbh6B7zeowajkWC3fStqQ9WDe1M9oYFEWujquw9qnCQL/i6aIKqCsETM0qQzB5117sFrcnbcPmZf3QXj0fsuoNQA9lAz3WEwNq66J0i2XYeWA6hjWqibLVJmO1uRs8Q7/h9YqmqFtJ2UCf4/yMhqiWXwO1+i/Dwu2K35B04CiOnTqPa3fM8NE9MKKLMDKfYXl0CNqoF0SFnluwV64Vr0osBurr+ABXFrRH40q10ajXHKyPOKYtWDKwNmrqlULhESdxzToeBurrjNdrjNGokhFq9F2LI3tGoK2+Eap0WIvjX3zg6/sCV0eXQ5nqygZ6Dus7lYKeVj30PeAA67h4TWwGerIfhtbTgW7TJdi+fyZGNa8JvYrjsPztD3iEusB8TSs0rFQBZSIZ6FVcnVJTaIHWgHGfedggXIsdm2ZjSv8u6DpsNdbfcMCfsdhCkX2+Hmu7qkGz6gTM2bgUK8Y2hZ56Bww78U6IHb/hemUqRhlroFDfndifSAZqbm4ODQ0N2bjIBho96c5A3d3dxdUK5AoKpbGiDBw00Tjx+C34yTXs7KIPw4K10GmPLWylgTGqBioOLghxx8/T/dFKeFLVbrge57yCEexrigsjKqNc6ZqoseY97GQayf63xmN83UIoWHMWNpl6hL+bsacu3OqCgbZA182m0uCFP4R9PIzDg3RQtNRQjDthLQbYIIfbOD2sBLSMu6HLvm8IEI7H79k89NUzRKMmHTBx/kRUzdcUQ5bfgaWwffDXmzg5VB0l6vZE772fpcEnAfi0szV6GqujUOmqqFc2D/SbL8Lcqz/C35WFvMetCVVRqaqqge7D7t7lUUytK0aetonShRtiugZrO2mjYLnpWP6I/uqNrxdnYGi5wijSaR3WmkR56QZ8f4o700pDp0RdNFt4F59okxAPeJyhd6DdUGPm08gts5B3sFxTDyWzlEOlURfwOjgAnubbMLd6ThQs1Q0DTnnQHf2DxU6saamOwp2WCMekMNDwLtwa2bVRufs5vAj/9A9uh7GivCZyFu+FLsoGerw/RjYohHwlq6Oefk4YNJiAcce/Se8uHfBsQUPUrSwY6HzBQD0oOFvg+pxGaJxPH523OCiN7owPTvhyfQp6FMiPHDXnYe6TODTT5AxU+hPgjM/nxqNn8SwoWHsOFj+L3DT9dXEchtfSgvqIY/HrwvX7jjfr6qBNVS2o6VVCXYMCMGi7AasfeYR3s/96ivNDDVDGSDDQ7bYICBOuT9A9HOhVHtpZKqHCfyb48GdYc/TEZqCnhLrSSLhHutWFY8gFw3qjMeKgA8J7h53DxypUVjVQGkRURzDQfhi0X1FHnGBHYx20NaDVaC62vPGGj1R8f73Yis09ckNNpxqqlVdD1epN0XzBe1iKuwuF3akJGJmIBnrnzh107doVOXPmlI2L48ePl7ZkVEl3BkrvoXbu3InatWvLFpZMmTKJKf4SD6re3/B+Yw/01DVEuV6XcEsxD06orCcokUL2Vui/yyZ8pGrYazwZJVQc7bZosfCVZHqBcD48EL0qZkPGumOx+UVgpHcmsLuMbX00UZpMbrk53nlJNdHuOq5OLQ+tvAWgbtQf04+/VjJRB5hu6ohGBtlRZpBgpB+oIgbCw3wnlgmVU7vRZEy+RVVdsAufu9jZ2xCNc2aBlhDcCjXagW3PXcOP4YdwvAuroKJuMzSbfV/afzCsd3fAwLLSdVVvhQmnPsNeOqww/7e4MbGajIEexsEhOsifsyh0GozDkuufpAEXAqGfcWtBbVTXK4SKk67hhn148A20vogTAzSQp0QV1Ft0D5+V3e23Lcz39EanchlQvONKrH76M3wgzG93uImDiGQM9LfQYl1ZC7qZBQMdfRnvfgfCzWwJRqnnQDa9ERj3QMkQ7K/j0lThmLQKImubNVgf0YUrDSLKWRzlOx7EzSijcLdjvoE6cmirDiIaholVpWtWoDb67TLB54hX8l+E69wo3EDnPYKFWIa84XB5IeZULoBi1bph/Jmvf64XEfIBr26exYqjZrDyjM4YA4XDPYf9bXWQt2B5VJl5EebKvvbjOcyvrMH+B9b4pJhPGxyTgVrjw+H+aJopB3I3X4ctSvkpg95tx7ZegslplEa+YadwI15duO54s74+upSg65MJGUp3x4IbTnCWbsdv98c4O0wy0G0fpeNxxcdtA9FZIwf+V3MYlj34FWm0sN+rbTh38QwuWgX9uT+xduGOwbTq0j3KZ4yeW5/DKuI47fB8SXMZA1W8A+2O3pulB2Ui6AmO9C2FkvkMYDTvFT5IzXgvkz3Y0SkDCv5P+I1MZVBp3CEIRVfCD7anJyaqga5Zsyb8fFREyzV269ZNTP/HyJPuDFRBdItl01SWBQsW4OtXuf7Av8DpFs7P6op6Jauh7aSFWLN5MzbM7ofelbMhf+ayqNp5JpZv3oTl87uhbiljtBl1EBeUD0Fo6V1e0gwdampBr9MMjF+5WUz6vHnNQsxrXxHVqxih0YyduCDUzj/1WTDQadVQIn9xlDSoiKY9hmP4os1YT9+b1wkd6wots3bTseqhB1zECOIBxyfzMDpvNlRutgwb3ot7EXCD5ZaOaJVNuEZZy6Hpjg/4oGgF+32C/e7OqJSjHEq0245bwo+HkIFuqY+2eYTtc9SH0UYzmEdkWRC80NcMl4cJv12qIsoueolviqkqZKBCECyUUxt6FaqhZb/xGLuKznMTNk9rjiY1ykKv52Lsfh0IT8XufL/B4doCzO5QEga1WqD5ZOn8SJM7o3t1LRi2HYzZl2xho7gwgW74fqw32hqVQV6jIZi2ZmP49oLWzBiMHhV0UbvpDCy/+EWcphD46xGuTWyFqiVrCtd+JtZJ266cPwJDGpZCabX/IUOzpVj+QHIY7894MLM49DPkQvEmu3BFdR6o5XpMVc+ODHnao4XQalfw5XBX9KMpChkrw3DhfTx0UmpRh9ngwYxqwoOKLopNuY13P6QL4GmJ98dGYGTjoijZsBd6zJfOfbNwTgvHYeCIGei28i5efVc8pcgQ9BPuj1bjv3aaKFW+CuqO3YzV0jkuHt8Nvfq3xZRjb2GmeMccZA+vMwNhXFQ41qpDsEhoYvtE3F5f4fyOYXf3WsL9bYraQxaFH8/WjVg8pRt6VlWDVrEi+F+/o7j8UfmYhH+brcTYmsI+C1ZC72PusFXy1zA/V5gsq4D6Wejv7dH0gBW+KPV7Brrdx/He6iiiVxdG697jl+KCOz/C3ZUt0LJ8Lui0GI2Ry8PPa9Oq/zCmdy30mr0CO18pJURwOIm9/YshQ5Y8MFr4DI9VknDYHe8jzgPNkKE89Ofcxl1HpXuEr3g8xxhVdbVQZMINmLhIBvr1DM4MLYf8GVqh/eonSj0FHrA9Mgg99HLhf+UH478HP0A+6f9yPdY0yICMGfJBrct2bH2rqCCEHz4fHYZ+BjmQseNG7DD5uzEb9O6zd+/eUeKgQpSxjYmedGug9E6GBjZEN/dpwIABsLSkTsrEI8TpKe6vaIAuDY1gVL06qpbTRYkCGZH1f3lRUMsA5YXPjOq0Qq15V3DNVmakUJgTft5egn7t66OGUXUxg0h1I2FfxoMw97i58Oyvgt1FnB9XDzpF+mHcjkPC0/ZCDBC+V0P8njE6TtqAY8KXIoKHEPx+WB4VWpudMX/VNdyLeAkZhuB3+7B1bFe067sS+979Eqq+RMgPBL7Yhmn9hqLn7BN4IAS1YMEuXK5Ow+yOrdBj5Ck8EKLZHwMRDDTABq+2DMeQYeMw8sQnuCuMjd6B9qkFLY2RWHD6KI4fmobuivOsITztLziMy1FGQkl8u4RD83vAuIa0vfidJugyahcuOdMxKRHsg1+P12P16GaoV6fmn2spyKhGSzTruBPnhOj857oI7hDwDFeXD0cn4xrivaNtW849g61nruLqum7ou/IIjryRgpm/E94fGIRRLbph0NwbeBUcpjQ1xB/eDhexr39nNO++GAtu/xkb63pvMZb3bIYu/Q7gsqOv0u8LhDkL+5yIcUOHov/et/jqKQVnEeECWh7AkpFtUFPpXKq3mo/5Zz5LXcBxwOIQ9k9viVrCNVSco1GnqRh64sufRBtE8A/4Pd2AqX2boPXETRBuIQL+PB8JCM7nfBl7xnVDs5pG4cdSpzG6rHuMUyd348iKHui1+S6e2CufofBvmzPYMaUtmvQah9UPvSINlgsL9MDnU6MxsXUH9JtyVbim1Jn5h2Avczxc3R99RkzH5At28FU+Xl/h4emk8DDRzvjP9andBDWmn8XZP83HcNwe4/a6/mjVsTsmH7OChcrF+/5wBVb3bYrOvfbg/FefPw+rIq6wODwVE4cOQp9dZrAWu9np46d4unkMerZdiMXnLCP3Erg9wOXlPdC0Q09MO2uPL8J1DLU5i9PCA2Onlguw/ra9UrIGIhBOD7Zg3eguaL/0Eq5Heo8cdxTJ5atVqyYb//LmzYsmTZrg1atX0jcYOdKtgRLUNUHdFHIFiETzRd+9Eyd3JCKhCA0Jwe/fv/Hr7QHs6EzvQBuj+5qn+Ch8FhKiOtcwKmGhIcJ2gikJ2//+Lfw7ujQzZKBja0G7YC8M2EnzOMOE35a+R78TzdcSRpi4zNtf7VIcRFQN6mrDxUFEP+h4xXMMP97Y9610fnE6R+F46Voqto/1O+HbK7YNSdTrlwiEhSqVCzqXhNyPyNeQylbCT5P2pbhewnVOjOv1F/uIVG+E40pJ9y9MuHdU7v7FIdFMg1OnTqFo0aKycY9E40RoTjwTM+naQJ88eSIOHJIrQAqVLFkSt2/fFkfvUgLmROXLKRzqkQfFszVH363m4XM3E5Ov53F2ZHUUy90Vvba8ivyuLyVisQvbu1dAoQKDMP6szChchmESzK9fv8Q4Rqn7cufOLRvvSLS8Y6tWrXg5sziQrg2UBhTRBOKaNWvKFiSFaIJx6dKlMWTIkEQy0fCnfE+zvdjaITvUMjVAl5WPYRlMT/yJ+BRqR6Nw60CnsNAC3fHqT0qwlAqNwu1jBE314ZhywQpy0zoZhok/lJ6U0pRSHMuXT5HDWl4jR46Eo6NjImdkS5ukawNVYGFhgV69eskWJmVRovm2bdv+ZXJl6qB9j3srRqOffnFo5KR9Z0VOtTKoN3AmNr0MwU/lF4Z/Q+BPuNu8xavnH/HJRfV9TQrEzxUuH9/g5QtrfHH3j/zekmGYBHHhwgWUL18+SjyT07Jly+DsnOh9YWkWNlAJMsWpU6fKFipVNWzYED169MD69eulb8cHal+6wvbRJZzbsQd7Dh3HseOHcXDvThw6exPPHUMjEmEzDMMkBDc3N4wdO1aMUwYGBrJxTFmUhWj37t3w9lZO6cDEBhuoEh4eHli+fDkKFCggW8hUVahQIYwbNw5TpkyBiQklwmMYhkk+Tpw4IcYjMk65mCUnIyMjnD59WtoDEx/YQGXYunUrJkyYICaXlytwcmrevDk2bNggTo8JDEzxnaUMw6QRKHMaxZ61a9eKgx7l4pOqaK3PQYMGiXHu1q1b0p6Y+MIGGgOfP39Gly5dxFFpcoVQTjSvlN4jnD17VhygxDAMkxTcvHlTjDP9+/eXjUXRSVNTE3PmzOFBQokAG2gs0EhdGpVWq1YtcQSbXIGMTpQu8OHDh3j27JmoL1/+JNJjGIaJDzSSVhFLaBHsuL5qIv3vf/9DlSpVxDi2bds2aY/M38IGGgcoawdNvqaky4aGhtDV1Y028bKqqEWqEI3g/fTpk2ikAQEJyyDCMEz6geZtUry4ceMGdHR0ImIJ5eyWizdyypEjB9q3b49v376JcYwSnjCJAxtoPKCCR6Pbvn//Lq7aQnlzc+XKJVto5ZQxY0YUKVJEzABCT4E04k0hMmmGYdI3tKC/IiZQIgOae07xIj6tTYUoNlGMooGOnBQhaWADTSA0Ypfmj1Ky5QoVKsgW4JhUuHBhsTWrEI2eYxgmfTN9+vSImEDTT2juuVz8iE30/bt374oxipZwZJIGNtBEgJY/o+5dWsVFrjDHRdQtTMmblbVy5UrpFxiGSUuQqQ0ePDhKnack7nLxITbRwKAjR46IcYjEAxj/DWygiQjlmjx69CgOHTokJqKXK+jxEbVS+/bti379+omiKTIMw6Q+/P39MWvWrIi63KZNG9k6H18NHz5cjDf0jpT597CBJhGUqH7JkiURoqXT5CpAfESJ76kS0hB0hTZu3MjD0RkmBWFjYxOpjpKGDRsmjoSVq9fxUceOHSNiCiV9oYFBTPLBBvqPuHTpEkaMGIGePXuKo+jkKkdCRHNU582bhx07dkQRLZbLMEzScO7cOdl6F5e82vGRlpaWGDtGjRqFjx8/Sr/OpATYQP8xNH2FRvDSlBZl0ehcucrzN6LVFy5fvhxFV65c4VF5DBMHKJmKXB3auXOnmMpTrt79jcqVKxclNuzatUs6GialwQaaQqABQ7SIrUIxrdeXGFq0aJE40EBVNE+VYdITlHrzzZs3svWBMpHJ1Z/EEg3+UdT5atWqidmFmNQDG2gKgd5jUutUIVoZhiqXshI6Qk9O1I1M+TBVRdlKqOuX3q3IiebBMkxqguZYOzk5yZZn0t69e8U1MuXqQ2K8t1SI5nOq1unjx49HqvdM6oINNIXi4+MjVnplbd++XZwcTVmQSIn5LlVZ1J2soaEhq2bNmomDJCjFYXSiEYcM8y+gB0+5MqgsGn9ASdblyjMptgWmEyJFHVWIumYfP34cpU5TZiAm9cIGmoogY6KuJoWoG1au8ia1aIJ35cqVoxXl26RgwTBJDa2cJFcGlUWj1+XKcVKpZcuW4txw5brKg3/SJmygqRgaCHT16lVZUSJ7ucr9r0TTdmg5uNg0c+ZMTmPIRIIG7nTv3l22vKiKWpBy5e9fieZhqtY9S0tL6UyYtA4baBqF3mPS6D1V0ZSX+CzPltSi90y9e/cW58nFV5RxhUm5UL5nufsWm+g1gVxZSS7p6emJr0/k6pODg4N0tkx6hA00nUHvXDZt2iQaqZwovZhcEEmJqlmzptiNnZg6f/68dKXSDzQKdfPmzbLXI6Gi5AE0aEbuvqU0USuWEpTI1QdSeiwTTNxgA2UiQatAULcqrVYvJ+o2kwtCaUWlSpUSWxuUNjG9iMwuMUebpjTlz59fTIkpV55J1JJkmITABsrECxo5SMGIutmiU+PGjcWRh3LBjMVKTFGWHrkyqCxqETNMUsAGyiQ6tKYhrUFIQ/fjIhrVm1RTclipT7RYtL6+vmxZUdWePXukUscw/x42UCZJoPdqNJc1LnJ1dUW3bt2gpqYWL9EAJLkAzEoZosQfcvctNnXq1AnOzs6yZUVVvJACk5ywgTIpAspwZGdnFy9RTmEaUZzYSm+tYblr8Lei9460zJbcfYtNP378kEoFw6Rs2ECZVAsF2hcvXiS6KFl4mTJlZM0mrYlae3LX4G9lamoqduUzTFqGDZRhZKD1XGn6wr8QzZekwTByBtekSRPZ7ySWePEAhkk4bKAMk8y4u7ujQoUKsgZKa0AyDJMyYQNlmGSGUtcZGhrKGijNU2QYJmXCBsowyQwbKMOkTthAGSaZYQNlmNQJGyjDJDNsoAyTOmEDZZhkhg2UYVInbKAMk8ywgTJM6oQNlGGSGTZQhkmdsIEyTDLDBsowqRM2UIZJZthAGSZ1wgbKMMkMGyjDpE7YQBkmmWEDZZjUCRsowyQzbKAMkzphA2WYZIYNlGFSJ2ygDJPMsIEyTOqEDZRhkhk2UIZJnbCBMkwywwbKMKkTNlCGSWbYQBkmdcIGyjDJDBsow6RO2EAZJplhA2WY1AkbKMMkM2ygDJM6YQNlmGSGDZRhUidsoAyTzLCBMkzqhA2UYZIZNlCGSZ2wgTJMMsMGyjCpEzZQhklm2EAZJnXCBsowyQwbKMOkTthAGSaZYQNlmNQJGyjDJDNsoAyTOmEDZZhkxtXVFRUqVJA10BEjRkhbMQyT0mADZZgYCAoKgoWFBT58+JBkunr1KkqVKiVroB07dpT9zt+KzonOjWGYhMMGyqQJvLy88P3790TXkSNHULhwYeTJkyfJlCtXLmTMmFHWQLNkySL7nb9VwYIFcfDgQdlz/hsFBARId4Rh0j5soEyKIjg4ON768eMHunfvjhIlSiS6ChUqJGtsaUFkonLn/Ddavny57D2KixgmtcEGyqQYDh8+jJo1a8ZbVatWRaZMmWRNgvVvRQ8ccvcoNjVv3hzm5uZSSWCY1AEbKJNk3Lp1C507d46zSpYsKRuUWelDxsbGsuVCToMHD4ajo6NU0hgmeWADZRLEoUOHMG7cuBhFLUO5QMliJYbat28vW+6U9eLFC6nEMkziwwbKyHLjxg2sWrVKVvSeS1tbWzaopSVR1+K0adPSpCZNmoRixYrJnndaUpMmTWTLsEIfP36USjzDxB820HSKmZkZTpw4IaujR4+ifPnysgEppSlHjhziVI8ePXokuu7evStdrbTJli1bZM/7b1W/fn3Ze5USRccrVwcUcnJykq4Ww0SFDTQNQ1M7Hj58GEUPHjxIkUGuaNGi4nHFR1OmTEFISIh0xkxKgDIrdejQQfZ+RSd6/0lTduTKRXJq7NixsnXIxMREOlsmPcMGmgawt7cXg5aqqKv1f//7n6zkgkVSSVdXF2XKlIlV69atQ1hYWLzEpEzk7lVM8vDwQN++fWXLhZyoTP2rcqxad0j0CuPKlSuy9c7NzU26Ckxahw00FREaGoqfP39GEnXFVqtWDQUKFIii7NmzywaExFDOnDnFeYSxqVGjRmJQoQAZm3guYPrG19dXtlzIydraWpz6IlfmlJU5c2bZ8psYooQUcvWO8he7u7tHqqfUG8SkPdhAUzCqT+kXLlxA2bJlIz2JJ+VgHrknb1LWrFnF92eqT95y+vbtm3Q2DJO40PtJuTKnrCFDhsiWYYXkyv3fKlu2bJHqKInM3sbGJkqdZlI3bKAplA0bNkR5T/Qv50nOmzdP9t0P6fHjx/Dz85OOlGFSLvQAJ1eGFaKpMHLlPylE07pU6/T9+/elI2VSI2ygyQx1W86ePTvKSMaknmIwfPhw2VGHpJMnT4rdZAyT1rG0tJStAwrVrVtXtv4klqpUqRKl7lOOYiZ1wAaaDFD3p2I+3tChQ5Ns9KG+vr7s3Lc1a9ZwFheGiQNPnjyRrUNUd6mrVq7e/a1ogJQiPpBotR4mZcIG+g84e/YsNm3aJGrBggXInTu3bMVJqHr27CmbheXMmTPSETAMk5jQgD4yUtU6Rwn15ero36hSpUoR8YPE2ZVSDmygScCjR49E0yTt2LFDnN8oVzHiKxpV2KlTp0g5QanSent7S7/MMExysnfv3kj1U6HGjRvL1umEiN6dKuILycrKSvp15l/DBpoIUAGmp0LSpUuXol0cOT7S1NSMsmLFf//9J/0iwzCpCRcXF7GnSLVO01qwcvU/PqKkFYr4Q+LsSf8ONtAEQAsH29nZiXr58iWqV68uvsckJXTeWb58+SKtq0jJ2pXXSiRRtxHDMKmT379/R6nTEyZMiFTvEzoeQhF/SDR1RxGfSDwHNelgA40jVPipq9TW1hYtWrQQu2VJCV1wmQo6TcRWaP369ZFW9qffYxgmbUPJIxR13tXVVczGpBwXSPE1VdpeEZ9I06dPF2OXj4+P9KtMYsEGGkfI4MqVKwc9Pb1EmYBNU1c+fPgQIapIDMOkb6irVzkukGhOtlwMiato0CLFLpqHeu/ePemXmMSADTQG3r9/j3bt2olLIqmpqckWzthEKe82b96MO3fuRBKl+mIYhokNSgWoHDtGjRolG2viIgMDAzGejR8/HgEBAdIvMAmFDVSGlStXYsCAAWjQoIFsIYyLaLTsgQMHxFFy3B3LMExiQXO4KbYo1K1bN9kYFJOom7dLly5inCPRwhNM/GEDFaDMH9RNQqKFhum9g1yhi0k0tHzRokURoq6XVEmAOR4sm4XZo0dgxAgljZ6AxQduw5RfozBMioJmAVDMoTnmWlpasvEpNtFoYBrQRDGQUnUycSNdGyi9WKfuVXrRLleoYlLFihUjGczTp0+lvaZSflng3dWV+G9qBzQybISmzbuIT6jh6owujcqgmpERao49iDX3v8GVe38YJsWxf//+iJhEo3ETMsiR0hfSUm1M7KRLAzU1NRXTYy1cuFC2AEUnep9Jqyq0bt06DRWwMOC3Kz7t6YduBpmQtVwX9Dv0CTaB0p8VeD3GjaUtUUlLqJA1x2PxDUd48qwahknR0Osoilc051QupkUnWuXp8OHDYpykqTCMPOnGQOlF/Js3b/DgwQMxgbNcoYlOtApK5cqVxRfvae595m93eL38D+OrFENxg74Yf80dP6M7Rb/3MN/eGVWK50apPluxzyIA4R4ahkB3W3x5/w4fPrriZ3Co9LlAWDBCfznCxvIt3n12xHc//PmbgkBXfPlggmePH+HRo8d49PQVXtq4wy1I+rvEb28nOH96i/fv7eHsHYTIh+kPbycbfHxrgfcOnvAOkpaK+u0LXxdrWJnbwsbZG5Eazr894GH/Ce/f2sHRKzDS/kJ+fMAnUzoexTG9wGtbN7jHZcnSsN8I9rCHnZUpTF8+xRNxH6QnePLiA945+EB+NwHwc7HCy6eP8Fjc/imevbGGpXuI9HeJkEDhen/FJ1snOHgHC1ffEy5vX+EVfeex8HumH/BZ+I7Kt/4gXG+71y+k6016jMfPTfDpu7BfaZPIhCH4x1tYmDyRjot+5xmem5jhjfU3OPkEC/XCA98tX8NU/Luw3bNXMDF7jdcmL/Ei4nxewfzLT7j5+cLD8QOs3goPak7ewp1T5jeCvJxgb/4ebz85w9lHpjD6OOLzq2d4qjj+x0/w9NVb2HqERX/Ofk749O7Fn+88Ef5t7QmPkN8I+2WHz08e46nivF6Z4fVrM5i8eCpt/xjPXn3EV49AeP1ywjert/hg4YTv/r9Vfu83fL8JZe2tFSzpvH6nnOXKPn78KE6/ozhWpEgR2TgXnQYOHCjGTnNzcx7PoUK6MFAyT5oLRQtMx3WRaWptUjYg6qql7lkasUYTn9Mawd9NcXt6KZTPXgY1Bp9FbB3Rvp9OYlsHNRTTaoUOa03gKn4aCJv9HdBDpzBKG6/GYUcfRCx2FuQE76sT0bZCHhRpOgnrXwv7iIgrvwUPewfrQ0PRorYBNHRLo3RpXZQqoYn8jadj6hkbeCvV1x/35mJe3TzQKj4C8259ReR1/9/h9qzWqJ3HENqjz+Oug+S+bi/wfFkrVFHviPYL7sAi/FOBEAS9XItlrasLDw6zsPKxI34Jn4YGesPH7iVurmiGHrXpeEglUbp4EZRoOxFTLn6Dh7DrGBvfAd/hfGoo+tQphnxFiqNEKcV+dKCtZYSyHTbhyLsf8A1WCrAhvvj1egc2jayDApqloSt+RxPqBk1QfuolvHAMRMTm3rawPdgPzVr0RtvlB3H17nrMb2iMmvQbJYtDS688qk89g7MWvvBTjndhgfD3FIxj/2i01dODjo50XKV0UFKrKOpP2IMD773gr3RyIYFe+PH2Co6NLIP65bShI55HKZQqqYli+XOjWP2xmHbXGW6/HuHS6A5oodifZmHkz50DOfMXQTHt0iglfq8h+q24h2vvHuP0uJKolK8O2sy5A3Ppt8L5gS835mK4phby1F+A+feVRquH+sPH/Q6urumLhlq6KCGWF0EltYXf1EXLBRdx3sYXgZF8KxhB35/hzbbeqF2lLDSl75TSq4Ti3RZju/Ag8fn2Oswqr4+KtC9dTWgUzoOcuXIjv5o2tEvS9vqo2nAKVj1wwrNLUzCpcl7oGMzGhjc/xDITTijC/K7iSB8j6OU3Rrl5D/DeLWWZTWBgoBjHaDELim0KxZYNiabtUdwsXLgwjh8/zksZKpFmDZSy9lBhocnJNEotR44csoVDVQqTnTt3rriWIM3LSsv42JzDrk7FoK7RFG1WvUJsScCCXV7gxgRtlM1iiFojLkHwQ2qfwHpnE7TJnxmFDRdjr72ygTrC+/xwNCyRAVlqjsDyV4KBSn/Cz6d4tLIVypfRQOURO7HvlTWsrc1gcXkWBlTRhm7NUZgptIi9pYD4/dYUTK2YAXly98PUa7b4Hv6xhBmuT6iP8hmKI+/Ak7hpJxnod6E1NL8eSuVoisYzbigF63e4O70pqmTVRaH+J3D9a4DYmvC1OI9LC+qg37z12HiDjockmPzZyehRoxDyVu+LObf94BLTs5TfNzgc7IHGdZvCcPB+3LBS7OcxrqzojeYFSqJYt23Y/UbKEBPmidCnKzC6aTEUqd4Bo45aw+wzbX8Su8fUQ3nNSmg8+yZuO0gXwtcOX3Z3RDP9LMiYpwjKGA/B3JMmeE6/8e4sLs9tBB3hIaRYr43Y+fpPEA+zPY6do6pArVR5VB17DCeeSsf18Tk+7B2IFpWLoHibqdhoGibdP1/YXp6HyRU1UbJIJ4zYcQvPxPOwwsc32zCvWjHo63bC4DPf4RbgB28XB9jT3y0e4PWWrqhaTLjnVfth+nlrvBfPxw5O7r74aXMDJwfmQ/EMFdBg0g2xDP3BFTZXJqNvrjzIUHkGpt/+IX0eiDDz7VjUUw9FytRGozlXcN1MOv4Pt/FsXSfU0C8Gvb6rcfBjWERvQpjLTVycXRdlhAez2lNP4oT0nc9m93Fqbl3MWbsC+17/xDdbG9jSvh5vwapumsiUqyCqTT6Dk+L2Nvhi5wp34WnE5nR/DBLKcj6NiVhh4iq0/SV+WePpyupoXliII9mNUHzaPbz/nrIMVAHFRYptCtHgo7gmayhQoACWLl0q7oOU3kmzBrpnzx5x4jC1IOOaXs/IyEjs3jEzM0sn62H64MebjZgtBJ4cZQai/8mvkbox5Qh2eYWbU7RhmEkftYaeh+CHooHa7mmFTsVyo3iV5TjgoGyg3+B9aQya62URWhRjsdqUOlsJf9idn4Kx9TSRs91ibHnurdSqc8WXvT3RtnQ16LU7gOu/wrsjPe/MxCyjLChSeAhm37JD5Jm0Qgt0WjNUy1IKRYedwW17yUB/PMPTRU1gWKANWs29A0vxQ+EsP23FjIYVUaD0QEx/4A5XqS8uxMcV321ewdLZB5EToD3BiX7loJW5LPRmPYJJTMFRMFDHI33RrHkv1J3/PNJDSfDrrVjbMhdyVR2DyRfCl5QL/v4Q18aUh07lRqiz4lmk8wp5vwc7e1SAhvZwjD5sEf7Q4O8I+71d0FI3AzKXboIBO23wUSmWhVpfxq7+haBesS06b7KUgrwT3qxpjcaV9VBsyEHcsA2O3Ir2t8Pd+VVgXLEsqk29DzMvekJwxJOlbdAyW1FUGnIJ15zDNw3nDva30BNavV0w9MwPla5td4TcGIdmZbMgf7OZ2PpR+lgixO4GzgwripJZBMOZodoCdcPXGzMxuFAR4YFrDmbf/Rn+sZ85Hs6uhcoVq0B/yiWYKXxVgZsZzo7XQblKtdBk6St8EU/OB9YHBqFPDS3k7b4Bx8wVrxzCCfv+Dg4O9nBS7rf+JRzbeEPkVdNB8w0f8E7lNn87OxDD9LJCTXca1ryWWqCBtnA+NwnN9DIhM8WSYvVRZu4DWPxImQaqiqenJ/bt24e8efPKxkVVkYkqFgen8STpmTRpoPEdzk1PVPSy/PXryM/CaR8PuJqswETNokIgHo4hF75Jn0dPsPMLXJ+kDYOMCTRQM+Ej8fMXODuhJmrrVkaXA4Jhihsr8XUrZjeqgvxlhe+89wetN+NzbyZmVs+CokVGYOGjH5HfZ+IzHs9uiRqZS8obaP4OaLvoJcT+hJCnuNqnCooXrI3ys+7ARjjYSGYiiyc+rOmA5qXKQH3sRTyyj6EJGmGgPQUDfYY/VzUITldnYWq5wijffSu2v6Gr9BOuDxZihEE+VO62DjuijNf4gM+bu6J0gbpoOOcq3tBHgtnZ7+2KRhqGKNtlB66pvrgUWqg225qjToky0O9zEPc8AxHgcgGbWheHZskW6HjQCcIzSRT8BNMbYVQUBapMxfo3vwT78YPlnj7okis7ilVYhA2vvP688wu7jX2SgQ47KxiodLlFAu3x6/xINC6TBfkaT8Y6oVr5K3WrBn69GW6gmWsKDzVPYC19Ho4/vj+Yj+GFBQOtMRuz79Od90Wg5TbMqlEIRSv2w7DLMqsPhQgPgyd6oZO+Ooo1WYVj9n4I9HmGk4PLQ0+jCuquMYfVn/7W6Pl2HkdG6SNPUW00WfkKzyOamOE4nB0UbqA6M7D2rYdQbkLgcnsJltTURZkWg9C6STUYV66OsnPv4V0KbYHKERISgrt374pxsHfv3rJxUk5kpKdOnZL2kv5IUwZK3bVjx46N0zzOpk2bikuN0RzQ9NunHwSPD3uwoq4G8hmPwOALkZoYsoQ4m+LOLB0Y6tRGk9n3YSN+GgTruBqoEEzFWOt/BQdH1kLZ7IVQtnZHtOrcVWnaTEd0bWIIrZw5kFWnHxa+8BdsRgij9+dhYcOMyJtDB2XrtkTbiO1JTVBXTwj+eQ1ReNR53I8w0Fd4sbwhKhXTgJp+A7QStm3fsTbqtZ6McVtf4sV3GScRWkGfTszDkoHd0TVi/+3QtLImNEpWhvbUG3j5LQYD9XfBt2P90clYF4XK1kPzTop9NEM9Qz2UKtgP8+59Czdz2MHx6hR01SoAjRLVUaddN2lbSe3ro7F+QaHMlkSd6echztDz/yoYaDc0VG+E6v3O4LnwUaQHAJ8vQgu+OxoWK4birdbi+DdfeH3ejXm1iqBsxT6YfU+471FO+zfCzDdjYYvyyF+yL2be+yG+3/Z3fImH2+ZhWrPyaNaqFTr0oOPqhM7ta6FK0dxQr9YfI8+5ie+FI4jVQO/i/KjC0M9TAEX16qKp8vl2aYuWdcqiRPZ8yNhoERY8oA5/D/g+X4jBZfPDsP5UrDELjTrYKdQbv58uEh4A9FGw6jRsMPeEr/tlbO2oC33txhhxyh1f4tLjGBcDLZUV6qVmYb2VI7683oKFzcuijOFAzLv6CBdXdUb7GhWgN/su3rimHgNV5vPnz2Js3LBhQ5waIrRwP61Tmh5JMwZKo8T69+8ve4NV1b17d3EVFQYIsL+D44OLQVe3OdqvfCMNCoqOUPh/uYA9bdRRwKArOu/+KLUCA/Ep3gZ6DYdG14JBnqIwbNofPYYMw7BhCg3HsFHjMWnafKzedgVPXULE3/G8Jxhog4zIl7MsKrfqiX4R25M6o3VFTRTOYyAY6LnIBrqsESoWKwGtKm3QQ9h2yPBe6D14LMYvP4MLZu6RRoH6u5jh0c7R6FWzMmrX7YgBEfvvKxiisA/dStCech0v4mCgHWvrQa1SG3SPOLeRGNKtPVpVb4aBs47g4rufwpVzhuP16eilUxDFBTNp0ls494jfFDR8NEZNmIoZszbj+CMbiJ2+fl/wVTTQBqja54Q48CuygdrAdk8PNFCrAP2uB3Dbx1f4yk7MMS6CMuV7Y8adAJmR1r8R+nYD5jc3FAy0D2bcdv3TcvZ8gFNd8kJf0xCGrem4hmL44Baoq5kXxav2w4gEGOg5wUDL5i4CzUqt0UX5fIf1Q8+WlVA2R35kbKhioHr5oV93ClaZhJeHSIR6IejxAgyrpqdkoFexvUtJGOo2wrAT32EbebivPLEZ6Kn+GFpTA7oNlmLXZeGBo48x9Et0wNDzH2EX6IT3G9qgUaUKKDMr9RqoMseOHUONGjVk46iyqFt38eLF6eTV1x/ShIHS1BSa6yR3YxWiJPCUsopaqPTinAkn1OsjLNbUQNVs+aDVfgsuxBRkwhzw+cRgtM5VDIWarcCqN1KfWJg/Psa7C/cBjg6rjJpFamLImUCovtKS4/udGVIX7igseuah8r72C57Pa4Wacl24/zWBQf4OaLfklTTw6Ds+bm2HJlrFUbz5Uuy39IWP2CJzg+WJ0ehdIhsK1l2I5c+UXQFw2t8LXWuUgc7kK3jsEJcu3N6ot/BV5IeSX3dxd4pgrP+rgUbzHwlH7YdvD2ZhiEY+GPfYhZMqAVsWH1vY7OkqGGg1VOh1FA+ljyPw/YLPW5rASKsuaoy6iU/CFQ/xEFpj7XWgXaYF2uxzxE+Zw/e7PhrDqhdBQaPp2PTGW3y/F+bxCg82tkXzHPpoNP4cbkQc330cbFkWxqUS3oWrm9kYrRe8wFfp83CC8fPxQowsXFTswp0lduH6IejTbiyoq4Zilfti0IVfMl3u/vhxrBva66tDo8UGnHYSvuN7Fwd76KN4jqqoueIdPsZlVa/YDPTkIIxuqoEilduhV5PiqFytFzoueR3+YAMXmCxuhoaV046BEtS1S7GzV69eYmJ6ufiqEGVy+/Tpk/TNtE+qNlCak3T9+nVxpQG5m6lQhQoVcOLECelbTCRChTD5dg+mt8yPQiVrotPap3gpl+c+2B5fzk7E2LrFkK9ML4w+YvEn8IX6iQbaUS0PtKuvx6lI75qEAHh3MlrrZ0HexlOwJWJAiSPebO6PvprFULbXOux54x9urBE4wfr9O9x+7QQPKQ65RQwiGoxZN1WnsbzFralNYxhE1Bot59z+M43F/xGOD6sAvXxlUGPuK5iKD85WeLqmDWpkyg+NvkdxwkHcUiTE4SKOjaiGSqXLQWvyNTxzjIuB9kI9wSAidYwHm8J8VWNoZa8CY8GIBW+Bl/1p7Gmig3L6Qmt15zt8ixR3gxD24wPuPf8IcycfiD7kK9yLvV3RQjc/Clbqg0lHzZUGEYXit8VJrO2aB1o1emDAfmtpqoWr8LvN0cBAHYX778QdpXMT+f4SZ8froUr5cqg19zHeia8Zf8P16jRMNciCYmWnYfFdZ2lg1W+EeF/C9ialYVSma8LfgWapjmbTb+Od9Hk4P/Dl+gwMUh1EFGCJRzOro3zZsig94SzeRTI24ZxtrmLPADWUqdQArdeaC6WLLPYLXi3qgIb5CiFH22U48C58pLWCUIdHeGv+Gu9clOZzxtqFOxrTakixJas2mi28hIcR9cUez5c0T3MGqsycOXPEqS+qMVZZPXr0wLt3ke9qWiXVGuiPHz/ERMoxjRzLmDGj2P3A3bWx8+3KdMxqog09fX00mHUOh+//WeH+xYunuL9xJIbWKwatWq3ReYsp3kYaKuoHy+2N0bZgBuTSGopZF+7hvuK7jy/i7op2qEjD+w07Y+xRS5h+cYNHgBCyvt7Axdk1YaxfGOX7r8GaK4rfe4AXx+dj+IipaDn/Ft75hEdf95uTMaV8BuTM0QdTrtpEmcZybXwdGGZQR67+J3AjYhrLYzyaWxs6WRuj4bTrSiM+f+HzkaHoWzYfclafjOUPXOAd4g27m/9hcvlSyFdlBIZuuymdw00cndcUHUvnQO7CBigw9iqex2KgDge6oZFxXZTusQHHnyjO6wXuHZqH6fWLwcBgMKYc+RA+QjfYHT8uTcOohmrCA0hL9Nz0HNefSt+5tR9Hl41BnUFbsUp4aBADvb8D7PZ3RxvDPMiVryjK1uiJcbtu4jJtf28XDk6oCV398mg07yLuRDR/wxBksh1re5eAnoEBGs0+hyOKe3znFI5PrIta+loo128J9n4QTE7YPvTXQ5wcUws1chig2fIXeC55GZl60K+z2FhbA+U126L/ye+Rk14E2sHz9CDU0syAzLXGYCWNvFY20C/XcKJ/LhTLUA51J16PMo3F+vIk9M6eExkqCuZ9S9E34Q+v+0sxu60mdCvWRrvld3D+sXT8V3Zj19BKqKCvixrjduGM8GSn+Lkwq1M4PFofBjqFUGXEDmy7Ff6d53fOYeckY/SbOgsrHvn/eafqeBoHBmsjY67CqL3kBZ6o9EjanxyI0WUovmiiwMDDOP5BeRlCOzyZXw819UpBc8otmAnGnBbZtWuXmKlILuYqVL16dfE6p/VlGlOtgdIL7piSImTLlg3t27fn7tq4EhqIIOcHeL65F6pV1INOyVIoVeqPSmq3QY8pJ3HfyxdRksOEBML6yACMq1cUasW0oK1bEiUV3y2pi5IlNKFerCiKFimEwkUModZqHfaaUvsxFCE+n+ByfhK6NK4ofE/xe3ooVXsCJh80g71vEBQJXdwfLcGS5how0J+AJffsVaaxvMf9hV3RVKMGDCdfxkPFO0p3E7xa2wV1hVZzz2UPoDyjIsz5Bs7PrIfShlXQaf0LvBRaXWG/v+HH41UY16AKSpfQFY+ndJW6aDbvHLYtG4UZQ2qjxn938CImAw10g8u5sRjaVBfqxUtAV3EtBJXUqYJKNeZhh5nwO8GhEYGerr//x6M4MLUZ1LVL/flO2eaoO/IwLn9yh1+Q1E7ysYXtnu5opNUAdbvPx+4L8zGwUXUY0vYlS0C/ej0M3msBM4+QyF2docEIchEeTjb3FlqaSveY7pFOCwzdfBdPfRQZnoLg92Q55raqBH3j8Vj+7KfSA4tgoN43sL9LTTQ3HoLJV9zhoXw5gr7B69o0dDbWQKnO87FDeGoJUDLQIIf7uDzZEEYazdBt0QNEXnbBDXZ3FmN8WQNotFyGpY8jXFs4/iDBmy/j8qL2KFVauEaK4xfKW1nDrkJL3AxvA1SzA4UgxPERHq5ogXqVdaCt+E7ZSijRZx02P3KCX3DYn/vgfA1nptdGSaFMdNn8BqaRelPoQXMCptTShGG1uVhv+gOeSucl/BWm67qjY+MGMF7yGO9TyTSW+EIjdmlZNUpIIRd7FaIBSM+f0xC3tEuqNFC6gTRVRe6mkajlSX3xtMo7E0/8f8DOxgqWFn8W9P3wwQIWVo5wVvSlRiEMwd5CK8TpC2xtPuGjpbC94rsW9N3PsLb9gi9Xl2FRz2oo0GAxVt7/9ido/f4FVwdrWEX8piU+WAv784v8pivE3wMeTl9hby+0YKOkUQuC/08XOH11hL2b7580apT2ztMF3+xc4eKh2k0sBGRPJ9h9tYWDux/8InboC09HW1hbWYjHY/HRGl/cg+Hr4wkvd0c4evghIKY0bWFC0PZ1w49vNrD5HPlaWlgKn9mrpq9TIBic5zd8thK2U3zH8gtsXPwin6tooDSIqCFq9D+OJ7898e3LJ1jR9haW+PjFEe7yOfnCoXtsrXRcwncsPznBLdJBCS1Q3x/47mCHL99+wkswmT93QzCcUD94uTjCyVG4T76CUStfjrDfCPVzh4vjV9i5/MQv4aJH/rM/fN3s4fj1/+ydBVQVWxuGvfc3rq0g3Y0IKmAgtqLY3d3d3S1id3d3d4IYGIAgIt3d3fH+s4c5eDgMiooIh/2s9S5dw8ycye+dXd8ORmi06D3JQmZKNCL9/eEbzNxvUlORD+ajKyEEXu4uQsfvCjevsPwdmURJCkWgt+u3Z+wrc71C+D4Gk5HI3GM//wCExjHPjkhjayZzTSKZ8woIzJ+xKZdM9lkLYT7aA2NSkZ71nWekjJOTk8M8oy7fnfKRJK959OgRt4V4UuYMNCUlBXPmzCm0ezXJqEFKp6SKl1LK8LmAs/PaQ8HcIr+BUn4OYqBHB6CtjCkaDb2YO7SFQvkLkKxO48aN443FJIENmcCbzBAjrpTJEmi7du14bxjpTES6XROTpZRCHA9h/4QmqNlqNdY/C6AG+qskeMLzQDc0qdYImr1P4QWzSLScRqGUFGS2FjIfaWE9dFVVVbF27VqxHG9fpgzUx8cHCxcuhIqKCu+NIh2GSPUupZQS5YIv1tdw/NZH2AfRmbl/mYw4xH25j2tHr+DCQze2IxL9GKH8TUhHTdJ0xheXiUhsjo0tyhitskWZMlAy3rOwvLYmJiY4ePAgnSmAQqFQShgvLy8sXry40MJN9+7duTXFizJloM7OzpCRkeG9QcuWLePWolAoFEpJQ2r/TE1NeeMzGYt/7tw5sevYWWYMNDAwkC1hkpRRwjfmf//7H9v2efToUW5NCoVCoZQ0iYmJbAfPwsaIkjmWyfAXcaLMGOjmzZvZiV1FbwpJpECyEZFu1RQKhUL5e5A4XNgQwzp16uDFC9LlTXwoMwZKphzjuynEQEmuRgqFQqH8fUhSeb5YLSkpCSsrK24t8aDMGKilpSXvTSEGKu6DdSkUCqWssGbNGt5YTQ30L7Jp0ybem0IM9PHjx9xaFAqFQvmbkDGffLGaGuhfpLCvmtq1a+PNGzIjIuVvkBL2Dq92T8P6/ddww7U0tUPHw+feVlgunInp553gEVMg7xqFQvkDkP4qfLGaGuhfhAzUnT59eoFsF5UrV8aAAQPYjkSUXyA7ETmeD3Bh/xrMmz0Vk8eNwZgxnMZOwITFltj/Ogq80+RmBMDz0jz0UJJGo/H7cdqvMANNR5j1URxduBBLN+3FpU+JiPhOLvYfk4KgxwdwgOxvyyFcc07Jm/LsG8kIebgY89uqoILxQmx4HgyhtOQUCqWYIRngDh8+jJYtW+aL0QKRTqBPnjzh1hYPyoyBEkjyYllZWd6bQ8eB/iKZIch8MBPmmnVQoboWDHsMwYAhQzCEqE8rtG8kh1rtZmDKIVu8CcyfoTzT6zwuzzNEbePJmHXJPf/E0SzxSHK7h0Nbp6F/gyr4j9wrCT0MPB2Cr7+U7yIGcc63sddiInpr/ouKZH9yTTDiUjS88ubDFCLtE97sGASj6gYwW/UU1uwclxQK5U9AeuC2aNGCNz6T3OVkgg8PDw9ubfGgTBkoqaqVlpbmvUGkFPrq1Sukp39vSgZKARgDzXiyGL30DKHScydu5Ju1Pxjht+agi84/qFCvDwbu+8JNzkxIQ+C1OZjXVgaqM6/ghrtICsWMYHg/3oANfeqjqkJDGBsZoIHCf6ipYYKxF0Ph/lPpipmSbXogPO6swPJuOviP2V9T4wbQkauMWrrtMeVGNHx5Zx9JROALCyzXl4BeT0tsfUtzJFMof4LIyEhcvnwZDRs25I3PXbt2FcuhhmXKQG1sbNjBuHw3iKhNmzZITeUrilAKhTPQ3g0aQ7mbJc4HE2v8Rk60M96saoBGVdXRePg5PBdMTZVuh7tLu6CtRCP02PJeaLJlArNGsi0eWAxHP7NhmHbCEQHvT2PvEDlUVmmGEWeDf9JAs4GEV7i5ciB6dx6L2WedEfL2ECx61UMljTaYcDWqEANlDtPrAa5NV4RKg94YtPsjQsTvHaZQ/jpk3s/CkskTkWrd+Ph8X+diQZkyUDs7OxgaGhaatLhp06ZwcnJCdjbtMFJkhA206yacCyQtjEKk+MHrYFeYSipAnSmhXo7iZv5wP4j1PZtBUmsc1thEIJRdWZgsZGWkIS0tA1k5zP1wP4aNfaRRSflXDJQhJwuZ6WR/ZB7QDMB5H5Z2rotK6q2/a6CI/IAPm9pBr546DMafxP1Y1o4pFEoxkZSUxM6CVZiBkgQKI0aMQEKC+LWhlCkDzcjIgK+vL7p168Z2HhK9UWSZuro6Oy6UzspSRPIM1BAq3bfgUhiziPsTISPoFe7MUoH2f/VhMvEmbLnLmv5sIaYZN4Rsw3U45hOP7zdpMpblehjrev2GgeaDMVCn3VjUqQgGmuKJ4HOj0EKpCqS6rcZ+lxyyNYVCKQbS0tLYIYYkxWphBZt58+YhJiaGVuGWFkhe3FmzZvHeLCLSYH3gwAFubcp3+V4J1P85nqwyRSPFiqjRbjk2PIlDbgV5OnxO98VAxbpQbGyBU/4J+UutBWAs+WtxGijjlo5FNNCcMMTYrMJovdqQaTIFi54mIpUWQSmU34bMfDVx4kS2hMkXhwUiWeTElTJpoITCMhMJJC8vjyVLltDq3B+RGYasZ0sxuLkSqtRRhqaRCZqZmLDTw5noa6KhTisMsLyEi19CESZoXs5OgeuhzuhlIAeN/ifxMDT1BxM6/0UDRSRi323ENP16kGs0HrPvxyGFPhIUym9Bpi/r3bs3qlSpwht/iUiJlJROvb29ua3EjzJroJ8/f2Yn1+a7cQKRDkfjx49nS6yUQsgMRebTJehvpIW6ut0wbOV2WG7fju1EOw/g+JX3cBM1u6wUuB/qgt6mmtCedB2vI37U8/lvGmgEYt6ux+QGkpAznIi5D+OpgVIovwGZUaVjx468MVcgBQUFHDt2TOznZy6zBkogvbosLCwgJSXFexMFGjRoEJuIgcJD3jAWI6j23oM7RTE2xkBJCbS3liRUzQ/gZlDyD9oV/3IJ9L0FpnMl0Fm0BEqh/DIXL15Es2bNeOOsQOTvly5d4rYQb8q0gQrYv38/Oyco380UyMzMDEeOHMHZs2fZXmMUjh/1wuUjJw2BF4dimIosFA024qT/jzoR/UUDzQpB9LPFGKhTHVItZmCldSpS6VAWCqXIkOQHJHbu3r2b7V/CF18F6tSpE54+fcptKf6IhYESbt68CWNjY96bKioy3Q6t1uX4FQNlypvpr9dgbsumkDZYiUMe8Ujk/lIoQWextb8MKqmaYtyNJJ5hLwzpUYjyeIsnTx7joZ0v/L9lbSiIz1Gs6iaBSprtMf1BFn+qQULiV2bVgTCSqw65PhY44c3aOYVCKQIODg5sVjK+OCosMgKib9++Ypdp6EeIjYESPn36hFatWqFixYq8N1lYkydPZtd3dnYu3x2NMoOR8XAOOqtqQ7LdWpwMKIqBMtfL5wS29GsCSdUBmHs/CP6ivYiyYhHp44yPNjawsbGCzenZGGlcCRVqqKDN4us4+5RZ/sYRDl5RSBBsG/UCL1Y2Q+1aVVBr0EGc+sItJ4kZMqMR7uWED+z+nsHm2FT0b/APKtTWgtmqu7j0jOzPCY7e0UjKFipihr2FzZqm0JFpCJNZV2GTRMeBUijfIzY2lo2NJPNb8+bNeeOnsMgQFtIbV9zbO/kQKwMlREREYODAgahatSrvzRaI9BAjnYxIb91bt24hODiYfXDKHZnhyHy5EWPbdULT4XtxPQTcUJUfkPwS1+eYwkBCA82XPodVsHC9KPP/5Nd4uHkMOmloQINIXRUqSgqQV1CEkqo61Mkyg4HoteYpnJI4S4t6hsdLmqBOjbpoOP82noTnLiZJGZBghZtrhqF93v5UoKwoz+5PWVUjd3+NhmGAhRVcUwSOnINkl6s4PVIaKk1GY8Jpd4hfLhQKpfggMXD16tVsbPxRDCUi5kmGqZTXFKpiZ6AEMmh38eLF+O+//1jx3XhhSUhIsL3GSFVFVFQUt5fyQhZy0uIRFRaO0KgEJDPeU7Qmwji4XZiKcfUlIdF6Lba/CstfsstORmJUMPw9PeFJ5O0LX/9ABAUGwN/HC95eZFkgAiKSkMZtmPP1OI4NM2Q+asZg9jUXhAjvkNlfQkQQ/IT25xeQuz8/Zn9e7LIgBEYmIy3vBCLgeWcxJivKwHDoIRxxFi0mUygUkuCApECNjo7GyJEjv5sulYgUPkhcJZ03SWeh8ljyFCCWBkogD4O9vT07/5yRkRHvgyCqSpUqoW3btmy1LuXHZAText15bSEtZ45+u9/g96YD9cZri74Yp2mEIZsc8Toy/ferWqOf48GKblCt2wb9dtnCnqYgolAKcO7cOTZGNmrUiDfDm6jIVIcktpK0qZmZ5btHgdgaqDAfP35kG7j5HgY+kW7YPXr0YDsbUb5HAkKsLDHDWBpNRm/Dvi+/aHlZKUh6uwZTuzSHdseNuOaXid+vEIqH14WJGNtUEVW678Rx+5iiVU1TKOWAoKAg1ghJnFNTU+ONg3xauXIl/Pz8uL1QyoWBEshcoocOHcK2bdsKnVNUVLVr12YfMtLhiIhMFkvJT2aSH3yen8adZ+/xMV876E+QnY40z2d4eO8hLtiGIrZYcmamINzhHu5cPItzH0IQSd2TUo4hbZtLly7Ni2XEOPliHp/ILFckdp48eVIsZ1T5HcqNgQpz5swZLF++nJ1DlO+BKUwyMjJYtWoVNmzYwGZColAolNLM3bt32XhFesnyxbQfqV+/fuw8yxR+yqWBCvD398fo0aOL1NFIVCQPJDFigWi1BoVCKQ0EBASwMen48ePQ0dHhjV/fE6nSJZ2JJk2axM5+RSmccm2gBDLt2YIFC9jcjvr6+rwPVFE0btw4NkckGTsljtP2UCiU0gkZOUBij0DE+Phi1Pf0v//9j530msTB06dPc3um/Ihyb6DCEPMjHYj09PRQq1Yt3gftRyJduy9fvsy2uRKRIRcUCoVSXJBUpIL4QkSao/hiUVFExsGTeDds2LByOITv96EGKkJiYiI7czpp65SWls5TUbp3C0QGINesWZOVtrY2+1UYHh7OigyvoVAolKJChooI4gfRzp078+ILERl+xxeH+ETWF8Q0ZWVlNgUqiXcpKb+VnLrcQg20EMhD5ePjk6dp06axKQJJVQffg/k9kV6/pF2ByNTUFI6OjuxLISwKhUIRIBwbyAQYgvhBREYH8MWZ74nErurVq7NJ4QUxjfTbIE1YlF+HGmgRCQ0Nxdu3b9lebaRUyfeQFlVk5pgWLVrk0507d7hfolAo5ZkHDx7kiw2Kioq8caSoImPgSewiUzqSjEOU4oMa6C/w+vVrXL9+nRX5oivquNLvqX79+myXcYFo13EKRfw5ePBgvveeiLRJ8sWIoqp9+/Z58YnI3d2d+zVKcUMNtBggD+muXbswatQo3gf6V0SqemfPnp1PV65c4X6RQqGUJTIyMrB58+YC7zTJwc33/v+satSowWYJInGIlDQpJQM10GKEzDG6ZMkSzJ8/n5W5uTnvw/6r0tLSwtatW9lsSgKdOnWK+3UKhVIaIHFg+/bt+d5TMlSuKNMsFlVkX2TonCDW7Nmzh/t1SklCDfQPQrqYjxgxAoMHD85T9+7d2dkM+F6KXxHp8UtMlcyKICrSWYlCofwZnjx5wvveTZgwgfdd/V1169YtL46QtHykVEv5u1ADLWFILknygpGJv4mMjY15X5bikJmZGduWKirShkuG61AolO9DsvrwvUPEKMkYSr737ndFetkK4oNAJCc3maaRUrqgBvoXIJmKsrOzWZEXtGfPntDU1MynX0kvyCdS2hUVqf7ZsWNH7ryaPPLy8qJft5RyAUmyzvcOCERS2vG9Q//88w/v+/YrIu+68Lu/bNmyvPggEM1uVjqhBloKIGNOSYIFYZFxp2S2d2EVl6kSkapfMpE4n0g2pfPnz7NfvKKiJVdKWYOYDzFKvud53rx5vO+AQMXZbklE3mHR95qk3hN+9+lQk7IDNdBSCkmr5ebmlk+krfNf5uuX78UsbpFMJSQRtajImLLg4GDuKCmU0s/z58/ZyaL5nmeSXIDv+f9TsrCwKPBeR0ZGckdKKWtQAy1DkNKfjY0NXr58mScymzwpMfK9rH9KTZs2ZecI/JHIGFkK5U+QlpaGWbNm8T53ovrdxCc/q3bt2sHa2jrfeyoQnU9TvKAGKgY8fPgQFy5cyCcjIyPel7skRXJtDh069IcaP348vL29ubOhlGfu37/P+4yIqk+fPqhSpQrvc1eSIr3sRd89e3t77mwo4g41UDGFJLC3tLQsIPLVXpwdIIpLZH7VxYsX/5RIejJK6YXkcOW7b99T48aNeZ+PvykVFRW26pXvfSId7ijlF2qg5QzSQYHMUD9z5kxeDRw4kDeIlEa1bduWHUBe3CLJKUgVYXmB9Lgmc0DyXYtf1ZYtW4oty86fFmkCmTp1Ku/7QESaSSgUPqiBUvJBOi+RYEKqyPjUunVr3iAkTiIz7pASB5nqqTyImN3PTNdX1kTS3PXo0YP3eSYiWYMolF+BGijlpyBtlb169WI7Ev1IMjIyvAGNiqo4RDoH8T13olq4cCEdR0n5I1ADpfw0ZI5CUu33I5GZJkj70Y+kpKRUYsNzqEq3yLASvmdEVKSTHGkD53vuREUSEVAofwJqoJQ/Rnp6OsLCwn4oUqoleT5JVdvPqjT0xKQqqGrVqvHerx+JZOHhe0ZERcdOUkoD1EAppQKS0vDz588/LTLWtKQHw1N9XyRpARkHyXe/fiSSMYhCKStQA6WUaUgplwRrMjNGcYmM5SNjWPnMQdzUpUsX3mvwO3JwcODuDoUi3lADpVB4IMkpTpw4UeyaPHlyoe29Y8eO5d3mT4pOeUeh/DrUQCmUEuTevXvsMBk+A718+TK3FoVCKQtQA6VQShBSPVyYgR47doxbi0KhlAWogVIoJQg1UApFfKAGSqGUINRAKRTxgRoohVKCUAOlUMQHaqAUSglCDZRCER+ogVIoJQg1UApFfKAGSqGUINRAKRTxgRoohVKCUAOlUMQHaqAUSglCDZRCER+ogVIoJQg1UApFfKAGSqGUINRAKRTxgRoohVKCUAOlUMQHaqAUSglCDZRCER+ogVIoJQg1UApFfKAGSqGUINRAKRTxgRoohVKCUAOlUMQHaqAUSglCDZRCER+ogVIoJQg1UApFfKAGSqGUINRAKRTxgRoohVKCUAOlUMQHaqAUSglCDZRCER+ogVIoJQg1UApFfKAGSqGUINRAKRTxgRoohVKCUAOlUMQHaqAUSglCDZRCER+ogVIoJQg1UApFfKAGSqGUINRAKRTxgRoohVKCUAOlUMQHaqAUSglCDZRCER+ogVIoJQg1UApFfKAGSqGUINRAKRTxgRoohVKCXLp0qVADPXHiBLcWhUIpC1ADpVBKkJs3bxZqoOfOnePWolAoZQFqoBSKEF5eXpgyZQrGjh37R9S2bVv8888/vAbasmVL3m1+R1euXOHOjEKhFDfUQCllkvPnz2P16tXFrr59+/KaW1mVrq4u73n+jk6dOsXdBQqlfEMNlPLX8PT0xJEjR35aO3fuhJycHK9hUP15SUpKYsuWLbz35kdycXHh7j6FUvahBkopNsLCwvDw4cMia/jw4bwBmkp81a9fP95noTAFBQVxTxeFUvqgBkopEiSQOTo6flfz5s3jDZpUVL8q0h7N96wJFBsbyz2hFErJQw2UwhIfH4/g4GBe+fv7syWHatWqfVeF9S4tKyLnIC8vL1aqUaMG77mWFf37778FnjNhrVy5kveZFVZcXBz3lFMoxQs10HJGWlpaASUnJ2Pq1KlQUlLilaKiYqkzx4oVK6JKlSrFqlWrViEgIECsZGlpyXuuv6NKlSrx3pO/oerVq/M+s8IaM2YMW1Lle/ZzcnK4N4NC+XmogZYj7ty5gyZNmhSQsbExqlatyhugSqP+++8/HDhwAB8/fixWiWN1YEJCAu+5/o6OHz+OmjVr8t6b0ihi+oaGhrzPPh3mQ/kdqIGKGaS6atq0aejRo0cB6ejo8AaYv6Xu3bvj7t27P63Hjx+zpQfK3yEzMxPPnj3jvTc/0oABA3ifhb8lDQ0N3ndl/PjxiIiI4M6YQuGHGmgZ5erVq2y1q6gGDhzIGyhKSrVr18bGjRvZEuKP5OTkxJ0Npbzw9etX3mdBVGSYjIyMDO8zVlIiY4L53rGzZ89yZ0Mp71ADLQOQHKkWFhb59DdKk+Q3ly5d+l0dPnyYO2oK5fcgCRv4njFhNWzYkPdZ/ZNSVVVlPxKF30cyxjUrK4s7ckp5gRpoKSIqKorNh3rmzJk8kS/xkupJqaCggJEjRxYq2l5EKW2QamG+Z1UgFRUV3me9uEXaWdevX5/v3SUKDQ3ljpQijlAD/Uv4+fnhxYsX+US+qPlezuJSnTp10L59+0K1b98+7ugoFPGATBHH96wLVK9ePd53pbg0e/bsAu85ybdMEQ+ogZYQpHRJ0pgJNHToUN4Xrjikrq4OPT29AiJ5TItKcrg/fL64w8c/AancMj5yspKRGOQBN1cf+IQnI4NbTqGUBTZt2sT7rmhqavK+W8WhPn365IsFtLNS2YUa6B8iNTUVkZGReZo1axZq1aqVJzJAnO/l+hmRsZnkC1pYzZs3x6dPn9jECKJKT0/nju4HZGfg3fYR6C4pA41m63HEIw6J3J/yk4VYl3PY1VcDmoYjMe74F0Ryf6FQygIZGRm874qrqyvatGlT4P0i44/53sWfEXn3hWPBhAkT8sWKlJQU7ugopR1qoMUI6UQgEGkPISVBgX5nnCV54YhZiqp///5sdZC3t3eeiid3aDaSPuzEyg51UaG6Hkw2vML7cO5PwsTb4+POrtCpVxkqQ/fj5NcUZHJ/olDKOiSLkfC7RUTaVfnexd/5ICbtp8KxYsmSJfliCaX0Qg20mCBd71u0aJGnunUZ8+F5WX5WZOYL0m3+7du3BUTaUf8YWaH4dHIUekpXRC3Z6Vj10B/R3J8EJDnux76eNVC7akeMOP4JPjSpC0XMIR+ofO/i5cuX2dSJfO/wz4qUSoVjybZt27hfp5Q2qIH+IqRHKhkULhBJd8f3MvysyNfo5s2b2XGeRCRpwN8iPeoFni5tB8PKKjCcchY3Ark/sETB+dhYjJGXRMP+p3D+i0j7Z9xbPNk/E906d0THjrkyG7sZy18EIjHxPV6tm4Zx7PJOMOvSE7379kf/3j2E1h+GOTsf4QP3AR77dCU2j/+2r46du2HgytO4+DX37wIyQu3xZv8YTB28FBsvOsOfW55LHEI+nMLuUeMwePllXHFJ4JYLiESI9T4s79MF5maC3+qErgPHwvJJGAJFPhCyvR7iwc5xGNinG7p2Mss7NrNOA9B97kXc+hrPrZlLlscNXFq7ABOmncMd71gkc8uRGYt4273YOGkJZm98hk/M72Rzf8oJeo0Xlp0wuBt3PGad0XnIFCy+4Q0v/nr1/ITZwe7MHEwa2Qs9u3aGGXeMgnMz794LvcfPxtJrbnCL4bbJwwfOl9dhahezb9uZmaPvxKU46pDNXE0hslORYn8cezZvx5JLDvBLc4CV5SxM5H6nY4+BmHzkHd5HcevngznhiCc4t3A0+nUSHBsj5h5P2XkHL0W/3OK84HVrFRZO7oc+PbvCXLA+o14LD+KoXQoE5bZUpzO4sLDjt3XMuqD7lLXYahOPuGKuLnn+/Hnee7tr1y7WCPne8Z8VGQ8rHGtOnz7N/SLlb0MNtIiQl2Pu3Ll5IhMV8z3sPyNSXbN161bs2LEjT2TsG8n0UjpIQ7LLWWzuVA2ysj0xbK8b8mpyfc9j70A9aNdth1EXfeCe17zK2IL3HRyb3RxNmhrDYMgyzF+2DMsYTRnWE8Nnj8KBF69w5+h+7CLLF03F3J5aqEOuSZ0GMB21DAuXkvW34PAte3z2d8CHs9OxbM5AjJmZu59lyxZh2fDmaNhIF1qjt+HylwzEcY6T4n4DpwcwX/EVdGE69zE+5S7mCIHrlUnoXeFfVGiwAIueCjpvMBtHvMX9/SPQq3UjaJqMwbjZ3G/NH42pnVWg3mogRh16BSchz816vR6reymhglxbmI+bwx3bfMyd2BEN6zVFo8F7GKP5Fv0zX6/A/CYqqFRnBta/D0Fu4sBMpIU9wvVBWqhdsRnqT38Mb85Aw6x34viaPhg9bQLmLOSOZ+4wjGqnCkmTvhh/7CO+/shEPS7h4jg1VK2gDA2z0ZjGHqNAEzG4uSxk/5GC/oKneJpX+5/CeOd9nFrbFa2bNkEDs+mYtYjbZlZ/DGujCjXzGVh0ww0+gvuenYy425MxoqU8Kmq1hvmgoZg6eWHuvV88CfO6qaJeg9ZoMe8K7rhnIFPwMZLhD/+nmzBvqBHUG3eDGXP/c49tAXOPjdC8WWMYTzuI6+4539rhQ9/g1YpGUKr4L6podka/ecuwhDuntcfv45FnOjKSI+F1Zzm2LOqLkVPnYRH7TDGa2g3mzVQhxRz/xkeBCCpit4BfgQxJE363ierXr88bC35GJG4Ix6L79+9zv0gpaaiBfoeYmBjs3buXrUJp1qwZ78P8M5KVlWW7tc+fP5/VpUuXuF8qxaQGwOdcL5jXkYJK2w04Hkq6DqUh9tQQ9DZQgWSPnbjmkZJXmsqI+gC79a2hpqkJnWnn8V64kOf3APbX1uKSfQJjZQKYsPh8Lsx1K6GO+XIc8eUWc+SEOMD+/HzsvmULW+EiT8pDHB2qgtqV1NFkgz3sonPLHKle93BprCRUK5mg64oXcGaXCgiDx615GMGcS6WWq7HGmjO3zED4HR+EjvqyqG62HPvt0oTacplytcNhzG1bCdLNh2PajRAITin7jQXWjDKDyuCzuB3MLSSkvcPNoYqoJ9sCTdbZMr+aS9Y7C6zq2Biy6ouxzT6MK8GFI8p6CfpKKkCy7WpsFHLosJe7cPHUNpxwItdcQBSiH0xF57r/4L/mS7D2rWgpWgTvK7g8uQWUJMdhxjU/Yo1CRMFpzxAMqqOJtkuf4xl3UzKZe+iwoQ00NdSgOHw/bua7JzEIu7MQAxtVgFy3VbB8Hctdq3QkPl6CWa2YZ/1/lSDVfA12vY/9ZnrMcazrWRt1NEzRaYcrgrgLHP9+J7b1Yz5CtLui3wEHuAkbWoo9rs9rBF0NeZiseotX4VwdR7gt3q5rAz0JPTSdeRO2uUvzkcMYqPedlThy/iJu5Dv+r3i/1Qw6FZmPwuFncd7ze33Mi59bt27lvf9ExVFz1ahRIzZGkVIvHXdaslADFSIpKQk3b95kq2eJFi5cyPvAFlUkrR3p6EPS6xERMy57pDFx1grHh6lBS6YJuq19Cxevhzg+SR0qBu1hfjwAkXlpaRMRYrMZ84zrQrLzciyzKkJvwjR/xN2cgg5alVC7wzzscGDipkhVKT9x+LprELrUU0bdsRfwwDs38qZ5MwY6RhIqFVuh10Y7BLBLBaQj4vkyjK8rjUqmq7H6JaliZUorflewo6s85IwGY/BlniEFaUxp5mB7tKuvCe3hp/GCcT42/tsKDPQMbgn33Up3xrOZ6jAy6IAuWxwhqPnOercRKzsYQV5zLQ76cGbgfRHnBzXGf4p9MHDfB4h8P/ATcRX7Wyqhps4wDDr/gy28r+LKFBPGQIdjwslPeceSiwdebuqLPnUZA132As/Z2JuEUOYezm8iAQmzpVhixWMwEfZ4vao+Y2zNGeN9gq/MqeQwVyTl8QJMNKyDWvWHYMXbVMaehUlHyLm+6G+oApU+h3EnhPlIYT5cXq/rjDYa6tBc/By2gi8NIdKYUv6G7pKQMJyJtU8Ccz9eIpiPqfVt0EBSB4YTz+ARs1BQ5V0UYl9uwDx1GVRpuwrrBB9RfwmSwUgQHwTS19fnjSdF0YwZM/Li17Vr1+hUbn8YaqAMJD/nmzdv2OrU3+lNR2YJMTExgampKSsyV6F4kIOQBxMxubEiVKV7YdbsLmjQUBFKPVbihBtb4cfhji9nxsBcWgJ6gw/guCu3+HsU0UDTgpzw2foxHj54gAdED6/h0Kz2aKOnAempV/E4z0Af4PJ4Caj/p4smQy1xULA+qws4tqovOtSURMW267HuFSk3RyLu9SqM1a4DNdM5WPc6reBY1oxoxN+fhcH1VZhS6ELsYc6ZLVl93AKLkc0gbToDCw9d4X7jOi4fmYZBMrpoO2gXjnmye2DJfGeJdV3qQ0J2MCbtv4j7Dy7h4OJB6GrQC2Yr7+GRH099YnoEQhyewfrRQ27/D3Hj5GqmRCwNiZbjMPJi/lbeAhTVQJdb4TlrYF5wYe5hFxkJ1B+0D0dF2phZEtzgfXQQTOU0oNV/D64zMTqLMdD0J3MwtmETqDTfgYthSeTT6xvZyYh/OAfjG8qgrsEMbHofhcSEFzg3Wg860sbovc8Vznyx3uMcTo42QL16HTH0CFNCJcui3uEdU0IuioHmxPrA++0TPHn47Tk4v3k8hhlKo0avjbB8WaDh96/z8OHDvBhCRKZk44s3RdG6devY2Pblyxdu75TipNwaKJnmydPTk52eiYydJMb5zz//8D6EhYl0XyftEWTQNdGkSZPYMVzZ2dmsxIpUWzze2B/Nq1bAv/8w568yGqMPfxYpZbjD+fRodJWrhzZTzuNaUUbU/MBAczISEevzACcntUJHNWVoaGtDm5UmVGVqoaZMfUhOuwErX4GBPsa1yXWgU+s/VJdUhEre+kQaUJOvi1pVauMf883YxBlo7KuVGK1VB43NV2K/C1tpm5/sOGS/XY9xxvqQajofu5kPA7YkZL8bO4eromotGciqMqVT7ne0NLQgV7sLRqy5ideMkQjKcFnvtmNLf0VUqiQBKRWN3PVb9cKATU9h5RqLuHw/nI30uAB8PLcI05tIQ1dNaP9qCpCtWQkVm8/A+MvFbaCe+ELuoawkWk88i6v5N8glzQcxN2agg6o+NPruxLXYggZ6ITQxfwKOrCTWQMcZKKFeowXY8SkayUnPcGqELhoqtcCki2Hw4KuwCL2Dm3M6QFq6EwYfsgf7TVYUA81JR0qUIx5uHILBuvJQ0xI8A9rQUJKCZG0J/K/nNux4XfoMlCCIIUTnz59n4wuZOeZX5mIlsY1U875+/ZqNebRUWnyUOwMlg6TJA0Sy8pAhIj873IT0rCNVs0RktobAwEA2yxARqQIWZ2Le7IJl+wqozhho7X77cMBetLOTJ75eGI9uUnWh1nsXDnzmFn+P7xpoFiIdjmN7L3Wo1e+P4Tut8DU4mB2fFxLmAeut/dGrsRpkp17BIy+Bgd7H5XGSUKtshA6zr+A5t36uHPH6xCT0r10PFVutxVrWQKOR8G4DJjeQgGKzaVjygmcsa2YMom5MQF9tRci0XI5DXqSik+G9JdaPag2FrpbY++Jr3u8EuX/AwxUmaKtgANOR5/GcMUa2DfPdJqzu1BDSKjOw6sln+DLrOt9ci8Wd9VC//SKsvueNRNYJmAuQ7Y03W/qgq44WdAbsxrkPXrn7DwmF94fT2NmLOZZWozH8QnEbqC/cLk5ELwWmFN9nO/Y6sivmJ94Vrvu6o5mMBnSHHMIdxsC+GaghlJttxfmwVOQrT+ekMKX46RjVoCEUTXfjSngCcrKtcX5sQ+hKN4bZdic48nnZ1+M4NFQTkjLmGHXSiXnCGH5ooNlIi3iF6zOawlCjOUxnXYa1L/cMhIbA6cZKzGspizq91sPCunQaqDCkUyGJL2FhYRg+fHhe/CH6mY9+ksqTxLzFixezMZAa6e9TrgzU1taWLW2SHrS/0sWcZCaxt2e+gl2ZAMIoJORbV5jyQNKHHdjeqSLqVTfH8KP28ChQ4xiJAKtVmCwngUoNZ2PWA768RMxXdU4OsYhc+AyU+xMxZKeTo9BFohrkum3H/nw9glLhdWIkBhursgb6MM9ABZ2ITNFj7VvkzzqagKBHizGGdCIyXYM11iSAZCEr7BFODdWAimFPdD3qiWTR4kyiP+w2N4GJvgGMZtyGHVO0Yld5S9pAO0J54Elc9xO2XWaFl/MwgCnx1m26HEcCuHP6aIGVHQwhp7ECe74m5u4jwwWfjw5FBzlZaPayxH7WsNKAsMvY2lUBclIt0e2gD4KEq7VD7uP0EBXItRqJYcVloKQNlH2cMxBtdwgWHWUg2XY6pt4u2CacFWCNe3NVoKlnhh6WtghgTyQdyY/mY6KhIurpT8em9zHM0yBEZixcD3SAeeP6qD/2JmyTyCdFFD7t6o+e+iqQn34djwTtwkJEP1yIhZ0kIN1uNXa9Cc815fAftYFGIob5WJlWvzok9cZg+v3kb88bQ9zbbVjTXhZ1e63DxjJgoMIQExXEn8+fP8Pc3Jw3Vn1PZHIKEgPJJOMkNy/l1xF7AyWZPEhnoHbt2qFBgwa8D9T3VLlyZezevRtWVkzp5ytfg1B5wQU2m7qhvYw0dIedx3WPNJGgRchCevBrPJ1jDI16klAetgNXhfq4pDocxVXLgZh33gEfBR1G0omBTkZ7zYqo1X4utucrgQbA7eo09KtWG/+12YBNHwUBNguB1ydhbrO6qF1XB7Um3cCLvCpc0olIAioVm6PLcr5euHMxnJRASScia64COjMMPkf6opNmVdRgTGO3HVfCJCR7wvX4MHTTrgC5TvOx1iYhr22P7YU7sgOU+h/DFS+hCsvsCGZ/ZmhXRx7KHXbjeiJXLfyedCJqBBm1RdhqH8r1ws1hjvkSdppJQEqxC3ru8WCWM2ac+gCHu2pCukpzNNnmjEDu1LN9HuD2HA00kqqE/zWahnFFqcKd3ByKEsMwns9ALfqgdx0NtFn6nDNQ5jciHWC7til05etCcdDWfPcQkW/xYm0rNFH6F5ojD+D4l1TOnFKR8HgRZrWrin//k4Cs/kSsfcgYP/u3eOZjYyvGmvyHei2GYd6DGERzD0+a7U5s7lEdlZUbY8D+T/gi1HCa+XEv1nZj9qWhj577POAUz23E9sJtDT0JbTSewGegcUwheQ8Wa0viP8WhGHzt20dA0vs92NtfAbK1a+Jf863YXkqrcIuKh4cHG5sOHTqEmjVr8saw74lMUUhi48yZM9n0o5SfQ6wNlFSvjh07FtWqVeN9eAoTmRWFjOEiun79etFzyIobIcyX/tEpGN63K7qaGUBbqxHk+2zDeYcYxBao5+TISkOq33PcW94a7RvKQNqoK8y6MtszatuhE9pPX4XTbwMRwAQ9ljRfxF4eiSZSzLVvMgUWHxjPyjNQplQT9gavtoxAW219KDdsy+6na2+m1DR5Hib1bo72jaVQddwF3OOKw6meN3Fm0L+oU0EPreY/Rv4aSDIOdAr6VKiICgaLsFhoHGhWqD3enZqKaT3qQ0K/E1qb5x5z1zbGaK6uh7aTNmLPG6984waz3mzC+t4yqFBDE7otOuauz6hLh3ZoJGMI86EbcczGL2/sbNbrlVjYVA1VJGZiw/tgbhwo8+sp3gg8OgCmcpVRucUs7P9MOilFI/DNDqzqZQJ5mcZo0SF33z1GTsbwcaMwyrQqpFoNRd8TP+iF63ke50bqoea/vTH0kJ1IYglXPF9lho4V6sFwziM8ErRZZyUj2ccKz3YMRL/2DfLdw64m+mhSvwm6LT+C804RiBI4V04KEh4twOQW9SGv3glDpwzGgIH90JFsY94KHfUlUL/XHCy44Qwf4bbOpED42ezBsanG0G5sAv123O+Yd0R7HXUYdxiGqeesYMfcqrxLH/oKNssaQ/FfGagPO4q7jD/nN9AsZKV6we3SIow0IcOGTNCJO/6eE+Zg7LA+6NOkEqp0W4XVT/9uL9zighQUbt++nRe3SBPVz3SIJAUFMsEFaSOlFB2xNFCSqYPU85MhJHwPC59atWoFS0tLdqhJYmLe6LXyTdQXfLmzFeuWzcf8BUuxbNdVnHIs4rWJ/oh3ly2xcsl8LODGvC3cdhnH7QUjRjmy4pHm8RgXj2zFzovP8YEpmRbw5vSveHt2FyyWLswdP7d0DbY98oeD41vYPz6Iw89d4cWNA82K9YLrg904uPUMrtj4569GZMqVMR7PcXfXHmw99wqvA0R7rUQi/N05bFyxEIsWcGP1Fi7D6i03YBPMtkzmIyfUAfa3d2Pz+hVYvpg7NkYLmG2WrLqNpx5J+QJ7drAtXl06iX2HrJnzFO6lypxx5Ac8OmOJTYcu4JGXoBQeh0in2zi1aikWL8zd94pDd3HNPhx+b07i0v27uOWcP9tRAWLd4Pr4DA7svouHn8PzxrDmEoMA2xu4seswLrz0g5/orc32gcujQ/nu4fzFa7D5iBWcRG4j6WWb8GgOxjQ0hU7r7bju+xYPL+zCOrLNgkVYsMoSl+xiRDqdCRHyEpf2r8NS7jznL1iAhcv24px1gMg9ZEgORvCb8zi2+yhOPvzCJnMQvTe5BMPj6WnsWbE47/jXXbLDMycveFodxPGHr/HaTzxLXWlpaWyplMQ0MzMz3pjHp549e7KxkwyvofwYsTJQ0omHzGkpJyfH+3CIirSDjh8/HtOnT4eNjQ23FwqF8tNwBko6ESk124bz4d9SP1D+Lh8+fGBj3OTJk9lORHyxUFQSEhLssD7a0ej7iIWB2tnZsdUXa9eu5X0YREWyCvXq1YsdI0WhUIqB7CTE352EQaqaqK27HicCE0SyHlFKA1u2bGFjH0lSzxcbRbV8+XI2tpIOmJSClGkDJfX+ZGyTsbEx780XFZnLjzSYOzk5cXugUCjFQnYqkm13YN2wkeg55iweRqTkT6RAKVW4u7ujS5cu7OQVfLFSVGSS8adPn7Lzp1K+UWYNlCQsIKmqyEwFfDdcWGQiXGVlZQwePJidsJZCofwBsjORyQTY9IwsZPM3SlJKEWRMPOlkSWKjlJQUb+wUFhkzTzooift495+hTBoo6RVLkicXJQkCSeBOetKSJMuxsYJ+jxQKhUIhJkpiI5nRRUVFBdWrV2czrPHFUiKSvIE0fZFOSpQyaKBkrNLUqVPZRm6+GywsUrVL6u7prO4UCoVSODk5OXnJGWbNmsUbTwUiJkpKriQdanmnzBgomfGdZN3o0KEDm7Sd78YKtH79ejx69AifPuWfDZJCoVAo34eUSEkP3O/l3SV/I/1JSEwuzxN8lxkD3bx5M++NFBYZvnLgwAE6jpNCoVB+A1JFe/LkSbZ9lC/WCmvFihXcVuWPMmGgZG67jh078t48gUh17YULF7gtKBQKhfK7kNj7oyEvJEc46VxUHinVBir4CiKN23w3TiBSrUuqbCkUCoVSvJBcuz9KWk9q/0jmo/LWQ7fUGqiPjw9bD0/GbvLdMCJSD9+jR49ynuS9bJDmZ49Pzx7iITux8R3cePkFTsE0eTWFUhbw9fXFwIEDi9T/pDzl0y21Brpz507eGyQQmdtu3LhxtCdYqSUDqZE+cP1gi9dWp7F1gCbq592/mqjZewssbeiYXAqlrEBqBKdNm/bDERDERMsLpc5ASXfqmJgYLFu2jPfmEJFu1CRtHx2LVFrJQHrwTZyc3RX69RShoqYKFQUZyNSThKSkKuSUpmH13a8IyMg/hwaFQindkDH4JB3g98bgz5kzB9HR0cjOFv/3u9QZKLlBZIwRMUnRG0Om5yFfP+fPn6fZMEot6chMeIyzg5tCU6olGi68ibcuvvAPDEZwaChCQ8MQGpKAlEyaqoZCKYuQLHAkOQ3JAsc3ZRqZpINkfSsPMbpUGminTp0K3BQiAwMDPH/+nOZjLM0kesHr/Ch0kmqKBr0P4foPZtuiUChlD0EecjIxB1+sJj13y8NwwlJloCTB8fDhwwvNb2tkZERnTf8bJNjg2srx6Ne+LdtlnVV7M4xacwr3BJMwc2QGvsGTpfWh3mkGZh9+DP/n6zG8t1nuNm07oOOwWVh+lymNCte+ZybD/8EKrB0+BBMW3cbL2PRvkycjAxmJb3B/2SQMG7YKS+76IE5oUmvEusNuXy+M7cEdV9t2aNetPyYefY/3Ik2sOZ63cWPfGkze8RS2sa74ct0CC9qS7Zjzat8J/VadwxUPbmWGKNu92D+lN0aOO4kbHjEFZxeJe4+XB1dg2Kj12G0dCLJG0PNdWN9nOPquvYN73oJnlTngSCtcXT0Os2dsxOlPmYgR1G7FfIbj6fmYOHAqFh57i8/C34aJdnhzdDY6d2iDtux1Z67fiOWYdt0XcULrZcX5MPuYhJn9pmD+rjdwYZZ9qzxLRqznDZyYMAr9pu7HXlvBjJxZCH62HpZjBmHsrCt4Gp6Mb28WqR1wwcsNMzBm0GLMveaByNwJSnNJC8TXM8Mwo197tGOPqy3atu2ITt16oP+S/Tj8LgHJNPmX2EOa28g7xxerSf5x0umIZDYSZ0qVgZIvGjIzOt8N6dy5M27cuMFWH1BKiMxghL/cgaWjjKHeuAs6jF7D5sFct24t1k1th47NdaE7fBOO2icjmovYyV4PcGaUFLR09dHYdBjGjJ+LmevW5263aCiGt1FCNaOBGLDnNd6H5W6DzFg47jCGKXOfa9XfiJMhyUzYF5CK1Kjz2NqYtLk0g76lHSI4A415fxxXLPpg7IxJmLuUHBejldOxoKcOZBu3RpcND2Ab8c1Mcj7swLbByqhQzxDNuvXChMnzsWAl2W4l1o1tAv0GOlDpb4l9b2MQwxhU4qeNWG3KPH//M8LAE1/gIWzcDElvV2BZZyn8ozEJK54GIYkxyuiXllhjLI0K0hMx8Zw7crMvM9bkewwrTKpDRb49ZtzLQAhnMPEf9mNrVwlUUO+HEYccEcAuZ34o4BHOLGoFk6aNoDd0HRavZY5z7XD0NtGFhMEILLrqDi+uhiwr/CMezKgDxQr1oNXvPF6QZbl/YohFiO06TK1VkTmm4Rh8yZ9bngHXA23R+b8KqKq0DPu94pjj50gJhd+NARgmR969ptBcbYtA9o/ZiHS6htPTeqGbijbaD5mCeezzsBprlvZHR8kKqKPSGyMuRyCaVhKJPaS28O7du+wk3Hwxm+jx48fc2uJJqSuBysvL896IRYsWcWtRSooEp+M4NlId/9NsC7PNr+Ak3KSR7QarjR3QRLMWDGbdx11f4i6ZTIA9jLWN6kK6ggKUWy5gAr0nvk3JG4PI+0sxxPAfVDadhvl3IpkwzpCTAJcDHdBVsjZUW+zAhbAUodJeGtKir2FfWw3UrdsJrXY7IpIzsliH83hwdj2OMCWeb9MEMHt03oQx6hXxP7WhmHgnAoLCU47jCRweXguV/6mAajqjMPeSG4Jz/8SYhj1uzG8IbWVZaMx6ApvQTMaFfPFh/0C00qwD9WmXccVHuFNEJOw3maOfljIaz34I6xDOMVI+w+XoAJjU1EeHeTfxmtkNe0yBZ2BhroTGDXpj8ZNshLHHFIUvJ0djgJoEdGffxnW/3P1nJ7nAdUdnNNBSgvyow3gVwy5miEPIzXmY1lgRCqYW2PwijL1OOVGOeL5YHQaVtdB09DW8YpZ9M9A4hH3cigWqMqisMxnjbwRyyzPgcaInBshXh0LDDTjum8gZaDSiX23HxEYV8B959xR6oPkWB4SxNQZhsN3eG13/VxXKHY/grBe7AccLnDbXRnPNAZh0I5IaaDmCfLjyxWwyebeDgwO3lnhSagyUjOUkPWtFOw+RcaDt27fHpUuXuDUpJUJWAN7vGoiuGvJQnHId9/245UJkOR7CwSFSkNQdhZmXvRHPlJxC327ADOl6qCg7FhOu+rOVgfmItMfb1QbQ0+yMzmtskBvOE+HGGGiXuoxRtT6MOyIlPeAxTpppQ6K2GWugET+sxX+H6/3rQ16xI0x3OiKOc5Mcx8PY008eEjLNMOSUK9y/uQxL6qvVWNVVGvWazMeml6HMURE/PI0jA1RQ13gMJp91ZyyPwGwYdwe7ehqiAWMwk2+GISCvSjoe8cyHx9pWlaGjMxhTr0TmVo1m3sHeHipo0nAQ1tmTTw0GvwPY3FsDyspdseC6P9hvEMbGou33Y1WretDuuRrrC0xd+wnOm7tDvbY5um96AeJhOVFOsGIMVL+SLlpMegzRSrN0j/1YqS6HytqTMI7PQA024kRAKnuvkj8dxcmhBpDUbAwNpXqQa9AJzTY7ICSV/DUQrzZ1g3nFOtAZdAU3BbtieYZT1EDLJTdv3oSZmVmB2sMaNWqwoynEuRq31Bjopk2b8l18gWrWrMl2HKKUMCnPcHlmU+hL6MBsgy3e8g3ZDLyLO3OaQ75uC3Td9AquTAgOYwx0lpwUKjaci5kPw7kVhYh1xOddPdFEogNaTr0JR3ZhMtwPmKGXfDVI64zF3BOXcOnGDbbK/saNy7h8ZiEmNpBFDdluaENKoMIGmhOHiE9P8OLOTW79m7h2bguWdVWGomF3tN/rjPg8A92LnX2aQE5hLtZY+wuVWjmcDmJHb8Yspcww8tQXuJFl8fZw3NUVxnWV0WDkEVwjxemsBKQ9nYF+Rg0h13kzLgZm5W8fTYuBz605WNShBcy6L8Sa6xdx/exCjGlcD2pKJhiw8TpOXT+FbWM6om2L3hi26xUcY1hLZfCD353ZGKBUB/ptJ2P+sVu4mXctbuDmeQtsH2GIGv82QItFt/Ge2SInyhkvl2rAsIYcNNsvxEZmvWt525zDia2j0Vu6DioaTGfMTcRAZatCsdFmnAqNQ0LYE5wa0wKmap0wcu8l7JneBh1btISx5UcEsMXTTATZ7MfW3i2ZUnlnjFp7EGduk9+4iqvnFmOSgSx0DIZhys1Itgqcl/QIRLq9xr28+0V0E7fuvsYn/zjm84NSFnn37h1b4uSL4cRExZVSY6Ak6xDfxSdfMQ8fPuTWopQYyc9wcboxjKT1MWS/Kz7xdaiLtsLLNd2hVK8Vuli8xFfGQCPeb8FCdSlU0Z+GKbeChDqzcMQ5wXl3LzSVaA/TyTeY8hQhBR4HzTFI619UqioNeU1taOvqQpeVDnS0FCBTrRL+p9EP7fY4IZor7WUkhOHrfUssaaeEhmqa3Pq6zPqqUKxbBZX1BqLz/i9I5A4i10CNIaswB6ut/BCduziPHKcD2N5LE5LSvTDxwlfk5lOJQuw7C0zXl4Cc4UQsfJmKxDg3fFyljyaNWqLtGlt4C7wvj0ykRXjD7fIKLBvUGJr1taHLnIN09UqoUqUGJJV1oaWjC03dbug29wxe+MTmHSMx0ICHizBItS7q1JGDopbgOgirPnTr98eso2/ZDkM5US6wWa4JE6nK+K+2ApTJNchbVwuaqtKQqFQJ/zSbh2nCBnq8B/qrSUGz7TaccXyAk4vboZmyCTque4r34U54ubY1mhq2gNGmD/CP/1aXkBFojRvj6sFAVoI9F3KPdLUV2XtU12Q8pt2KytfJKR8xtnh/aDxMjPS44yPSQ8MmY7Hqlit3zSlljZcvXxaaYGHVqlXcWuJHqTFQMkE238UnBkome6WUMKmvcHNBSzSW1ETz5VawDuWWC+NzHZcnN4CMZBv03v4W7syiJLcL2NtFClJKvTBwnyNX5SlErAMctnRGI2kztJ51nzUAUm3pfqADuknVglKT9Tj8NQABkZGIZBWEII8TsDRVRR3Jzmi12xnRxLByouF4bByG6StCudN67LHyzF0/KhoRfi9wYWx9aDUxR9s9zojjDC7XQA0ZA52BlVaBBUugjruwpYc+pJRnYY2Vf57BZkS8xLXxOtCUbwmzTbfw5ssxbDRVg2HzGVhiTboOCZGTieSABzg9lvn4aNQNvTZZwZk5h0j3I1jVXgH6ul0x51YkXMMj4XV1PCYZMqU2w+XY9YkxanYHgfC/NweDmRJo076WOPgpFjHRgmtBzi8G0XGJSElORUZmNtvWmRnxCc8Wq6NhFXUYDj6Be8x6YYL1I73x9ekaTFeSQmXdKZiQZ6Dp8DjaHQNb60GrywJYLmDuRwOmhD/pOt6n5zD7dcfLxc1hnGeg3GY5kfB5thKzVORg1GM9ttqQ3whFpN8ZbG6tCkPdQd+vws3OQEZyHKKiBMfHKSoOiWmZQm23lLIEyZdbmIGuWbOGW0v8oAZK4ScnFl/PTMbIxrKQHH4YZz4XbHiMe7kR63vWgXSLBVj7OJA1ksxgG9yZrgCtygZoNeMe7HJXzSP+82ns7aMM6VZTMPGyX675cJ2IukjUgVrLfQXHjqbcxZH2mpCoY4ZWe10Rm8mE2bQXjEk1gEZNbTRf8wEOwiXklI+4O6UBdIw7ixjoQezuz5QwZbphzAlHuIoUj8PvTMf0djKQ67wTJ5xivpWe00IReG4EuuvooIHJQCxfMQp6yqZoNfkMHooea5gtXlt0QuN6jKGNOYprEdzymCvY1k0ZRgb9sOI1wCagzHiCm7ObQrc6U3pc8ghPWW9LROSnHViiLQ3D9itgWYQpbQUGql+JuRbj7+IjtzyXdMQ778JSNVm2DfRbJ6JMeJzoj7FG/6FS9dqoW6M6mk85hTNfOefLcsGzBc3yDDS3Cpe55x93Y3t3SSjX7o/JZ74gIHcxcy4PcLSTJppp0TbQ8gg10L/M96pwHzx4wK1FKUkyPp/BseHSqCmnig7rnuGtsFk4HcOOgdJQUFGD2WZ7vI3kXCqDKY08n49x2kyJR2kwBlz0yjULQuhz3F3cCvXrNUDLlXfwJI6zqKw4OO9vzxhoLaiYbMf5Ar1wr2JvG3XUYQy05e6viMnKYUoy73FjSnPo/KMBlXlPYStoo42wx8v1jdBOoQoqqfeH2b4vSMirwj2Kw6MUUKViddRW7ISxu18gr4+gzyVYDlCAlLYxBh71gYug4ZTAlCqz4+7h6Kg2aMJsKyUpjQpq4zH9jFOBEnaU7S5YtK2L6spDMOGsG9emlwYEnMHGzopopNcLi55kIow9pjREvNyMlS0rQ0Z2FGaec0cEcpAZ7wz7tR3QSlkSSv3W4PgXdiBMLqmf4XV7E/rNOoZdL3KHpGRHOuLZIjXoV9REk1FXeXrhbsF8FWlUzNeJiDHQk/0xXpu8ZzVQwXQZdr0KzxvKkpPmjCcLmsKosQkMLewRyHZlDsWHHf3Rv640Go+7jlu+GVwnsXSkx93AvvbqMGYMdCI10HKHtbU1NdC/yYYNG3gvPulEROrXKX+B1AiEO5zDraVtYGxsCA2Tjuy8rB07tkdbXXUYte6PSade4F1ottAgfMYZ0gLh/ngNpnZqDIl6BmjRltvO2AQtDEdg+vEneO2X+G2bjFg47WyK1v+rgLr6m3Aq3zhQxkCjLmC7UT38808LNNriwI0DZUpqX87iyCQzaMroQd+kHfsbnQeMxMApM5nfloGWSXs02eLIlFjZHTEGegD7hjZiDLAd+k8cirHjB6BdO3JszLaN6kGvXX+MOPwWn6OJvYiSDI9TkzBGiXku//cfdCbfxE0fkVJ5hA1uLTKGfM2q0J58Ddfy/s58Dvgdx6qWtaCu1BGz7qfnjQNFtA1eL9ODZIXKUB51DLfZqvIsZIfb4c2x8RjdSRe16ndEyw7cNWzXA+YjV2HROVu8880dIJTFrPtoliRUKshAd8AFWLF7EBCLkHfrMb3uf6ggNxJDL38bB+p2qCN61aqA/0mNxPhHAQgSSm6Rk+qEBzPqQ0tDH9rrHREQz/zxyy4saSkDiTpdMOl2EPzyfiQdabFXsKNpPejIdmPHgUZRAy1X2NnZFdqJiBpoCUBuAElCTAxT+OKTKcv69OnDDtil/CVi7fDwzHasWbGM7VHHavUenH7ixZRJCiOGKfncwMn1q7BCsM3Kvdh/3uXb2EsB2WmIcrqGmwf34/gle7glZwoZWBayUj3geOUEDhy4jssOEUJZblKREmCNW9s35B3bqj3nce5jDPzsruPh42vM+pFIyyuB7sGOPiZQUpmPrTav8eb1eewWHNuq9Tj25Ct8vzlPAaKez8UiY8bkJc0w9bYvArj95hHnAqf7h7B1/3Hcdo5DTF6/G+ZsEr7iw42jOHf6Nl75ZyNJ8LfsGOZPD3D66HYcvPMRn/PGfBJC4GdzBhtWL8NywXGuPohddzzzdYDKTomA/6vjOLP7JC488mCvb95PMx8gyWF2sDl+GLtPPcMTT0FddzZiv9zCncP7cPyCk5AZcmRFwd/mAs6fu4QL9tFITGMc0f85Hpw8gD1nrGAXkUHK1RzMPUrzguO1Ezh/8h6eeqYgVfTaUMQWkixhwIABhU51Js5j+EuNgRLc3NxoIgXKH+NbJ6KZWGEV8i3zTpGIg8v+AegtVRt1THfh3Ne43PZbCqWcU1giBWKoxFgfPXrErSl+lCoDJan8CvuK6d27NzselE5hRvlVcuy3YlNHDVSpPg4LHnmjyLORZiUjxesg1rRURO3KrdFmnxNcBe23FEo5hUzqQZrXBg0axBuzSZXux4/5u7SJG6XKQF1cXNCtW7dC55ojmf+Tk7+1jlEoP0OO5zVcXjIWPXvvwFG7EKEUgz8gPQZRT9ZhQf+e6DH1KG4HZQu10VIo5RMyI0uHDh14YzURyUz09OlTbm3xpFQZKMnuHx8fz6aF4rshjRo1YttKyY2jUH4a5vnKyc5inp9sZH9rJCwCZLtMZGYy29KCJ4XCxmpnZ2d22jK+WP3PP/+w8drW1pbbQjwpVQZKyMzMxNChQ3mrckleXCUlJdy+fZvOCUqhUCh/ARKjnzx5AnV1dbaTp2icJrG7S5cu8PX1Ffs4XeoMNDs7G4GBgZg/f36BGyMQ6Wi0Y8cObgsKhUKhlBSHDh2CoqIib2wmmjp1KoKCRCYKFlNKnYEK2L59O+/NEYhMuk2GvZAqXwqFQqH8WchczGQ0RGEjJQQis2qVF0qtgZIORcuXL+e9QQI1adKEVuVSKBRKCdGmTRveWCzQggUL4ORUYA4+saXUGighKSmJzZErKyvLe7NIe+js2bOxdOlSdggMhUKhUIqXDx8+sDF23rx5bLsnXywmyy0sLBAbW2CKBrGmVBuogGPHjhXa20ug1q1b4969e9wWFAqFQvldSBKEwkZFCIsMMST9V8obZcJACZaWlrw3Tlhqamq4dOkSUlNFcpRSxJbMxEAEfXyIVw6e8BSd4PMXyclOQLTzM7x79xGfgjNBcteXDrKRGPAJH5/fx33HIAQXSKWUhUR/B3x4xvzdKRihdLAq5RchPW3JaAcdHR3eWCssUhNImtsSE/kmDRZvyoyBnj59GlpaWrw3UFhk8O7evXsRFVVgJkrKb5GF1DB3fHr5AlYvXuAFJ+u3DvgcnoVia4lmDNHN9iVeWn37jRfWr/HBNx4Fkv9kJ8H3wTrMbS6PljOO4ZQbt5wktE8OR7D3Z3x4/xavX1p9O2Yra1i9+YjPwcIzvgiThhSvG9jVQxWmPaZimU1KXi7dAsQHwO/TR9h/coR7WDKSfnN4ck6sH3wdmP05OsMzIlUo56+ADAQ/WYPlHRRRo/MabHgWJpTEn5CGoIcr2QnGq3dZjy3WEUL5aimUohETE8PW+onmJecTqbo9cuQIt2X5o8wYKEmeQAblGhoaQllZGdWrV+e9oUT/+9//2GEw/v7+bHdqMuiX8hukRiHM/RwOz+2JpoqaUNfUhCYnDUNTdF5+FbecohD9OwX/zATEhjzBw92j0VVLF2oa335Dk/kKbjJuG/a+CEZYYlbePJ05wbdxY2EHyKr0wKij9kLzezLW6LgbK/s3QNUakpBR0fh2zBoqUFNVgu64A9hnE43IFBGXSnCC1/FhaKxugmYzLsKK+agu8PSkxyI04D1urOqJzjUroZaMKnrudsC7X23+SYtGiP8rXF7cGe2rMftT1MPAI25w4OlgnhNnC7udA6Ar1RxtF93GK5FrnhP7Bu+29YOWlAk6LL+PN9RBKUUkODiYjZmkNEnG3PPFVqJq1aqxMbhBgwZsetXyHF/LjIEKCA8PR2hoKFatWoUqVarw3mAiMpiXdD4iVRAknRTpkJSeTtN//zTx3nBjDKWPoTRUzSZh2Q1ffPb2ZQdJE316tg9bhzTFgPkHcMSxsKLaD8hORszjlZjXSRqKhh0war89rF2//YaH812cmt4GQ0fNwsqnsUhkfyYHEffnYXE/VciOP4PrLil5xkqmHoP9ZsxoqYeqGsOx+K4LHLh9+bpa4eOegWimI4U6DcZiOFNsZTw5j2TnCzg7SQnyfZZi4d1wkWnNspAZ8wkeZyajYzNtyElURzXyvNWQRpftH/Em30wqRSETmdFMafjoWJgaakC2bjVUZfb3T11V9N7/FR95R2jFIdxuOxZoyaJhx5XY9EG07M+Y+7stmKvO/N18HbbYFZyYjUIRhrRdvnr1CgYGBmzMrFq1Km9MJSI1fAsXLmRjMInF5b1wUuYMVADp7XX8+PEiVTOoqKiwaaUmTZpEc+n+FEHwf7gcUw0k0aTHUmy0CUZ0gfclCXFeDvjqGYigvJmzf4YEpHmchqW5MowNe2PKRXd48NyitCBneLi6wSs6k7ExggesV5qjp6Iu2li8x8d8meGZHThsw6w2xqhnNB973UnlphDRjrizQBv6VWSh2ecMXiRlc0YZBY8bCzBNTQoNxxzHSVd24TeyXfDx8Gj012ZKsb3WYc/+7dg+XIMpgSqj05b3sP3ZEmimI97sGYKemurQ7G+Jgwc2Y9NAZdSQ00bPvc6w5zXQHKSHvMW9qarQb9wVvXd+Rhj3l1xymGtlg9uTlaBn2BP99jgjnPsLhcLHmTNn2P4jfLFTWKTAsn//fkRHF1NnAzGgzBoogYwBJT1v9fT0eG+4qMjXE5nVxcPDg9sD5XukeJzFqZFyUK5kimH7HeDNLS9OMiPt8cbCEMZVlGEy9hJsilSITQd8T2JDzyZQUhuKxY/CEJSvoJVroLPbGkGy8Sxs+5SUb/5M0nYafX0UBqnVg0yTJdjrmcXYOEO8Fe4u7w5tyVYYsOMtPoo2kubEIML1NZ7ff47XHgnICHmKu/P0WQNtv+ndzxtodhRCv9jg2X0r2HonISvwPi5P1UI1WS103fW5EANliPeB64HOaKWiCZ1Bh3EvSuQDIc4TLvs6ormyNuoPPYoHzMnTuheKMAEBARg+fDjMzc3ZAgZfvBQWMdhr167RDpoilGkDFUDq4cmDwHfj+dSpUyeMHz8ee/bs4fZAKUg4vp6cgMHS1VHFeC12von8A0E4EeHv9mJlwxr4T24IRp10R5HySmUnIvXZIowxbALpFhY4E5Qq0iHoBwbKrB1yrg/6yNSBbLO1OB6Sk7u9+1HsG2SCuoqTsPixz49LbqE3cXaKLmpKK6OD5S8YqCgBl3F4tDqqMgbabfd3DDQtBAm3pqOHVnXUbDENWz4xnipcM5AWjLgbU2CuXh21WzHn78SU88t3TRuFg3T4IbGva9euvLGRT+3atRPrOT1/B7EwUAKZpWX16tVsqikyDx3fgyAqst6SJUuwZs0a2Nvbc3ui5OIGG4veMKuiBs3pt3DPryhdTCMQ/ukaDi6eh1nTp2N6YZo1DyvP2sIuLgIBz5ZiSj0ZyHW0wKYPRfy6TY+Bz8k+6CWrCjXT3bgakyrS2/RbFa5Uk8U45MctZklBwpvtWNi+EmrUaYJOy9/BnSn1En9JtF6BpSaykJadjXWvAkRMl4egmzg3tRgN1O8yjowpgoHmMD/kuB0zW9ZBHd3emHozHmHCF4D5e47DFkxpVgt19fpjxu0ERNAiaLnly5cvbIxbsWLFD9PwCVSjRg3MnTuXjalv377l9kQRRWwMVBhSsiRfWaSkyfdw8ImUYEnX7fPnz9NqChZP2Gzuh/6SWui80gpW+RvaCiEEwW+PYcOowejXuzdbXc6rfoMxYfcz2ERHIvDFSsxVlkOLgftwxIXbzY9IjYTDdhN0UJSFTu+TeBiTLtLZhxgoY5LmDVBNviW6z16H1ZaW7Fhiy6WTMKm1OgzadEd3y2u4K1QvHXRrCqYZ/QeZhsux8304CgyzFOVvGShzZDm+J7HRTBmKSuYYdMoPAfkONhFZ3sexpq0iFFW6YeiZAAQzl4RSfiDjOK9cucLGtD59+vDGPD61bduWjZ1bt27l9kT5HmJpoAJIWycJ2KTtk+9h4dO///6LLVu2sFUWRNbW1uV0/lF3vLLsi+411NF49l08DPjFHrbfJRLeT5ZhirQMtLpsxna7Io4mTYmE4w5TdGhugEZzHuJTgmhP0xTg0w4s6amDitXloNKwOZq2aMFms2ph2hZmvVbg4LuoAiXMkJtTMd1MBgr99uP8lyJMt/3XDDQROd7HsK6jIhRUurIGGZjPIBOQ5XkEK9vIQ0GtB0acC0KIaHsuRawgvWFJT1pB3Nq1a9d3e9OKigz9I4WIz58/c3ukFAWxNlAC6XVLet+SXrhFaSwXVa1atXDq1Ck4OjqyY6TKD354v3MQOlWVQY3eh3H2yw/LYwypSI32hevH97B9+5at+uGV7XvYe4UjMi0WQdZrMV1BApUM5mDugyIVc1kD/URKoPqa0B9/HW/jMkXGagq3gc7GdsdkFGWESfBNpgTaug7kOm7FMcdorrfvd/ibBup7AhvMlKCo3AWDT/kjQNRAGYNd3VYBiqrdMexMIDVQMYWMcyex6eLFi5CSkuKNYd8TySJEYuOoUaPKXR7b4kDsDZRAxn+ScaBkPCgZF0rGOvFN2F2YSPdtkrihe/fu8Pb2ZsdAEcXFFaGUUmZJge/tRZjVWAI1DWdh1eOgImQb8oXPw/WY2NQAOhoa0ChMOvpovegKbgflINntHI70VoCkSjf03WsnMiSjENKi8HlvW3SuJwWNtvtwPTpNpIOTkIEazsFO5/TcXrY/IOzBLMxuVBXSSnOw8XXwj033rxkoczZMCXNVBznIqXbD8HPBCMpnkAnIdj+Epa1lIKfeE6MuMM8rbZUQCxISEvLiD+lJO2DAADY2/Ww8IzGQ9Kwl6fpIbExLoxk3foVyYaACSDUH+WIjJUkyswCp2v3Z6l0ykSzJwkE0evRo1kTFNUFDVrgVXq5tC1W5emg04xzuBGSJlPQ4MlOZa5CBjOx0pCeEI8jTA25ubt+RO7xC4xBPHDnZE6EXx6GdVg1IdV6EPQ4ZxP4Kkp2GjHTGKEmxMDMekTcnYohWQ6i03InLkfydiArvhctPht02WHRpABmFWVhj7f/jbcLu4OL0+oyBqqDjFjt84E0FmoOc7Ezm2NORlpGJzO/VhAddw/FxGoyBaqP7vq9w4r0QDJmRyHq5AsMMq6K64XAstcpCtHAtdmYEMqyWYqDBf6jRZBRWvMxCTHlshRAjSIwhtWlksmpB/CGlx+9lDBJVpUqV2HhH9kFiYGBgYDltnio+ypWBChMZGYmPHz/i2bNnbAYOvgfuRyIPI0ktSOYlJVUo4kcaU0K8hyMjakJDUg66I7fgpEv+MYfZYZ/wdlc3zN56GMccuIU/BfMCx3ng8UojtJSpCbl247D6WSJChN/rzAR4nhuF1WvnYa11GlIYI8122oJZrZuinuEC7P6SiPx1AcRAtzJ/b4y6DWdiaxENFAFXcHpiO9RTGIgpl78y5ekfEHYbF6bpoLqUEjps/shvoCmeCLy5CAO7tIDRxD04as8cO/enAgRdxbExaqgio4lue13gWJiBJgcg+OxwdFKWhqzZKhz1It2KhEjyReDpIWinKAN583U4zpxIYbuilH5IKZHEGGNj459q1xQWySN+//59NuaRDEKU4qHcGqgw7969Yx/SH03g/T2RqslevXrl6fHjx9zeyzg5TInQ8wms94zE0I56qFu/DVq0acNOrEvUumNn9J69FrsfOuFz+K8PNswKtYPDxSVYPrABJHVNYdjy22+0adsOnUbNwMpzVnjLlIIzmRIdwi5iR/8GkJdvj6EnPeGR30GAjxsxyVgLlTQmYqNdIoo0tUDqGzxZ2wUNJLTRYvE9PBKtT852w+fr6zG1Yzu0I8fVTBsadXLvfyX5hjBowSzrMBL9VtzFG0GjY5ITPPd3gWJ1Zr32K7DNXqgUn+kC+4urMbFtG7Ql+2uqCZVaufuromSIRqbMMrOxGLzuMT5GfKuDzYlyxftNRjDSMYbJ7HtwYL5ohL83ciKd8XZjIzTUaQbTeQ/gmM4cOvc3SunHxsYmXywpyowohYnkBCex7c2bN9zeKcUJNVAhSHXs0aNHsW/fPlYTJ07kfSiLIiMjo3xjH8mktGWbIHi9PIstG9Zg7Zo17LgyorU7juCsfRLift07hUhEkstdHNy+HuvXfvuNNRssse+JL7zzilHMj2V8xbNV7dFKSgbqoy7irrdwIx9jsJGf8OrmZRy7ZINPkRkis5YURhTcrs7ESLVqkGq9EhueR+c3npwQBLy/jmPr1+Zeg3UW2LRtN/bu3YOdmzdgAznmdfuw/ZI93GO5av34D7Df1gVq1fVgMvcaXgmXUrMD4fPmCg4LznPdJlhu34N9e3Zjx+b1uftbfxC7rjnBm63vJmQgwecajnSWgX6zsZhyLVyk+joD8R6XcdBMCnotJmL6jUiRv1NKG6Tnq3CsMDEx4Y0pRdHIkSPz4tehQ4fYmjbKn4Ma6HcICwtjAxuZjf1Xq3kF6tixIztju7AePHjA/RLl58lE1GsLrOukiapaU7Dkga9INe6vkexzE7enNIKUbFd0sbCBD7f810hH9Jud2NtBC8077IClVXDRMi19j5xABN6fj56SqjAcfADngrjlAnL84Xd7DrrXVYPxiKO4GMItp5QafHx88sWBbt268caMokpbW5uNUSRRQvkaKfD3oQZaRG7dusXmjhToV4bEiIrk8CVDZM6dO8fq/fv33K9RikTKV3zYNxIt5NTRaukN3CuOj+2sMMRarccQXUXo9FyJPW4ZyPzF0nV2yH2cmdcexvJmWHTVB76/XY+ahfjPx3ByhB4qqw3EkEP2yJdkifzd8QiODquPiuqDMeq4I2g4/bt8+vQp7/0WiHQ+5IsHRRXJJiQciy5dusT9GqWkoQb6i5CZYEiOSIHq1avH+7D/jExNTdlOTVZWVnkq+1W/f5Y4t9u4sbQfZm2/gZvFNEdARrwzXm8djkXLLLHHNgXpv2h8WY4ncGTtbPRf8wivQoqjG08GQqz3Yduk3uix4Q7ue4pWzqYj+MVubJnUBz0s7uGxD83fV5KQdKDC7y4RqXnie9d/RU2bNmVjzd69e7lfpPxtqIEWE5s3b4aurm6eSC5JvpfgZ0WGzdy5cweurq4FRHvT5adYmmFF+K3pDpmNi/2YyD6/t9Mf/Z3y25AhJaLvIsn+QyZs53uHf1VknKYgnpDORGQIHqV0QQ20mCAvFemEJBCZdJYkqxfoZ8ZriYqYce3atQtozJgxbCeBqKioPJHfplAov098fHy+d0ug06dPQ0JCIt+7WBwfzGQ/gnhBOhKRzkWCeJKYyDvImPKXoQb6hyAPPclaJNC4cePYfJMC8b1APysyDlVdXT2fzMzM2BzAZIC0qCgUSkH43hWS5YdkHhN9v4iIwfG9jz8j4VhARIaqkGkZBfGCljbLBtRASwjyQpCxWAL17NmT98UqDpHclqQ9VVTbtm3jjoZCoRDIcA++d4UMQ+N7t4pDZJYo4VhA5OTkxB0RpSxBDfQv4eLiwk43JKxp06bxvnDFJRkZGQwcOLCAhgwZwvYWpFDEEdJGScZH8j37CgoKvO9KcWns2LEF3nNqluIDNdBSREhICDsN0Y4dO/JExneR5M98L2dxqkOHDuwEunxasGAByNg1CqU0Qmp3yMT4fM8uUZcuXXif+T8h0tlH+P3188s/0IgiXlADLeWQBPik6lU0KBTHONSf0dChQ/MFBj7RITeU4oZM1cX3rAnrd8dV/qzk5OQwe/bsAu8kkbOzM3fklPIANdAyChmHSqYyElbDhg15X/iSEhnzdvXq1SLL09OTOxtKecHX15f3WShMpCMP37NWUqpfv36B94y0m1IoBGqgYgRJwsDXIYKouMalFqcGDx5coDPFj0TasyilA9Lbm+8efU9k6BXfs/A3RWY4IcNG+N4bMgabQikMaqBiBl+X/MzMTHb+U74u+QKRuQL5gsuflmh3/h+pZcuWbMYX4SFCv6OIiAjuyok/ZMww3zX4FZGqSjJkiu8efU98z8CfFhmDTZIS8D33RFOmTEFKSgrvu0OhfA9qoOUEMhkvCaB8IknzSU7NWrVqFap//vmHNzj9DZFB7CR1YnFo0KBB7Oz+ZNC8OCs6OhqjRo3ivQa/IjIWsjQ9EzVr1uR9bon69evHjuvke/aJaJICyq9CDZTCQtICCqcmExbJiNK5c2fewFXWRUonZDYL4TSM4iqSeIPvGpR1kTljSa0E37NLRHq3Uyh/AmqglCLh5uaGFy9efFcTJkzgDXBUVL8qUjPC96wJi4ypplD+BtRAKcUGmYvwzJkzRRYZM8cXNKnEV6Qmg+9ZKEy0pzalNEMNlPLXIFXDwhMLF0UlPeaPqnCRDFZ89+h7srOz4+4+hVL2oQZKKVOQDk9kppupU6cWm0iat//++4/XJMRBpPcrSYTBd+6/qjlz5tAsO5RyDzVQSrmHDFcgKRNJlfKflrGxcaG9Vxs3bsy7ze+KZMghwzQoFErxQg2UQilBSDLxwsZDnjp1iluLQqGUBaiBUiglyOXLlws10JMnT3JrUSiUsgA1UAqlBLlw4UKhBnrs2DFuLQqFUhagBkqhlCDUQCkU8YEaKIVSglADpVDEB2qgFEoJQg2UQhEfqIFSKCUINVAKRXygBkqhlCDUQCkU8YEaKIVSglADpVDEB2qgFEoJQg2UQhEfqIFSKCUINVAKRXygBkqhlCDUQCkU8YEaKIVSglADpVDEB2qgFEoJQg2UQhEfqIFSKCUINVAKRXygBkqhlCDUQCkU8YEaKIVSglADpVDEB2qgFEoJQg2UQhEfqIFSKCUINVAKRXygBkqhlCDUQCkU8YEaKIVSglADpVDEB2qgFEoJcvHixUIN9Pjx49xaFAqlLEANlEIpQW7fvl2ogRJzpVAoZQdqoBQKw8GDBzF//vw/ru7du+Off/7hNdDOnTvzbvO72rVrF3eWFAqlOKEGSikzODk5Yenkt5sAAExhSURBVMeOHcWu1atXo06dOrymJg6qWrUqli5dynvuvyt7e3vu7lAo5Q9qoJQSJSMjA/fv38fVq1d/Wr169eI1CKq/J3Nzc9579SORquyUlBTuqaBQyibUQCm/jYODA96+fVskkarSatWq8QZjqvKjihUrslXLfM8In+zs7JCVlcU9cRRK6YAaKIWXyMhIeHt7/1C3bt2CvLw82zGmKPr33395AypV+RNpC+Z7RvhUr149XLp0ifcZFFVERAT3FFMofxZqoOWUtLQ0xMfH8yo6OhqjRo1ig9aPVLt2bd7gWJZUs2ZN1KpVS+xVWOelsiJyDnzPoKgGDRqE0NBQ3mebKDU1lXsLKJTfgxpoOWXRokXQ09PjVf369VG5cmXeICZuatOmDVs96OLiItb6/Pkz28uX7xqIm0j1sK6uLu+zTTRz5ky2LZ5C+V2ogYop27ZtQ/v27QsVKXXxBZ/SrKFDh+LFixfFqq9fv3JXTPxxd3fnvQa/ozFjxvDeq9Is0gbftm1b3veCaMOGDdwVo1C+DzXQMsrZs2cxcuTIQiUjI8MbPP62pKWlsWfPHpw5c+an5eHhwZ09pbTg4+PDe69+JNKZTElJifcZ+duSkJDAsGHDeN8roqNHj3JnTynvUAMtA+zdu5cdxycsdXV13pe/pFW9enW2OtjCwqJIotl2KAKuXbvG+4zwadmyZahbty7vM1jSUlBQwOLFi/O9jzt37qTVwuUQaqClhA8fPuDAgQMFtGbNGnYgPN+L/KelqqqKqVOnfldbt27lzoBC+bOQmgu+Z1BY2travM/ynxZpdyUmz/cOv3nzhjsDirhBDfQvQF6ou3fv5hNpe+F7Mf+UGjRogB49enxXJ06c4I6YQikbkBoOvmdZWI0aNeJ9J/6UWrRoUeB9t7Gx4Y6YUpahBvoHId3lSaqzjx8/5om8PBoaGrwvWnGLVK82adKkgJo2bYqnT59yR0mhlC9ev34NU1NT3neDSFlZmfd9Kk6RsdMkI5NwbCC9wZOTk7mjpJQFqIEWE4mJiQgICMgnMr8j6e1apUqVPBXn8JBKlSpBUVGR7YzBpzlz5rDjPflEoZRn+N4JgW7evMn2MeB7p8g7zPcu/opILBCODf/99x/27dtXII4kJCRwR00pbVAD/UVIWjHytSjQypUr2a9KYRVXkgHycpGu96IiPQWDgoIQHBzMK/riUSg/D3m3Q0JCeN+pCRMm8L6LxPz43t2fFUkWIRpH5s2bly/WZGZmckdK+dtQA/1FSB5P0pYiEHnw+V6I35WsrCyuX78OR0fHAiIvOYVCKTnCw8N538U7d+6wne743uHfFWmKEY41pFcypXRADbSInDt3Dl26dMkTMTa+h/1XNWnSJDx8+LCAaGcDCqVsQJLei76/JNMV3/v+OyLpCoVjER2X+vegBloI5OGfOHFinjQ1NXkf5l9V3759ceTIkTz5+/tzv0yhUMSF9+/f53vPiYYMGcIbE35VKioq+WIVacOllAzUQDnevXvHjrkUyMjIiPdh/RWRdGdk0mZhkfykxUrsFzg9OoLVq5Zi8bxZmDV9Oqazmonpcxdj4zUHfE7k1qVQKIWTEYE4p1s4vGsTVi1diPmzBO9SrmbMZmLEdlu4/GLeBE9PzwLxgNRA8cWOXxEZoiYcy16+fMn9MqW4KdcGSnrOnj9/nh3v2KFDB96H8WdUp04dNtXX2LFj87Rw4ULExMRwv/gH8T6F/SN0meOoBZnGHdChVy92AupePczQs3FdSBl1g/nye7jpEoNUmjCFQimcRCd4H+4FlZrMe11THXrteqGn4H1i1KVFczSWbYTeiyyx66k73Ivhw5R0Dlq+fHm+2EE+vKWkpArEmZ8VGbJDYhxJoVgisagcUa4MND09HdbW1njy5AkrkjSa74ErqkiGIGK8nTp1YrVu3Trul/4Cvmewb3hL1FUbjgVPwhHFLQYyAbfTWNtbGrWrqEN+3C28D09HNvdXCoUiQtIXeB8dAH35ylAYsgcXg7nlAsLe4vm6ZuiiXhGV9PthyKFP8E3CH3mntmzZkhdfOnbs+NuTQKxYsSIv/j1//pw1bsqvUy4MlLQvkumcSPsD6dHG92AVRWTcJakeMTAwYFWqpkXyPcuUQBkDVR2COff8EcgtFhByfTTGaFSDlNYCbP8UiVhuOSE91Amu9oLZ/23x9r09vgQlIKGwiJAZhQD3T/hgK9jmHd65RyCYfReZ65EYAh83T7j5RSKO8e8cdiNCFtITwxDs+hWezN+iCkzLmIXsWF98tmf2J9ivgys+h6WRvbJ/T4sLhM+Hd/hA/m77Hu/tPsHJyQmf7Jj/s8dji3fvXeAdmYwUdhsRMlOQEuEFTxd72H98B1v2d3J/672jD3yiC7mfOXGI8HHGx3fc+rYf8NE9BIFM4MxHOnPdwn2Zc49GdFYmslND4ffeFu+5bey++iNYdJs8cpAV6w/3D7bfjsuWOVcnVwQVWspJQkKgHRyZ3xDcP9t3H2Hn6ASXgGjEZGQiMzkUgQ4f8ZHd33u8+5h7zRztP+TdQ9t3X+AZnoz4pBj2PF1dmOOME1x3AWlICveDt7Mrs+9YxKWJPiCZSA33hku+438PexdvhBU6BWcmsmJ84WT3bRtbOxd8CklDOlKRFuIBF8G+mPOy/+SEz46fYJ/3G+/x6WsQQhPTkRDpA1+Xr3D3iUZ8do7Qc0dIQay3G1y++sE3Jg3MnwuHGOixgTBQqAKFQdtxxptbLkxGNMLvzcEYw6qoo9cNk65Fwz/lz3+WkrzTgvijr6//W+NSSTzbvXs3Gxt9fX25X6D8DGJroCQLUFhYGDuFE5kHsUaNGj/9sJEJiEkVCpnZhGjw4MHsbPek6peIDLouNeQZ6GDMvuML0S5JWW/WYHELKdRRHIqFT4IQxCzLTo1DnPtz3FrZHD2MNdgMSRoaqlBXkIH28E3Y/DIOKVnCBpiN7AQPhFybhf7tGkBOldtGXRtK3RZg4Z0AJDCGkfZ4KXo3bgmDoftwM5zxFG5rIAZ+1uuxQFsDLQfvwcHPQlEsJx0pPrdwe003qGtqQkWd7FsZSlpNoDDhLG59SUJ6ThKCbfdjlZE+jMjvqilBUaYuO4SorowSlNTINtrQazwKK2+5w4vbdT4i7PFxexe0qC8DKXkVqLPnTKQEBdUe6LTgNmyZAJuZFwuZY2TOKfrpakzvbQgZFW59VVlINR+LAQccEJkqFKwDnuK5RS807DIf869cxeMrKzFFSxv67DZyUGrWA3322sMpPAMZwvE2OwUJYfdxbc1AtJBRgSp7/oyYc9QyMMSgXW9hHSpsaNnMt0As/J/swo4B9dBAWw1q7HmoQ01ZFjK160J75AGc9I5BrMc57O7YDM3Z/SlDWVYCtWvVRG0pBSiy91AT2npDsOiKB169OYod3SWgIT8G86+5If9AKXe83TIYnSR0oTD+Am55CEovzNlnJiDO7zIOz+gGQznmWPKOXwH1m3fA2JNu+BTDmCW3BUtOGpK9b+Dmyi7s/c695xpQ0+8AgwWn8NzPFh8PzMEoZpkWc14aynKQlqiJGrUlIKWozl2jRug09hBOf/KF9b6u6KuoCsPeJ/AgMfPbc5eTiHiPA9jYQgvSmsPQ77QH+1wXirCBDtyGU57sGRYkxx9vLMzQQUEWyv2O46ZPIv96xQipRRPEn9jYWLaaVxCfyExH//77L28sK0wkJpLY2Lp1azg7O7MxMyWF99OTwoPYGSh5wIjIfJgkJReZOeFnZuIn2UEEMjMzY+eLJCVYoqiobxWjpQ6BgaoNxdz7gchf65QOn/ODMFSlGqTrL8PeL7EgoS/R9hDOL2mJYeuP48RzN7i5MXJ5Dedjo9FeTxLSnRZg58ccxAuiQhxTAtjXH811ZdBg9A7sf8lt88UBt9ebY8XG5Tj9gSmVXZsHczU9KHTfikuhwgYaBZ+nSzBFsg70um7GDgfBjrOQ43YKm4drQa5+c/Td8RZPnMm+7+Hmht4wUdSE0fiTuPCVCYrJUQjz9IAH+d3XR3FwjBb+q1oVOuOP4MTb3ONx9whAWDwpwfAQbI2X69tB3Xgweqy9DTuyH1bXcGi4KfTqNEWj5U/wLoSzqhQPBFyaAvNGklDtsQgbHpN1XeD2djsWd9aBmnYPxhw84CUoIQY8x4sVjaEk8R+qSqmj1cDV2P3CDU7kN17uxuZhOqiq3BgmKx/jRQC3TXYscmy3YHZPVUjpdUKvjc9g9Yk7LrvruLOyPXS1VGE8+yxuC7ZhPpHe7xmOATIK0DGYjvWPP8CBPY+PeHVlHsZI1YBWu1Ww+JCOrLRYRPl4wpP8/cMFXJ5jhLrV/oX8AEvstuZ+x90foUyJM8TGAmtaVECtSv0w+bwL+6H1ja94uaYrmlaQRpWBJ3HZlQu0GcFIYD6ahrVTgITRQIzcyxjfF26/tqdwamZTKGvpodOGp7COzN2EPBU5LsdhMUQDcnqmGLj7HZ59zt3G7t4hHJrbDMvP3MWdLyEIYM/LEW7XF2C4YUVUkDFE/90f8Zxd3wM+gUxpPzoQ7zY1RsvKNaHcdj9uxn8z0BTPB7gypQ60KzHvuPwQdDnsWjwGyhB0bQzGa1ZBPc3F2PkpAvHc8pKCtGkK4pOXlxfbRiscw/hiXGEiSRtIzCRNW4I4Svk+YmWgpCqCtBWQXK9krBTfQ/I9GRsbs5MEk5lRiLy9+epuSinCBvog6FvJITMK4fcXYaJJNVRXNEWXTZ/gGp9b9MmM8UOQ2zt8CSOVZUKk3sYeM0XUqd4CJjuc4c8WNLIR9GglFneQx3+dFmPTi0jkK39HfUGwvxsCIgIQc4sxUG1DaPTdiWthwgYaDd/nKzGT+WI37L0dexy5xRmeeLe+A5o11IfanJtMSYVbTgh6iLtMANaU74c+G23zlyqTX8OaKT1LMV/eputewbbQakIhGAO12dQVuh3mY9J5P25hLmFXxmJU49qo1XUvzrnkOmLsx0PY3UcJNUzHYtoVP/bDI5c0xNybi5nN9CBvvAkHHCNz/xZsA6sVDaFRuwLqtpqBVQ+CmbMWkIqIJ2swr0NV1G2zGKsfMReHISPCBg9nGECtYRs0Xf38mxlzZHvfx5FRklAz6olBB9yZcjy5f69xYYA2Glc3hvlmV3gJlWaTXPdilaYcDDuuhsU7EafI+gyXXeZQlakFvdnX8SiOW84R/2YTNrStDOlaQzHzshuY7x8h3PF6Yx+0qqyMOsPP4pp77hOQ6HEN50ZpoJ5RL/RgjC0w34ORhST747DsUx0KphMw/bJv7rOWwZRmV7eBcUPmWs29BWfhNgUkITXgA7yCoxEl7FzuB7Ckcx1U0umMWY+yha4rQ0ow7Lc2RbtaUtDufBh3kkjlMEPsW9hs7wvNatx7rjcWfY65IbWYDDT19TqsbCcLCYUhzIdrwZqfksbPzy8vfpGcv61atSoQ534kMh8qiaFk0nGSo5dSOGJhoBs3bkSfPn3QvHlz3gfiR1q7di07doo8dGUW34s4PrUZKv4nDUV9E5i0a4d2RK2awlhBCy0Hk4BtD8fI7O+3/7D4w3ZhSxipG0Fn9Vt4sUXQL3i0gjE5aRXUX/AELwpLgpTth6RbM9FewwgaA/biFlNo/1btGAs/q9WYzRioETFQJ7IsGZneJ7GmtTQMWk/DSnt2RSGikHF3KlrLG6P+sGN4xJhLXuwLf4IHi5ugnpQUmi9/jOd5pZvvkGegCzDpgrCBRuLTlp4YoKmJZguewTqUHDUTjPYzJVUVObReaYOXojVbiXdweWJr1JUagCnXPXJLayHP8GxJC2jUNUHndS/gJHqtAx/h0bz6UJZvg64Wr+GblYyI1xsxQ782pFvNw2Lr/K2OLClB8D7UGa1VVJlrehSP43KYjxJXPJ5pCKMKctAbcA3PhIo+yUIGuum9SNq3WFt82NwRytI1oTv1HG7mL2Ii5o0l1rchBjoS8+8EIr+XB+HTtgFoJzBQD7LvMHhdm4XBqnUg23MrdjnkrpmPGEfYWTSDnlwDGE+/BfvkNCR5ncb61lKQ0R+MUddikP6jZzKHufgOO5iPj9qopNUBU27GwV/IqHOSgmG3tRlroFqdjuM+exmj8GXPSEw01INql3Ho20wJGqaD0O2wG5JFLks+fsJAc+x2YmM3NdRR7IXJVz35mw3+Ip8+fWJj26ZNm9gp1/ji3/dEkuuT2EpSlVIKUmYN9NWrV+yYLJKb8mdzzpJ5A0nSZiLSvVsseqL5nseRCSaoWkcfJkPnYK5gHNja9VhneRGPXBLylxgFZPrB6cQCrBgzFIMHDcKgQYMxaGAPdNSXQj2ddmhkYQ9/tjeRFc5PMUJDKX0M2PMFDoXVVWWFIdlmOQZryEDKeA42f+aWsyQg7NF8jJSXRv3eO7CP/VssMj9vw8wmClCQro9m3YdhwGByHJwGdGUCnwIqV6gHzYF7cYUxyTyL+RUDDXsHW8v2MNDVhmpTc/QT/M6gVjCWrQ/DpqtxlDEV9lrlfIT1tr5oXq0m1Bqbo/OAId+Oi9Hgns1gKFcdFaq0xeizrmDiLBD6mDHQtoyBDsWQne8YCxYh+DmeLm4O9Vq6aD7/Pj5mxML/7mwMUa6Dxn234ogbt54wGaFIfjAPfXS0Id9uDY4HkM+ONER9foArS0djXOsGMBs4AIOGkuPqi16dGkG3RlWo9t2MbT9toNuxtcu/kKyqDK0WXdBL6HwHDeqKDgYKqFddHTXHXMJtT/Ip4wHHo0NhJlUPLSaex7W8KmYhUjwQfG4cTBX0oDX0OPMBkIRouy2YqV8X9U1nMSafheTiMtBq9aDX8zTuJPrD5d4cjNDVQsOua3HA+hHOT22MRi17ofMhNyQVk4HGPp2H+UY1UU9uPJZbB4qU2EsPpDqWDGMRxD0y0QRfbCxMZMQBaW8lMffZs2fcXillykCTkpKwf/9+WFpa/nSKLENDQ3YWeTLUpFS3Zf4qvmfZYSwSGqOw5GU8Cu3oKUSi72s83DYWfY0M0KpDP4wWjEEb0x9dG0pDSosYqB1noC9xcXoTNJZtgP67nWEvUvX3jTRkRb7BkzXd0KlRA8i3n4Qpc+Zj/nyiURjZkTGBGjWhNGw/DucZ6A7Maa4ARXl9tOg7HqOExsKNHTcB46fMwtwFFjh82x5fmTiaV1v5KwYaaou3lh1gUL8BtFr1xYi835qEYeYd0KXNUCw88gofwpgfynHCq+39YVqrFtSa9ESPkULHRTRhCqbOWoCV60/jvks02JrnkCeMQRIDHYhB29+iQCNA8FM8WdyKMdC2MF9nA6/saPjfm41BinXQqPcWHP7KE6rTQ5F0fw76aGsxBsoYPLNTQWE46f12bGpWAdKqrdCqHzmukRjaqykMalaDWp9fM9At5sRA1VG/XT8MET7fsf3Q3UgZMoUYqMmEs7jKV4eZ7I6gs2NgKl+fNdBHxEDtt2NOYwnotZqJjbaZv2+giUGw29IMbbUaw2T0QVy9vw4TmulBp+U8WLwJRVT8G9ydpgeNpr1gXmwGmg2fU8yHlI4EpDvtwzXPRP6P1FIImWiClEpJTGzWrBlvzCxMpKaPxGDSg7e8jystMwZKulmTMUx8N7Qwka+mfv36YejQobh//z63JzHlB71wC5AViA/7BqKbbA3I9NiP41+FGtGY8Px1cwe0MTaGwfoP8GbbTD/g1vyWaFBZDVpznsDqR5/acbZ4dmQ++vXsiq5dzGFuTmSGts21oFa9FjSH78dBtgo3CZlee7HAQAJGpgux62fqwH6jClen4wJMvihSXPrKmIdZPVSrMQQz7/oyRxaEdzuYEksdJfTY6AS+2skCBOUapEbdLuiz9V1BAw18gAdzDKAgNwQjDrswJclERL61xOyGEpBpPQ8LnvOE4PQQeB3shFYqqkwp/BAecKXw9JCbODXBGM1qtMKQIy5w425hmsd+rNaUhxFpA/1pA92UW4VbexQW3AsWavMlhMBp+0C0q6SMOsMEVbjh8Lo5F8M1JSDbcwu22+WumY+4z7Db2AT15fTRZOZdOKakIdHzAJYaSKKWylCMvBYtMlyGhx8aKCmBNkenZvrQMu3GfKgpQavZMiy8nttunRNrgxtjdaDerBhLoBEPcXqUBjS0G6P57q/wiP3RV0DphIwHJTFy4MCBPz3OdMGCBWxmpfJKqTbQ7Oxs2NrawsrKiv0C5ruBfNLT02Pb/0iph0xNVC74WQNNf43b80yg868CdOY9hVXeh2QOUj3P4NBQHSYwmKLhuvfwSSCBIQwuxydjiHQd/Gs6FxutIvOPswy3h7vzOzgEpSGt0EuegrA36zBXUQ5GvQSdiLKQk2qDq8MawUS5KTpaWMFRtHSb6In3dq746BObP9D+joGybaAiVyn0Ak6O0Ef1Gj0w5oIrQplfC3y0Gkt0pKDVfh5WPRXtZRmLaN8veP7RD4EJ3JEFWeH58qaMgSpAq+cq7HnjL5TUIhnB95ZiepsqkO+6DpuswtmlmeE2uDtZC4q6zdF0zQsE5TtJxmw+ncHOATWh0qQfhh115TrPJMNlV2f0Yu6HutlhXAtM4a5NPMLstmGJuiwam635pTbQ3E5EzEfEZVeRYSxueL2xt1AnotxeW0nu13ByiDzq6HdBz32fkP82JCDcagtWdWHOufU0zL4ehEzmGctOeYmrgw2gWKs+NOZcw6d8nYgSmVtuBTtXHzC3PJcfVuGGwX67KfqqcXFAtgUmn3ODK9exLDPSGlfH/YyBDmANVGnYPlzJ7eslBPOMu93G5dmNoa0gCaU+q3GM+Rjk+uaVaUghhcTOhg0bFoirhYnk9iUx+s2bN6VnXHwJUWoNlIxzunTpUpF705IvJx0dHbbRm/Q+K3f4nMSugcaoIt0HU2/6FGx7K4A/nE5Nx3AVddRuuxQrL76Gvb097Kxv4dQ8Y3RUqIj/5FpCe/VreAsMzf8ZHq4wgbFqNegO3YitD+zZbew/vsLlVZ0wYcYYLLkfichCe8PGwv/5UkyRqAVdc0tszxvGko5Em81Y2VMeKg2aoPvGp7hpy+37zS28ODAHnUZbYNYZZ+Tz1rCHuDu3AapVr46GCx/gSQS3/HuQYSzr2kDVsB/Ml16CDfkNTo92DMOIBrJo0God9tmFM6GfIfIT7Hb3RpcGjFF1n4dl1+3xUbDNg53YtHAmTGdexm0P7siCrGG9pjm0JGuiTj0VmPRdhA33HPCGXX8T1gzUhrRBB4w++RXOgh46aREIuTUPE1tLQ6lpd4w8aIfndtxv3N2L3cO1oa2jjrbLruIBGZ+UzQTwqAvY0lYFevLdMOZKKELyzCQWwe8tMFeuFnRaLcc6WxGniHmDdxtaol6N/0Fl/CnGeLnlHNGv1mN18wqoUbEvJp37IjKMxQXWq83RpEI9VB5wApe+cuXTBG94nB6DgcYSUGo3GjPP2eOt4BpdXY+1vRWh2qARem+3weu8rrOpSLCywHLzepBjSnA9LV/gNnfPX1/bja1TjDDc4iyYQ+BgDNRuM2aYVkIFRVOMuxYLv3wGGoKPmxqjUy0mHtRsCd01VnAI/3buaeHPcXG4MuQMOqPNvq8/MNDP8DrcB1oSzHVoPQMrbzLvheB8iB6ewpHpLdC0oQZ0Ru7A/g/iN9zDwcGBTQFIYmpR+5iQ9U6ePIn4+JIezPP3KJUGSto6SR17UbIGkfyzpNs1+XIi9fFxcYU2zok3/pdxbHJXqDcej6UPC2YiKkg2stLc4HZjKYY11IWaiho7iF27RTf0XHcDR1b2x/iRndB623t4xQg+rbOQFeUEx/0D0KO5ChSEEimo9FyKxTfcEJf6vV6+MfC3scDiBrpoO3w/jjgLrciYQor/PTxkSjja2oJECow0TdBgwE4cfu2H2OSMb+2fhEgrPF3bAZpaWui04QVsitK0HeEAu1090MZAAbKKqviWSEEDqoqtYDb4IG6HMiWgLEFyBObftFDEW2/AnP5NIK+i8W2bhsMwcP1jfIxKQaog80LQUzxd2h5a9Xph+IqN2H9sBrppa0GTrK+qgEZdRjEfGTEISBHJlJOZgiSXMzg+tyNklNS/JSJQVUcD45FYetsFrilcIoLkQARcnoiBBgZo3H8HzjM3+1ttAFMC/bQXa42Ya9x3M3baizhF3Ec47O6DhtrKaL7gCu6L9KaOfb8L23vIQFtlAhbdcBfpFOMB2+3D0U2mIdQmX8IdT8GvMueSHofEj3uwcawpZJWFrpGKJozaz8Am60DG8Jhng9uChbnnqfbHcGxaY6iqqeUlj1A3aIcG8y7goWssmFueSw7zVeZ0ACt6q0KmSW/Mvx+fb7hMTnIoHPeaoRfze8Z9juJGtFAiBYa0yNe4PbMZjMyGof9Jz+/3wk12ReClqWjTUAn1ZHKTTQg/Jxqa7dB09CFcdfRHdGLGj6ufyygklpKYSuYfJTG2bt26vDFYWCRmr1q1CtHR0WyiB3GnVBkoqbIlJc+i9qwljdlk6Ampgy9PXz28kEwwYYHw8QtFJPN5/b34kI/MWER4u+GrsxOb3u2zqxd8mOCTHB+OqIgABMSkIl20SjYlHCE+LvjyOXcbJ6fPcPaL+U7JU0AW4xPRiPT1RUAISQXHLc6DCcQJIfB0dcZndr+MPrvhi18ckvmqx7KSkRzFnLOPDwKjkr8/OF5AFlN6iwlCgI8rXF2cuePP1ecvvvALSy3k2iUhJtgTLnnnzMglAP6iqf+CnuAJ24loEIbtsoFrchh8mWvLns/nL3APiEB8oceZgbRof/ZefDt/xji9IxAnvE12OtKjA+Hv7Qvf0Hi2A843M85GJkmc4Mdc4+BoxKTms2nmz6nM+QfD18cb/hEJBUpi2akxiAlingHvMEQkpotci3SkxoQgyMsX3mEJSMwQ2TdTqkwM98l7llg5u8LDP+Y7ndpIadoXHl8/fzvnr15wi8gQ+W3mt5jzigzyhpdfECKSmPMU/vnsTObPgQhirklAaHKBe5iTlcIcmz/8AkMQHM98iIkeujDM9c1MCEeAH1Oydvua/56z5+QJ9xBBlbn4Q2IyibFk4nAyNpQvFguL1AaS6R/JuHpSrSvOlBoDvX79Ojvot0WLFvjvv/94b4ywSFq9Yp8SjEL5XYiBLmoN9dp90W+rLXy4xRSKOEAyRZHhLHwxmU/169fH2bNnua3Fj1JhoDt37mTr2vlugLDk5ORw+PBhXLlypVz3/KKUYgLu4/4sQ9T7pzO6rLeGO7eYQhEXyIgIEoNJe6eamhpvrBaWuro62yQnjvxVAyVjkchkskWZ846MVbp69Sq3JYVSSkn0g5/NJRzbdxt3PgZB/FuBKOWZ27dvs4no+WK2sEhfFTLmNDKyKF3lyw5/zUA9PDwwa9Ys3ostqi5dutDsFxQKhVIKIVnhZs+ejUmTJrEzI/HFcIEmT57MzvoiLpS4gZKOQmRuPzJ2iO8CC6SoqIgBAwZgxIgR7JRkFAqFQindkLzkP6rW7d27N2u64jBm9K+UQMmUO3wXViDSg+vQoUPc2hQKhUIpK5w+ffqHfVrIrFmkMFXWKXEDJVOEdezYkfeiksldyYV/8uQJtzaFQqFQyhqkhKmvr1/oXMwtW7ZkR1Hk5HxvPFHpp8QMlMwGQDIEGRgYFDrRK0kfJQ4XlUKhUMo7pLDUuXNntmAkGuuJB2hpaeHp06dISyswILzMUGIGeu7cOaioqBS4kMIyMTGhCREoFApFTAgMDGSnj+SL90RKSko4cuQIt3bZo8QMdNeuXbwXUCDSLkqyCpGSKoVCoVDEg7Vr1/LGfIHWr1/PrVn2+OMGmpmZyc4b17RpU96LV6lSJXZyV5pViEKhUMQPkgJw7ty5vPGfqHHjxti6dStSU3+YC7TU8ccNlJQozczMeC+cQI8fP+bWplAoFIq4QZLLk5JmYUNcSArXsth8VyJVuGSyVr6LJi0tjXHjxrEJmikUCoUivpC5mUlGOT4vIE14ZZE/aqBkOpxHjx6x88rxXbQGDRqUiylvKBQKpbxDUrcuXbqU7X0r6gVk5pZbt26xJdWyxB81UDs7OzYBvOjFIiKlz5EjR4pdbsS/Sw7zlPrB2e4NXr20hrW1NV6+fo/XXgmILaRvVk5GEmL8PuGL3Vd4BCSiYCtEJpAcBu8vX+HkEYro1AxkxgfD28UVX7zCEJMhPJVWFtITQxHo/BmuzN/CufmWv5GF7BgvOLx7BRv2+Gxg8/4z7INTkduRPQtpcf7wfPMKb5hjt375Cq9tP7DP0Qfb13jNbvMSNq+c4B6WJDRFVixCXezwzib3nMk61q/ewsk3OndS7HxkISslHEGujrC3s4fjV2+EMjvKP/1VNpAWhRCfL+wEyg5OXgiMTeOOsXAyYv3g7+IAJ+dAhCVnML8kTCJi/Zhr5vAVX4ISkJJvLi5CMmJ9PsPuFXPs7DkwsnkDO7dARIlOf0amM4vyYe7BB+a6MNdSsD5zPV+9c4FzUFKB6bxyYe5PhCec37zES+75INf4LXNMgQXmG8tBdkIwgr0cYffxHWyZ43rJ/c5LWzt88o9HfL5nKh4Rbg54/0pwLIyY43ckU7HRUWkUIdasWcPrCWS+URsbG26tssEfN1B5eXnei0Xy4JL2UTrms7hIR2rQM1hv6QMDPS0oqWuyGZ00dI2hMGILjrwORByPiZIJsl+vNoBxbW00G3sJL5nImy9epwch8f4cdG/YHPVHnMLzoDDEPVuFgY2aQ6ffTlwNJTM6CohBwGsLLNBUQfO+27Dnk1CmkZxUJHnfwK1V5lDT0IKKBjk+ZShpNIL0yKO49CkBqdkpCP14COuaNoIxc+ya6kpQlKqFatWqoaaUIhTVyDY60Gs0EituuMGLsYnMRHd4PVqJcaaNoKace86amhrQVJKE0aDF2GgdCTJlZ95TlhOKWFtLTGmiiapVKkPapAem3Y1FgPCXQ3YSst5txLzuSqhYsRJqyvfDglue8Ob+XBhBt6ZgukFNKGktwg77cHyb2p1chze4MaElGtQ0hs7S53CMFFhcNnJSghH2YReW9W0BLQXm2NlzYKQiA/1OwzDnZii8EnO+3ZdEf/idGYE+TWVQW1oJaoL1meuupGQKg0GHcNU1GsnCJp2ZiBjfyzg2rwcMZVSZe8Bto64I7UZNMXjfB7wKTfs2x2VOBpJerMKybrKoWkMCUmSSb+53tE17YMghR+YcyIqZyErygs/zdZjW3ghqSoJjYc5DWQqN+87B6qcRCGMeEvqmUwhkAhE+TyCTdlMDFYJ8vSsrK/NerIULF3JrUYqDHL8bODXDkAneeui87jHufvZmBzK7vr2L80tMsHTPcVzhmZwyJz0YCXemoJvG/1C12USsf8+UJYQiXUbIezxfpAmt+u3Q3uITIjJCkPZkPjqr6kHe3BLng4UNNBp+1qswXboO9DpvxFY7gYFmIcftFLaN0IaMbnP028Xs05Uc3xPc3zIArZXU0GjkYZz6nImM1NzJoH2ZY/f+eAYnJtVH9epVoT3uME6+zz0nH98QRCYypbDwF3i20RzaWipQHrQNux7n/t3b+yu8767A5A7yqNeUMb97sQgUfDykuiH08nS0UG6MKhUrQNLEACoLn+C1/7evi5zkYHza1gI9VHKf1X9qdMK0y24/nJos4OoojFOtgFqyM7HpfaiIgb7E5WENoVxBG/JzHsM+nLs2ic5wOzESLRvKoU6HuVhy2ZU7B0Yv92DjYC1I1TfF0KNf4SQoTsd7wvNIX7Qw7YomMy7ARrC+txVuruyLtnU0oTDyBC66JOaunxWBtBdrMKaDAiQa9saQXbb4yF5/Rp+u4ebSNtDQVEOLRdfwIFhw89OQ9Hg+phrWxX+KfTH1wkfYCn7HLxDBpEROHD3qNd5s64kGOkqQ67Mem+95ccfiDu9H6zCniyIkDbtj+rUw+JS9TpaUP8DKlSsL+AERqZUkGYzKEn/NQEm3ZkpxEQKnPf3R3Ugd0uNO4omv8Lc+U3IJc0RAcDBCU7hF+WCiYOIHXJ/ZCA0atYDJ9s/wzesMl4hwh31YY1AP+h2WYLUtKTWFIPvJQnTRMYRaz+24LFIC9bdhgqaSLAx7bMZOB25xphfebegI00b6UJtzC44x3HJC6HM8nm8CXble6L7mVX6TSn0Lm7WmkJGuh2YrnuNVvirhZPhenIaJpgqo1ssCe98wJS7uL7nEw+XYIAxsKgG1YSdx2Y1zn9SvCD4/BU3VWsG0dVv0G9QfkgZrsPNNEFfdyxhHyC3sbaeCIS1N0bF7V6bE1gAjdtjibcH64HwE3hiPyTpMqVZlPrbZR4hUHzMl0DFNoVXZAGoLn8ExKvcehb3civVd5FGt7QzMuuaDGKFCO3OwCLm/FLPbV4V857WwtArLLcUlMKXh44PQymw0zDfbM1f9G8mvN2Fth+qo3mwh1jxhbg5DasBDXBuvAznDrui41RaB+Z6DHGS4Xse+oXWg0nQwRh5z5faXiZSnizG9iTwk9aZgg10qT3V4CvxuzsOs1vKo2nUVNj0PY54YYRLhcXYMRpjUhnL/AzjlRPs7UKiBFhlqoCUBY19hN7GvrzpUlNug6xEfBPMa5fdIR8ytGRjXRAl1TZdiv118bhBN+wznY2PQVLIRWs+9gSdkv9lByHw4F520jKDWeyeuRZCtBcQh4PUGzGMM1KjHFux0JMtSkO17CmvbSsOgxQQs/8iuKEQUMu9PRztFI2gPOoT7jHnntd9FMua6vDmkpSRhvOgenoRzy1nTt8HlqcZoIFMfTTd8BG9s/rQHO/vIo7Zyf6YE6Y4gsizuIxy390ND6a4YNGs5Nm8aAiPpJhi15wPsyYlkeyP83lKYy5tj0PKt2H92HobJKaHD9Gu47k92UDjEQCdpV4aM2hLs+ZrElju/YY/7E0ygU4n5iFj0Ak6sgXri1dbeaCMjC82p13HHL3fNfPjexs1pWpCTboXum6zhSpYlesHvBDHQUTC3tGPK/QKS4HNpBqbpyKLhqNM495UU+cIR+HApRmnWhnSnNdjwTvjjioMxZJedbdBEQRP1hx/HU8Yps4ixPl+MGU3lIaE7HqtsIpFrxwKY/aS8w815pmgsrYnGK2zwjnkWCvDlCA4NUYSEQneMP8V8nHGLKeUXaqBF5HsGumzZMm4tyu+RBHgdwcq2ctDR6YsFj1IR9iuzBIVcwqGhulCobYTu+z7jMylWep/BucmakNAbhakXuZJJThQybNdguLYM6jWahg32ZKGARMbzFmO0ohR0emzFbnZ0UjyyXXZibnNFyNfTglHngejVry/69uXUuxN6MqWcKhXqQaPfLlwSNuRCDZSx2Ojr2D9YG3ryLTDmTBDcC3RYYgi8gcvTWkKqXkcMPuwAN2ZRjt8D3JqpA3Wd4Zh88hlePV2IyYYS0B5zFEdJI2f4E1itaQa5NvMx5/EruDyeh9F15SDTZQf22PP9yDcCb0zBHON/UbWaJvTbd0MPwTn27cOoDZor10UNiWZQX/YSX1gDfY97yxjjktBAD4t3eMXXATH6Nd5v6glNSWO0XHSLKccyJAcg8PRgdDFWg1T9NuiS9zvtYKKpDS2Fydj4Por5NCF4wv3ieHSXrYumIw7jLE81PtL8EXN9Kjqp6kKlqyUuMBuSj5jMF98zUObzIP4+jo/Wh76MEYYd8cbn/MXPXELv4c68tpCTbI3eu95AUClBKb9QAy0i79+/R40aNXgvFhnacuzYMbZrM+V3IAZ6DGs6KkCnfm/MvZ+E0G9Fwp/AD7a7B8BcVgqqQ07iamg4wu/PxWyDutAaTNonBeaRjuzoj7Cy6I1uhrqQbjUaY6fNxMyZRMMwrANTWqpeHQqD9+BAnoHuxvwWilCU14fpwKkYP3kyO7EuqynTMHXWAixethXH7zjAlSnl5nWWKYKB6sqZYORJf7gV6EXK4H8NFya3QD3JDqyBejKLctxv4vwECSg3G4mpN4MQzZjsubF6kNKbiun3SJvgNli2l0TzmadxISIasY+XYbqWDCp3Wg+LV8KVpQUhBjrb6F9Ur9kQJv1GYWzeeU5i1BudtaVQu27TAgZqzBho1/VvYJPrePmJegXbDd2gKWEkZKD+CDw1GOZNmQ+eJr0xPO93pmFC/x7o2qwLxq++jAeuccyV8ofHpQnoyRio0dCDOO3F7jU/aX6IvDIJZiraP2mg91gDbSBtiMEHPb610QoTfAe3ZreCrEQrxkDfUgOlYNOmTbyeULFiRbx48YJbq2zwRw3Uz8+PraotLIm8trY2AgICuLUpv0YqYzQXsa2TCqRqt4XZQW+E/FJnjRxE22zGunZyqK01AisuH8WhlX3RrG5z9N/jAHvR4Jhoj1dnlmHYgN7o3asXOxC6V69u6NRaD1rVa0JzyB7sE1Th+h3EksYSMGw6C9s92K2LRqEGygTvJFvcmGOCxgp6aLz2PRz4zMdhF7b3kkFt9aGYc8MLpIYxzfk8jgyXZox/CmbcjEFmhhvcT45A63pN0GfmPKzcOA3t6rbCzMOf2PbYpPd7sbWXJKS6LsbKR+Ei1bL5CbwxjqvCXY79HqJfMZ/xeFIL6HJVuLltoOSjZSA6KcpDdfI1XOfr5ut3G9enqEJWrj36bHsN1v8EVbidxqDLVqf8bZMRt3F7shok/m2NHts+IJD5a8iLNZjWQALSnVZh9eu8z5NvJHnDeZspDBW1oT/mDF4yHyPZzPOQ/qMq3FQH3FvSDs0UtNBgqTVe518hly+HcWCQHOoq98WUcy7M8VDKK2TWlQcPHqBnz54FvEBBQQHTpk2Dh8fPBIi/zx81UAGDBg0qcMGIyOwrtAT6u5CQ7gyr+R1hVEMWdYbsw518pYwspPs8h53TZ3yJ+F74Zwi3wYstPdCktjY6tm2F5k1ao07jOdjxISpfR5XCSUfUR0ssVJaDUXfSiYiYBPOb6ba4NdoYLRUboc3qR/ggWlWZ4I4375zx1iNaqD2VoVADJaQg4NI0jG9SC5U7L8Ve24T82yZ74dVmM3RpJAnt8Vdxy5s04KYzZrIRi5vIQrb3Jli8JvXUiUj5eghLWkijvbwMtPQHQL7lPpx0jmD3l+V2HRcnK0NFbwTGH//y3evwrRPRPGyzC2fK3gLIdXiN66MLdiKKstmOdWZ1UKnZKMy85ie0DUNWCL6eGYvRzatAoddW7HrDjZkWdCJiDNR8yyeh3r4MyS/xZpUpZKo0Q4e1z/GFWZQe9AQ3x6lCun5rtNn0CiH5PDQJ0W/2Yl23/6DYYgwmnvfmDDkTyU+/Z6CENATdnI8ZJrVQsf1cbHoRnX8ccaov3u/qgV6Na0N9xGlc+lr2UrVRig8ybLGwpDo9evQokxNs/3EDJcnku3fvznvRyISrVlZWyMj4lUY7ijCZjidwYJQyNNQUYTrvPE4+f4d3797h9b0z2D2jCYYvs8Te93ndcwohCVFfT2FDQ0kokHtUqwWM5xDDK2qdcBwCXq7CdMla0DVbjy15w1iYYPx2FywGKEGjQWN0Wn0Pl6xzj++d9Q083TcHnUdbYOapz8jXFyjiCR4sbIjq1f6D3pzbeBjGLRfgdQfXFhihiY4MGk/Yi10PuX2+eY5HFv3Ru7EMVLuMx3qrVISxphGKL5emYET1OjAecQqnuY/dnMRPeDSnEQzJOct1QJ+T3vASVAmHMSWrVW2g/F87tFv6EE7feccDrozAGKUKqC41HRbvQ4XOhWxkjUtD9JnrqgGZ2Y9gH8G5WNh7vNnWFZ31a0Gzz2KsuMadA6NXB6diYqu6UDLpjqmXfOEmqEUnw1gO94JJ03bQH70fN7n1iZ4enYfZJjLQM5iGlbc8wH5zpIYg6NpMjDWVhnKLfhhz6B2eCba5sgkb+6lCvYE+um16DOu8jkBpSHw0FxP1a6OK8ggssYpACPeXfPg+wt3lJmihWw/6I7di6z3BsVjj2dZhGGAkBeUOI7D8Ycy3oUSUckdiYiLevn3LZhzi84J27dohKYmvHaZ088cNlJgjyXdbs2bNAhft33//ZQfPnj9/npZEf5tMZPo8xINVbWHcQBWq6hrQ0GCk1xwqk47irF0EUn7knwyZEU54tkARjapUQJ2WM7D+XTbiivxhGIegd9ux0tAAZiP24fBnoQ1zMpEe+gxW2wdCv772t+PTNIHegF04+jYQiamZbFktj+hXsNrUFQ30dNFp3VNYiyatyslCVvxXxhxmo1cbfSgL9qmhDnVlE/RddBZ3wlKRlrfTCLjdWY6FBkaYZGENpsCUS2YMIu7MwTgTA+iZr8Zht/RvJcGUr/C/MAsdGnWF+ZKbeMUUZPMdoxAh9+diYUslNDBejf2OEUKlSXId3uHeTHO0UGqHpmtfwjlKcDOykc0YXLLVOszo2wRKaoJzYKRigA4jtuCUezJihEuNSYFM6XsSRrRThbwSY36C9RmpqzZD03YWOPU1HDGZpCKWIysVqS4ncWBWB8irMOsJtlHVgmHrqbCwCoBfhtD6OelMYXY9lpo3gk7LudjyLjrXjEUh9yDRExG3F2CwWSMo5x0/uQdN0HPWMdwISkVykZ8hijhCOgeRpDr/+9//CvgA6SdD8qUTky1r/HEDJZmGIiIisGLFigIXTiBJSUlYWFhwW1B+HSYYJ4QgwNsNbq5f8fUrI3cvuIenIqWIASwzwgHPFqmgQWV1GI+9BBsmcBc99mUjMzUO0YGBCAmPE0n1xpEcDj8voeNz9YJbYDz/8WUzxx3LnE9AAEJiUpCar+pRiMw4hAV4wl2wz6+ucHX3R2icaDq9LGQkR7PHFxWXhtS832RsIzUGkSFBCAyNQxKz0TcjYfaRFI2QwGAERyV+9zpmJUchKsgPAYExzLlniVy3NCRHMiVBv2AExaQiPUvEhnOSEBPqA4+8c2Dk5oOAiJT8VdMExrQyEyMQEeQNb083uArWZ+Tq5gvfoCQyuImHdKRGB8LTjVkv7zc84R0QgySRwyFXIIe5JtEhjFkHRyGWuViFXX6WrHhEBDLPWr574IfgmPTvb0cRe4gH3Lt3D1WqVOGN//PmzUNYWBitwv0e+/fv5714As2ePZtbk/L3SEK082GsbyyDaopDMfSEJ09uXAqFQik6x48fh46ODm/pk8jS0pJbs+xRYgbq5eXFXqjKlSvzXkSSP5Nk6idT3lD+EsHP8WhFC2j+owKtcWdwOZy2TVMolF9n7dq1hY7CIM16GzZsgLv7j5Jkll5KzEAJpBfW/9s797gc7/+P//b7zuOLGUbIKpUkoZwqayWq2WQmZ4rRNqfN8csYD8wcNmZzGsocvg6zhTFhRi2EHMaooQON0okOOqlI6vW93lf33e7qc3N3S3XX+/l4vP65u6/u676u6/N+3Z/T+02/RqytrYUXlLr4EydO5K0tVUVaBMKP/hc+G/fht2uqc3gMwzCak5SUJI8qqssDQKJ9n1RwRJepVANV0qdPH+EFVcrT01NOwsAwDMPoFiEhIfDy8hLGdqVo8Shlo7t9W5QaS3eodAOlbS0rV66EpaWl8MIq5eLionNZKRiGYWozVI6sb9++wpiuFE3Xffvtt4ojdJsq6YESBw4cUDuUqxQth6f3nTp1CgkJCYojGYZhmOoCraClGE0rbTt06CCM5UrR33/66SfFkbpPlRkocfXqVTg6Ospj4aKLrapx48YhLo4TgTEMw1QXEhMTMXXqVGHMVhWtwLWxsZGTbNQkqtRACdojOnToULV7hJQik3V1dZVzJd6/f19ekMQwDMNUDbTYk1Lw1alTRxizlaKdF5QruyZ2gKrcQAkaApgzZ47w4peWqakpzM3Na8wYOsMwjC5BiRFokSel5aNscqI4rSrqod69K6o0oPtUCwMlUlNT4ePjg3r16glvQmk1a9ZMvjHcE2UYhqkcZs2aJU+7tW/fXhiXVUWjhqtXr5Y7SDWVamOgBK3QPXToEHbv3o3BgwcLb4qqaNjX3d0dw4cPx8GDBxX/hWEYhqko/P395Rg7aNAgvPLKK8JYrCoqHkIxnBaAPnxYs3OZVSsDVYXyaVJSBdENEokqu8ycOVPOuVuTf/EwlUDaWfyydAY+HjMao0cr5YUp3v4I4MXgTC0gPT1dziJEMbVr167CmCsSFQ4JDZULAdcKqq2BEnQTP/vsM7z22mvCm6VOY8eOxZo1a+TeLMNoTPbfCD+6CIsnOMDRvh9cBnrKST2K1B99+r2LETPWYOeFJNyj8qIMU8M4duyYHDsnTZokjK3qRBmHpk+fXus6L9XaQJV8/fXX8vCBg4OD8Oapk4mJCbZv3479+/cjOjpa8d8YRsR9xOyZik9s66Gl3TBMPRCLkgklCxB/aBHWzP4Ynx+MwW2uvsfUEGh1LMVIKivZrl07YSxVp+7du8uxmXqrtRGdMFAllHSYslzY29ujRYsWwhuqTmPGjJELul66dEmea61pFGYlIOHmRZwNDsKJ3/3hL/2SpF+Tx475SwrE8dPBOHv1JqJS8vC4TNWgTCRHXEKwdFzRMZICTuB8WBxSSuf2z89B7r0buBoei+isPBQWJiPm7EkE0TH+gQg8F4LwlAL1JdCyYxEZfAKBAYrP8Q9AwMlghN3NK1u2KzcFKbev4I8LZ3D6xO/4vfjcAnE6TPq+KuUDn9wLRdhZxd/pO/9+EsFh8UjUZAqm4BEeRq7BAqeWsDQfigXB+SiuK80wNRBaSXvlyhU5Jk6YMEEYM9VJT09PjsG9e/euVcO1InTKQAkyP9K6devQvHlz4Q1WJ1oVRjff19dXzsFIunPnjvww6Tp551Zg2SAj/LueHloYt4aZubm83adIRmjZqD6adBmK0T/GITFHcRDyUZAtXYNTX2FaH1uYGbb55xjjZuj4zhjM8EvA7ezCfwwxPRwR3w+Dg7Mn+i/fgoNHvsZsexvY0TFmBjCysILt7AM4EPYA2aq/Uwpz8SD5JI59Nwaupm1gYqr4nDYmaGOsj57Tt2HH9Qxkqzpv+I/4YaIF9Bq+ikYtWsFYeW4dOsNl/gH43STvy0Rm3CX4r+gLT0fF382l72GkB0PXjzD+p79xN5f6j+qQvltWFIK/6Aq7BgZo574dgdL14ZpATE2DeprKuEcLfKjAtSZJbFRFux9WrFhRHIdrOzpnoEpo+wqljmrVqpVcFqc8D0LDhg1l8yW1bdsWgYGByMrK0ukVY3lnPsdnjhZoZPgJFvhLvcDYWHmjc2zsbcRG/4hvXVvDSt8FQ7fFIFYxf1eYfhEh64egi+XraOo2D0sOS+9VHndmDRYNbg299j3w/rYoSH5YRMYNRHr3hWPrf+H/X22Gdj0mY+mv4QilY8IP4NC8njA0MsDro7yxNVRpQ09QEL4V3462RBMzGzjMOYRfryg+59YFhG31gqu1Hozc52HdlQIUTy9e34qNw6X726Ab3ll0EP7Kc5MCQeL9bGQ/BnJuSr3NJY4Ys2AlVgco/h4bhdijCzDOqRkadOyP6YfSEKv21uYiJ94Xq94wxGvN+uJt73BksHsyNYRHjx7JsS04OBhWVlbFca9Ro0bC2CgSZRGiGKuvr499+/bV+JW15UFnDZSgCuY0rBsWFqZROil1MjIykvc1jR8/Hjk5xd0znSLv7CLMceqC1y0XY2NUTqke11nsHtYJDga94bkjDnGP6LV8xB/9HHOcX0f93nMw/2gCSk7rPUT8wZmY3KsBDNy+wppgxaBm1t+44fMuehr8H+p2HIhJP8UhpviHaCEeR/wCn5FNoN95EEb4RBaVRCv4G+cX9YK9dUeYTvsF5xJL9Qcf3ELgfGvYdrKC3ezjCMlWvB62DZs8zKVfva7w3HINfyteVqUgNw1pd/7CraRsqIzoSvyJw5Pt0PZlU7Sa7o9T8er2C+cg685/8WUnQ1h2HIup/pnI0/0BCYaRe4hUUoxim7qanJqIFmVSjI2MjOR6zaXQaQNVhTJdUE9SqREjRggfhqeJ9pU6OTnJKQNJtCVGVyADnduzM1pazMfaq8kqZii525Pj2DHICvaGb8NzZwLiZQO9hoCFvdG9uREs//ObeHtG1B74jjVFc31nDFl7AVH02oMbuOndH/bNO8Hq/R04Ubrmdqb0g2ZVT9gYtoPVh74IznqEnJhdWO6iL52bO0buSUFOGYN6gqzD4zHaugWa2n6GddceFhlvxDZs9pQMVK8Xhm24KJ1xeXiAyA0eGNDWBM3G74X/LflLC5AMNHYHlnczgm23iZhzIheP2EAZHeXLL78sjl/Ozs4a7dssrYEDB5aIpZyDXD01xkBLQz1TWoG7fv16GBoaCh+UZ4mGLTw8POQFSCSad62uaGygPyQqDDQIe6fZobNeOwxaFYqLGfKbS5JyEqe/6APjpt3huigAF+m1B5GI8h6AN5r3xpvjD+Ky9FIJv8mIRMT692DfzACmA71xIDkb6VfXYla3JmhnMw6Lz+Ujq8yE5CMUXFmJWT07oLHFh1h4Lgsp9HKkpgaahpt7FmDJKHe816+fnJ+zXz839JJ6lQbG7aE/9SCCYtQZqNRzjd2GZZ2NoG/sAY898XjIP7IZHWHz5s3F8WnUqFFynU1RLHuWaG6TsgZRzKTeJqMZNdZAVdm7dy+WLl0qP2Cih0dT0UP26aefYt68ebIo20Z1QVsD7dTUAu+t+BPn0+Q3lyQpECfmucK4iZ3AQF1hP+4XXJJeKuGHGeEIX++O7npdYD16N4Jzs5EVtgYzuzSBeZcP8fmpR8gsY1APkX9xOWY4WigM9EHRKlgNDPThvSsI3vQJhr/RFW/2Gobx06bJw1bTpk3ASOe2aGNiCf0pTzPQx8hNPIANbxmiSVNn9PwmpMi8GaYaQot/lPGH8ocbGBgIY5WmokIeFBtpCwtTfmqFgSqh0jszZsyQl22TaBm26KHSVDSvsHbtWmzcuFFWVRYAL/8Q7k0ELXsPPQ1bwWzKrzhyR35zSaJ2Y9cHhtAz7IORG/8s2hcpGehNb3fJQG3R9cOfcV5+owqZEbj6zZuwNnBGj0+DECP1LvPu7cNqNyMYWvbH4F33kC3o4WX6ecHTujmaOX6BLTfypH6hxDOHcFMR5TcTXq3/jcbd5+KL0yVNMmXvOIx5wwSGk/cj4LY6A5UuT3YkQlf2gYNxS7QcvBp+SYo/MEwVc+bMmeL44u3tDQsLC2Es0lS9evUqjn+0boRW5DLaU6sMtDRUGo3mSmnIT9thXlVROkHakHz48OFikanSYqcXjcYGuiNWsYhIMpjApZjv3BD/6u6FmX5xKsdI5MXgis8QDOlaH8bDfLDlSnrR61k3ccOnP5yMGqFp55H4z64QSH6nIB+5lzbjc7e6MHD4CJP2xqBoSVYcrnzlDHsLAzT32oKgRPnFf7jzO7Z/ZIh2VnZw+epPRCoX+dEioqcaaBj+3DgUPeo0QLPBm7FNJRYUxByE7yd26GraFi0m++FEtHoDpV4o7hzGutEmaKlvCIdZP+PQrXx6tSTJlxF58QiCbqQj7Wn/jmG0ICgoqETsoPzetra2wlhTHtGeeYpxlPDgr7/+UnwaUxHUagNVhX7hUc5HpcqbPlCdaE5i586duHz5sqzr168rPrFiyTs9DzNszfGq4Sx8E5pUtAhHhgw0AFvcWqNT4x4YtCUaMcp9IolncWrFO3jHqjHaDpqL+buD5EYcFHQC/t+8D0+7pjDuNQyzDyWi2H8yJQP93h3ObRqiYRN9dHQchSnfH8UBOu7Iaqwf2xlGHbrj3a+PI/i+4hgy1j/WY4WHKSw6WqPX3P3Y4a/4rENbsXmcDbpZmsHmk3XwjZK+i+IoXNuEDYNeR726dnhvzXmUbfr3EX92JT63s0CTju9jxDd+Rf/z5DHsXPguhrRrgEZNTFB//C84/pQeqJK0c99hzTBzdDFvgS7jvbH6oOIcFfp5+QjMnDIE0/ZG4YZoyJthykFERERxXKBpppYtWwpjSHlF2/RUY9mqVasUn8hUNGygCqiXSPublFqyZIk8v6BU3bp1hQ+rJqKCsnQ8qXXr1nJ1g/j4+BJ63rJsjy+twrLBb6OL0wpsjUhV2dJBBhqMn8e6or+NJyb/HI+E4o2WhSh8lICc44swwd0Gxq3boE2bIpmZdIXbhA3YcycP2aqrhDLDEeE9EPYt34KL11JsO7wQox26oD0dZ2aKjg59MGVPDMIfSP9bcYhM4RPkJwUheK0HOnWwQGszxWeZmaFt2wGYsu0PhOQ9KTmfemMPfpzsCGurIZi4PRSRipdVKSxIRsblDZjr9gYsTc2K/qe1Hd5a4AfvlbOxZKID7BcdRVC0Jtf3CZ5kXEO07yS4OVrBRHmOCnUZvQTLT6QiK68ABbxSl9GQx48fl2nvp06dkreXKOMCxQhR7NBEdKxqrJo7d26JWMZbT14cbKBqoP2gCQkJxaJEyfXr1y+WJoVk1alp06ZyFhBV0Wo6+szSogagCYV5WchMTca9pCxkPy4oaV54hNy0ZKTcS0VarmQSpYN/YQ4ykuMQc/sWbt1SKDoe99LzyH5LQga6oWgRkcOE/fjjSRaS4mIQLR8XjTsJycgsc5AKD+8jIfY2bis/RzomOjYVGSJ/y5euQVoS7t6Vzjv7cdlzKeYhspMTEBd9W3HuMYhPl3q9udnIzbyHpEwpkOSXw/Hys5CceEfxnf5RTHIWsp723ZhaDSUtELXhXbt2lWnvlBFNFBs00UsvvVQiFtH+ddVYlZ2t3EjNvGjYQDUkJSUFISEhxXreFb2lRfMUnTt3LiOau4iJiVGcRTWADHR9f9jpOcHmA8lAFS8zTG2GFigOGTJE2IbJMEVtXlvRXKZqLOLyjVUHG6iWUHWXI0eOFMvNzU34sFeEqAoNJdEvre+++05xNpVIxnWErX4bVvVs0dHTF2ell178EimGqR7QSJGoLfbo0UPYditCtHJWNdbQ4kemesAGWkHQ6rZNmzaVEBWXFTWIihLlpqQ0W+PGjSujq1evKs6sgslLR3pYAPx++BV+p26DdnzwdCBTk6AkLB9//LGwXVHubVFbrCjRyFbpOEIVpJjqCRvoC4RSYFGdvAULFhSLCtVSykBR46lI0a/ixYsXC0Ubp6vVsDDDVCKU9nPZsmXCtkGiVHaiNlWRojUUNHepGhtIvC9Tt2ADrWRotS81UmX6LaUqYh9qeeTl5SWn7RKJtt2kpqYqzphhdIuMjAw5s47o2SZNnDhR2CZelGh9Q+n2TpmENF0gyFRf2ECrCT4+PnJmJFU9b9aR5xGlCQsICHiqaB6YYSoTGtURPYuqWrhwofCZrgyZmZmVaceUY5apmbCBVmOOHj0Ka2trdOjQoYxo+bqoAVemRo4cKSeG0FT37xdnVmAYmfT0dOGzok40Dyl6FitTNAUjapMkykTG1B7YQKsxhYWFcjFckWguVVkcVyQqgitq/BUpmsehijWaivIQJyUllVu0hYip3tCQv+jePUtUMlD0rKhTZTzXSjVu3FjYtj744APZ+EXtsjLSdjLVBzZQHYUaMC0EUqfhw4ejTp06ZfTyyy8Lg0VlqF69enIC/vKKcgyfPHlSzuhS0aqNAU90HZ5HFy5cQLdu3YT37lnSpl5lRYnMWNRGSHRuNAIkaltpaZzHkSmCDbSGEhsbKwe20qLFFVSWTRRQqrMolV737t0rXLNmzZJ7+rUFPz8/4XV4HlXlXL22onyxW7duFbYRUmhoqOKKMYx62EBrIcePH5frCqrTvn375AwqosBT00Q9IMr2NGDAgFohXTS78srS0hK+vr7CZ1spWmzEOWKZ54UNlBFCJkuZjp4m2msqCmAs1ouSi4uL8FlUFRVrYJjKgA2U0RrKw0lDoJqqImobsmqWOnXqJHxW1On8+TIl3BmmymADZSoN6tV6eHhoLdpjJwrCrKoVldNyd3cX3rNniXK7MoyuwgbK6AxUFsrJyalCVRvmBJWihViia/C8mjx5MmfVYWolbKCMTkErZitS1CumYURzc/MaLVpY89tvvwmvwfOKYWorbKBMrYf21NLevpos+o5sdgxTsbCBMgzDMIwWsIEyDMMwjBawgTIMwzCMFrCBMgzDMIwWsIEyDMMwjBawgTIMwzCMFrCBMgzDMIwWsIEyDMMwjBawgTIMwzCMFrCBMgzDMIwWsIEyDMMwjBawgTIMwzCMFrCBMgzDMIwWsIEyDMMwjBawgTIMwzCMFrCBMgzDMIwWsIEyDMMwTLkB/gfpSpzJiJ+HMAAAAABJRU5ErkJggg==;" vertex="1" parent="1">
          <mxGeometry x="220" y="1090" width="464" height="717" as="geometry" />
        </mxCell>
        <mxCell id="8LVjwsLibscviExB6FwT-76" style="edgeStyle=orthogonalEdgeStyle;rounded=0;orthogonalLoop=1;jettySize=auto;html=1;exitX=1;exitY=0.5;exitDx=0;exitDy=0;entryX=0;entryY=0.5;entryDx=0;entryDy=0;fontSize=25;" edge="1" parent="1" source="8LVjwsLibscviExB6FwT-70" target="8LVjwsLibscviExB6FwT-71">
          <mxGeometry relative="1" as="geometry" />
        </mxCell>
        <mxCell id="8LVjwsLibscviExB6FwT-70" value="Начало" style="ellipse;whiteSpace=wrap;html=1;fontSize=25;" vertex="1" parent="1">
          <mxGeometry x="30" y="915" width="180" height="150" as="geometry" />
        </mxCell>
        <mxCell id="8LVjwsLibscviExB6FwT-77" style="edgeStyle=orthogonalEdgeStyle;rounded=0;orthogonalLoop=1;jettySize=auto;html=1;exitX=1;exitY=0.5;exitDx=0;exitDy=0;entryX=0;entryY=0.5;entryDx=0;entryDy=0;fontSize=25;" edge="1" parent="1" source="8LVjwsLibscviExB6FwT-71" target="8LVjwsLibscviExB6FwT-72">
          <mxGeometry relative="1" as="geometry" />
        </mxCell>
        <mxCell id="8LVjwsLibscviExB6FwT-71" value="S&lt;sub style=&quot;font-size: 25px;&quot;&gt;bx&lt;/sub&gt;(k), N, F&lt;sub style=&quot;font-size: 25px;&quot;&gt;ло&lt;/sub&gt;" style="ellipse;whiteSpace=wrap;html=1;fontSize=25;" vertex="1" parent="1">
          <mxGeometry x="240" y="905" width="180" height="170" as="geometry" />
        </mxCell>
        <mxCell id="8LVjwsLibscviExB6FwT-78" style="edgeStyle=orthogonalEdgeStyle;rounded=0;orthogonalLoop=1;jettySize=auto;html=1;exitX=1;exitY=0.5;exitDx=0;exitDy=0;fontSize=25;" edge="1" parent="1" source="8LVjwsLibscviExB6FwT-72" target="8LVjwsLibscviExB6FwT-73">
          <mxGeometry relative="1" as="geometry" />
        </mxCell>
        <mxCell id="8LVjwsLibscviExB6FwT-72" value="Формироване статистики" style="ellipse;whiteSpace=wrap;html=1;fontSize=25;" vertex="1" parent="1">
          <mxGeometry x="450" y="905" width="180" height="170" as="geometry" />
        </mxCell>
        <mxCell id="8LVjwsLibscviExB6FwT-79" style="edgeStyle=orthogonalEdgeStyle;rounded=0;orthogonalLoop=1;jettySize=auto;html=1;exitX=1;exitY=0.5;exitDx=0;exitDy=0;entryX=0;entryY=0.5;entryDx=0;entryDy=0;fontSize=25;" edge="1" parent="1" source="8LVjwsLibscviExB6FwT-73" target="8LVjwsLibscviExB6FwT-74">
          <mxGeometry relative="1" as="geometry" />
        </mxCell>
        <mxCell id="8LVjwsLibscviExB6FwT-73" value="Оценка вероятности&lt;div style=&quot;font-size: 25px;&quot;&gt;P(1,1)&lt;/div&gt;" style="ellipse;whiteSpace=wrap;html=1;fontSize=25;" vertex="1" parent="1">
          <mxGeometry x="660" y="905" width="180" height="170" as="geometry" />
        </mxCell>
        <mxCell id="8LVjwsLibscviExB6FwT-80" style="edgeStyle=orthogonalEdgeStyle;rounded=0;orthogonalLoop=1;jettySize=auto;html=1;exitX=1;exitY=0.5;exitDx=0;exitDy=0;fontSize=25;" edge="1" parent="1" source="8LVjwsLibscviExB6FwT-74" target="8LVjwsLibscviExB6FwT-75">
          <mxGeometry relative="1" as="geometry" />
        </mxCell>
        <mxCell id="8LVjwsLibscviExB6FwT-74" value="Установка порога&lt;div style=&quot;font-size: 25px;&quot;&gt;обнаружения&lt;/div&gt;&lt;div style=&quot;font-size: 25px;&quot;&gt;C=C(P(1,1))&lt;/div&gt;" style="ellipse;whiteSpace=wrap;html=1;fontSize=25;" vertex="1" parent="1">
          <mxGeometry x="860" y="905" width="180" height="170" as="geometry" />
        </mxCell>
        <mxCell id="8LVjwsLibscviExB6FwT-75" value="Рачет вероятности D&lt;div style=&quot;font-size: 25px;&quot;&gt;с учетом нового&lt;/div&gt;&lt;div style=&quot;font-size: 25px;&quot;&gt;порога C&lt;/div&gt;" style="ellipse;whiteSpace=wrap;html=1;fontSize=25;" vertex="1" parent="1">
          <mxGeometry x="1070" y="900" width="180" height="180" as="geometry" />
        </mxCell>
      </root>
    </mxGraphModel>
  </diagram>
</mxfile>
